<svg xmlns="http://www.w3.org/2000/svg" width="682.667" height="682.667" preserveAspectRatio="xMidYMid meet" version="1.0" viewBox="0 0 512 512"><metadata>Created by potrace 1.11, written by Peter Selinger 2001-2013</metadata><g fill="#000" stroke="none"><path d="M2500 4441 c-43 -9 -136 -49 -170 -72 -23 -15 -897 -518 -1570 -903 -211 -120 -277 -163 -326 -211 -63 -62 -105 -137 -123 -216 -13 -57 -13 -896 0 -963 18 -100 85 -205 169 -268 29 -21 259 -153 425 -243 41 -22 734 -407 815 -453 25 -14 63 -35 85 -47 48 -27 385 -214 435 -242 205 -115 272 -139 374 -130 100 8 147 26 289 110 43 26 80 47 82 47 2 0 45 24 97 54 51 29 113 64 138 78 25 14 108 61 185 105 244 139 500 284 860 488 193 109 369 211 392 226 75 52 142 151 169 251 17 68 18 914 0 989 -35 146 -129 253 -301 341 -16 8 -219 127 -450 263 -231 136 -438 258 -460 270 -22 13 -98 57 -168 99 -71 42 -133 76 -138 76 -5 0 -9 5 -9 10 0 6 -4 10 -9 10 -5 0 -121 66 -258 146 -136 80 -270 155 -298 166 -55 22 -178 32 -235 19z m433 -473 c161 -94 346 -203 412 -241 66 -38 136 -79 155 -92 19 -12 233 -138 475 -280 550 -321 530 -308 550 -352 47 -99 -31 -214 -136 -200 -25 3 -111 47 -241 124 -111 65 -208 119 -215 121 -7 2 -13 8 -13 13 0 5 -4 9 -8 9 -5 0 -213 120 -463 267 -920 540 -856 504 -881 493 -13 -6 -30 -15 -38 -20 -8 -6 -127 -75 -265 -153 -137 -79 -437 -251 -665 -382 -228 -131 -450 -258 -492 -282 -43 -24 -78 -47 -78 -51 0 -4 28 -23 63 -42 34 -19 87 -49 117 -66 30 -17 260 -149 510 -294 250 -144 534 -307 630 -362 333 -192 340 -197 360 -240 9 -21 16 -49 15 -61 -1 -12 -3 -30 -4 -39 -2 -29 -60 -86 -94 -94 -55 -13 -85 -5 -163 41 -42 25 -77 45 -79 45 -2 0 -25 13 -52 29 -50 31 -862 498 -946 544 -26 15 -116 67 -200 115 -83 49 -236 137 -339 196 -103 59 -198 118 -210 131 -31 32 -46 83 -37 123 14 65 30 78 209 180 19 10 229 131 465 267 237 136 520 300 630 363 110 63 289 166 398 229 243 140 252 145 300 138 25 -4 139 -65 330 -177z m-2074 -1713 c42 -23 101 -56 131 -72 30 -17 75 -42 100 -55 166 -93 577 -321 635 -353 39 -21 75 -41 80 -45 6 -4 37 -22 70 -40 33 -18 75 -42 94 -53 19 -10 55 -30 80 -44 25 -13 64 -34 86 -47 499 -278 450 -259 525 -211 19 13 125 73 235 135 199 112 422 238 1047 593 179 102 350 198 379 213 54 29 103 33 143 12 29 -15 65 -57 73 -85 9 -37 -3 -98 -23 -127 -15 -19 -313 -196 -509 -302 -11 -6 -120 -68 -243 -138 -123 -70 -240 -136 -260 -147 -20 -11 -44 -24 -52 -29 -71 -44 -731 -416 -794 -448 -35 -17 -58 -23 -82 -19 -29 5 -130 57 -374 194 -19 11 -80 44 -135 75 -129 72 -158 88 -415 231 -118 66 -240 133 -270 150 -30 17 -91 50 -135 75 -44 25 -105 59 -135 75 -30 16 -64 35 -75 42 -11 7 -56 32 -100 55 -44 24 -91 51 -105 59 -14 9 -56 32 -93 51 -145 74 -184 162 -112 256 50 66 118 66 234 -1z" transform="translate(0.000000,512.000000) scale(0.100000,-0.100000)"/></g></svg>