<svg width="85" height="22" xmlns="http://www.w3.org/2000/svg"><path d="M50.391 9.428h2.243v7.858h-2.243v-1.021c-.8 1.178-1.842 1.257-2.483 1.257-2.484 0-4.086-1.886-4.086-4.165 0-2.357 1.602-4.164 3.926-4.164.64 0 1.842.079 2.563 1.257l.08-1.021zm-4.166 3.93c0 1.256.882 2.2 2.243 2.2 1.282 0 2.244-.944 2.244-2.2 0-1.258-.882-2.2-2.244-2.2-1.281 0-2.243.942-2.243 2.2zm10.816-2.044v5.972h-2.244v-5.972h-.88V9.428h.88v-2.67h2.244v2.67h1.522v1.886H57.04zm6.81 0c-.561-.471-1.042-.55-1.283-.55-.56 0-.88.236-.88.629 0 .235.08.471.72.707l.56.157c.642.236 1.603.471 2.004 1.1.24.315.4.786.4 1.336 0 .707-.24 1.414-.881 1.964-.64.55-1.442.865-2.403.865-1.683 0-2.564-.786-3.125-1.336l1.202-1.336c.48.472 1.122.943 1.762.943.641 0 1.122-.315 1.122-.865 0-.47-.4-.706-.721-.785l-.48-.157c-.561-.236-1.202-.472-1.683-.943-.4-.393-.64-.865-.64-1.493 0-.786.4-1.414.8-1.807.641-.471 1.442-.55 2.083-.55.56 0 1.522.079 2.564.864l-1.122 1.257zm4.886-.864c.801-1.1 1.923-1.257 2.564-1.257 2.323 0 3.925 1.807 3.925 4.164 0 2.357-1.602 4.165-4.005 4.165-.48 0-1.683-.08-2.564-1.258v1.021h-2.163v-13.2h2.243v6.365zm-.24 2.907c0 1.257.881 2.2 2.243 2.2 1.282 0 2.243-.943 2.243-2.2 0-1.257-.881-2.2-2.243-2.2-1.362 0-2.243.943-2.243 2.2zm10.414 2.75l-3.845-6.679h2.644l2.483 4.48 2.243-4.48H85L78.59 21.45h-2.563l2.884-5.343zm-35.65-5.343h-5.607v2.2h2.964c-.48 1.493-1.603 2.514-3.686 2.514-2.323 0-4.005-1.885-4.005-4.164s1.602-4.242 3.925-4.242c1.282 0 2.564.628 3.365 1.65l1.843-1.18c-1.202-1.65-3.125-2.592-5.208-2.592-3.524 0-6.409 2.828-6.409 6.364s2.724 6.364 6.41 6.364c3.685 0 6.408-2.828 6.408-6.364.08-.236 0-.392 0-.55zM11.216 0C5.047 0 0 4.95 0 11s5.047 11 11.216 11 11.216-4.95 11.216-11S17.385 0 11.216 0zM4.967 17.128c-1.682-1.65-2.563-3.85-2.563-5.97l8.732 8.485c-2.243-.079-4.486-.865-6.169-2.515zm8.172 2.28L2.644 9.113c.88-3.85 4.406-6.757 8.572-6.757a8.892 8.892 0 017.13 3.536l-1.202 1.021c-1.362-1.807-3.525-2.986-5.928-2.986-3.125 0-5.768 1.965-6.81 4.715l9.213 9.035a7.172 7.172 0 004.647-5.106H14.42V11h5.608c0 4.086-2.964 7.543-6.89 8.407z" fill="#272B34" fill-rule="nonzero" opacity=".6"/></svg>