<svg width="71" height="15" xmlns="http://www.w3.org/2000/svg"><g fill="none" fill-rule="evenodd"><path fill="#FFF" opacity=".67" d="M307-118L172.07 120 23-116.275z"/><g opacity=".6" fill="#272B34" fill-rule="nonzero"><path d="M52.749 5.121v8.977h-2.888V3.715z"/><path d="M11.874 12.431l2.166 1.888 9.125-4.76-.942-2.269-10.35 5.141zM49.86 6.647l7.34-3.815-1.243-2.15-6.097 3.033v2.932z"/><path d="M29.202 4.418v9.68h-2.767V.301l2.767 4.117zm-17.328 8.013l2.166 1.888L18.21 3.876 16.868.301l-4.994 12.13z"/><path d="M16.868.301h2.848l5.275 13.797h-2.929L16.868.301zm12.756 0l6.077 9.42v4.377L26.435.301h3.189zm11.292 0h2.868v13.797h-2.868V.301zm8.945 2.53h-4.413V.302h10.29l1.464 2.53H49.86zM65.686 8.857v5.241h-2.848V8.857M67.651.301l-4.813 8.556h2.848L70.68.3z"/><path d="M62.838 8.857L57.863.3h3.13l3.349 5.864zM1.183 1.908c0 1.908 1.184 3.052 3.55 3.655l2.507.582c2.247.522 3.61 1.808 3.61 3.896.02.904-.28 1.788-.822 2.51 0-2.088-1.083-3.212-3.67-3.895l-2.467-.563C1.905 7.652.381 6.587.381 4.318a4 4 0 01.802-2.41M35.7 9.017V.301h2.769v13.797H35.7z"/><path d="M8.484 9.52c1.063.682 1.544 1.646 1.544 3.032-.902 1.144-2.447 1.767-4.272 1.767-3.068 0-5.255-1.526-5.716-4.157h2.948c.382 1.205 1.384 1.767 2.748 1.767 1.625.02 2.728-.863 2.748-2.41m-7.3-7.631C2.045.763 3.53.08 5.334.08c3.149 0 4.954 1.667 5.415 3.997H7.902C7.582 3.153 6.8 2.43 5.375 2.43c-1.544.02-2.587.904-2.647 2.31-1.034-.571-1.585-1.687-1.545-2.852z"/></g></g></svg>