<svg width="63" height="26" xmlns="http://www.w3.org/2000/svg"><path d="M57.347 0c.712 0 1.698.227 2.707.62.846.334 1.617.75 2.159 1.166.638.492.89.931.749 1.31l-.022.045-.008.015a.543.543 0 01-.155.19c-.327.295-.81.794-.89 1.021L54.371 24.32l-.015-.008C53.831 25.342 52.8 26 51.642 26a2.96 2.96 0 01-1.083-.205c-1.461-.567-2.233-2.187-1.832-3.686l-.015-.007.096-.257 2.047-5.422c-1.189 1.238-3.409 3.419-5.244 3.166-1.906-.242-1.313-2.309-.593-3.785l-.111.114c-.156.166-.312.318-.445.454-1.247 1.25-3.175 2.944-4.8 2.717-1.906-.242-1.306-2.316-.586-3.792-.393.424-.742.78-.979.939-.267.181-.415-.023-.156-.242.653-.53 1.513-1.5 2.21-2.453.854-1.143 2.471-3.436 3.39-5.071.179-.333.483-1.226-.281-.803-.156.06-.304.152-.438.197-.2.084-.267 0-.111-.159.675-.537 2.143-1.112 2.952-1.135 1.069 0 1.09.628.63 1.43-.63 1.052-2.73 3.15-3.671 4.353-.423.552-5.504 7.478-1.514 5.957 1.224-.47 2.85-1.885 3.673-2.68.452-.477.912-1.037 1.32-1.597.853-1.143 2.47-3.436 3.39-5.071.178-.333.482-1.226-.282-.803-.156.06-.304.152-.438.197-.2.083-.267 0-.11-.159.674-.537 2.143-1.112 2.951-1.135 1.069 0 1.09.628.631 1.43-.63 1.06-2.737 3.157-3.68 4.368-.422.552-5.504 7.478-1.512 5.957 1.453-.56 3.449-2.415 4.035-3.035l.017-.017 5.13-13.6c.112-.288.06-.985.008-1.37a.6.6 0 01.008-.258l.007-.015c.007-.015.007-.03.015-.045.118-.318.482-.477 1.076-.477zm-.015.53c-.423 0-.564.09-.586.136v.046c.014.113.155 1.12-.037 1.642l-7.39 19.62-.021.052c-.475 1.302.17 2.77 1.446 3.27a2.477 2.477 0 003.212-1.446l.03-.068 7.388-19.596c.156-.424.89-1.098 1.039-1.234l.015-.015c.014-.008.022-.015.022-.023l.007-.007c.008-.053-.059-.288-.578-.697-.497-.385-1.217-.772-2.025-1.09-.935-.37-1.885-.59-2.522-.59zm-18.256 10.4c1.024-.31 1.44.938.438.825-.327-.046-.742 0-1.194.93-.957 2.12-1.336 5.912-4.466 9.288-1.55 1.673-3.761 3.035-6.06 3.035-2.1 0-3.836-.885-4.207-3.186-.022-.242.193-.205.216-.023a3.39 3.39 0 003.367 2.816c2.278 0 4.689-2.014 6.617-4.693 1.358-1.892 2.456-3.997 3.501-6.07-.37.582-.808 1.18-1.201 1.695-1.21 1.514-3.005 3.436-4.206 3.436-.868 0-1.395-.605-.958-1.968.305-.916 1.536-2.346 2.233-3.171.505-.575.156-1.022-.72-.333-1.045.78-2.276 2.104-2.973 2.68-.245.204-.305-.091-.068-.288.876-.734 1.996-2.082 2.827-2.725 1.424-1.113 3.197-.288 2.366 1.567-.356.734-.964 1.476-1.446 2.164-1.187 1.718-.215 1.477.83.56 1.187-1.097 2.879-3.186 3.88-4.73.327-.788.764-1.673 1.224-1.81zm-25.725 1.96c.26-.023.727.091.89.78.423 1.831-1.143 5.064-3.546 7.88-1.483 1.733-4.184 3.436-6.483 3.436-2.1 0-3.836-.886-4.207-3.187-.044-.242.194-.204.216-.022.304 1.68 1.699 2.815 3.345 2.815 2.062 0 5.06-2.566 7.033-5.359.504-.696 1.824-2.68 2.5-4.224-.416.538-.92.94-1.158 1.136-.111.09-.267-.151-.156-.265.445-.356 1.558-1.408 1.714-2.324 0-.227-.081-.378-.26-.446-.126-.06.022-.22.112-.22zm45.472-3.383L53.48 23.69c-.393 1.014-1.543 1.544-2.559 1.143-.968-.382-1.512-1.485-1.24-2.472l.046-.147 3.412-9.06s.423-.696 1.262-1.196c.838-.5 1.527-.386 2.462-.817.935-.432 1.959-1.635 1.959-1.635zM29.099 6.585c3.813-3.565 6.676-1.022 3.241 2.346-1.164 1.113-3.085 2.46-4.532 3.104-.304.136-.504-.106-.089-.288 1.365-.628 3.339-2.081 4.384-3.194 2.537-2.717.898-3.21-1.928-.643-2.322 2.119-4.689 5.42-5.89 7.455 1.135-1.544 2.233-2.369 3.152-2.747 1.425-.568 2.456 0 2.344.953-.074.583-.422 1.302-1.298 1.946-.95.688-2.967 1.241-3.946.862.92 1.212 2.87 2.392 3.85 2.233.415-.068.786-.34.786-.673 0-.053.111-.053.111 0 0 .56-.526.916-1.157 1.075-2.151.492-4.206-.87-4.732-1.93-.63 1.597-.765 3.254-.305 3.814.082.137-.044.182-.11.137-.305-.273-.698-.606-.787-1.317-.134-.977.148-2.294.697-3.725-.21.217-.43.425-.66.621-1.565 1.461-3.486 3.134-5.638 3.156-1.29 0-2.233-.65-2.255-1.854-.022-2.657 2.886-4.784 5.319-4.693 2.233.068 2.107 1.946.044 2.945-.652.317-1.646.583-2.255.56-.37-.015-.415-.197.023-.197.37 0 1.298-.22 2.062-.62 2.017-1.121 1.12-2.499-.416-1.787-1.18.56-2.566 2.165-2.804 3.527-.155.878.216 1.544 1.09 1.522 1.24-.023 3.228-1.514 4.489-2.62.04-.051.085-.1.133-.143.467-.409.838-.924 1.343-1.544 1.461-3.3 3.152-5.844 5.734-8.281zm24.487 13.738a.224.224 0 00-.112.288c.045.113.17.159.282.113.111-.045.156-.174.111-.287-.044-.114-.17-.16-.281-.114zm-1.336-2.55a.325.325 0 00-.163.431c.067.166.26.242.423.166a.315.315 0 00.163-.431c-.067-.167-.26-.242-.423-.167zm.868-1.409a.63.63 0 00-.304.818c.134.31.49.446.801.31a.629.629 0 00.304-.817.607.607 0 00-.801-.31zm-25.666-1.006c1.595-1.242.609-3.3-1.906-1-.482.447-.965.909-1.38 1.424.044.113.111.22.178.333l.111.068c.52.31 2.166-.182 2.997-.825zm27.936-.62c-.163.067-.245.264-.163.43.067.167.26.242.423.167.163-.068.237-.265.163-.432a.313.313 0 00-.423-.166zm-1.372-1.492a.225.225 0 00-.111.287c.044.114.17.16.281.114.112-.045.156-.174.112-.288-.045-.113-.171-.158-.282-.113zm-39.538-2.543c.4-.47.994-.621 1.32-.356.327.272.26.87-.155 1.34-.4.446-.995.598-1.32.333-.342-.265-.268-.84.155-1.317zm45.233-9.226c1.063.417 1.838.986 1.73 1.27-.107.286-1.056.178-2.119-.239-1.063-.417-1.838-.986-1.73-1.27.107-.285 1.056-.178 2.119.24z" fill="#272B34" fill-rule="nonzero" opacity=".6"/></svg>