<svg width="86" height="19" xmlns="http://www.w3.org/2000/svg"><g fill="none" fill-rule="evenodd" opacity=".6"><path d="M9.59 1a8.67 8.67 0 016.088 2.532 1.926 1.926 0 010 2.701 1.872 1.872 0 01-2.67 0A4.8 4.8 0 009.59 4.797a4.798 4.798 0 00-3.13 1.165 1.938 1.938 0 01-.52.524 4.901 4.901 0 00-1.189 3.207 4.918 4.918 0 001.164 3.182c.11.068.213.152.31.248.096.097.181.202.253.314a4.776 4.776 0 006.53-.283 1.873 1.873 0 012.67 0 1.926 1.926 0 010 2.701 8.819 8.819 0 01-6.088 2.532 8.67 8.67 0 01-6.088-2.532l.049.048-.051-.047a1.955 1.955 0 01-.118-.129l-.102-.112A9.038 9.038 0 011 9.693a8.884 8.884 0 012.502-6.161l-.17.18a1.948 1.948 0 01.362-.364l.044-.04A8.818 8.818 0 019.59 1zM3.499 13.124a1.936 1.936 0 00-.117 2.603l.12.128h0l.049.048.071.066c.084.07.173.133.265.187l.035.02c.734.412 1.68.305 2.303-.321.655-.657.74-1.67.253-2.418a3.748 3.748 0 01-.307-.283 4.908 4.908 0 01-.256-.28 1.918 1.918 0 00-2.416.25zm1.337-.53c.502 0 .982.202 1.335.56.736.75.736 1.953 0 2.701a1.872 1.872 0 01-2.67 0h0l-.115-.129a1.927 1.927 0 01.116-2.572c.352-.358.833-.56 1.334-.56zM3.694 3.349l-.192.184h0l-.17.18a1.936 1.936 0 00.17 2.538c.664.664 1.69.743 2.439.236a4.813 4.813 0 01.52-.524c.508-.75.43-1.78-.234-2.446a1.924 1.924 0 00-2.533-.168zm1.142-.375c.502 0 .982.201 1.335.559a1.926 1.926 0 010 2.701 1.872 1.872 0 01-2.67 0 1.926 1.926 0 010-2.701h0l.123-.113a1.872 1.872 0 011.212-.446z" stroke="#272B34" stroke-width=".65"/><path d="M24.184 11.466c.584-.422.584-.169 1.084.253.25.254.834.676.417 1.013a3.735 3.735 0 01-2.752 1.013c-2.21.09-4.075-1.646-4.17-3.883v-.531a4.412 4.412 0 011.335-2.954 3.856 3.856 0 012.835-.93c.51.003 1.017.088 1.501.254.315.15.622.32.917.507.584.422.334.675-.166 1.097-.104.096-.188.21-.25.337-.25.254-.334.422-.668.17a2.272 2.272 0 00-1.918-.423c-2.168.591-2.001 4.474.584 4.474a2.224 2.224 0 001.25-.397zm59.878 2.194a.721.721 0 01-.668-.675V4.376a.721.721 0 01.668-.675h.667c.36.026.645.315.667.675v8.61a.721.721 0 01-.667.675h-.667zm-3.67-1.012a3.316 3.316 0 01-2.585 1.097c-2.168 0-3.252-1.857-3.252-3.883v-3.46a.721.721 0 01.667-.676h.667c.36.027.645.315.667.676v3.46c-.079.472.037.955.321 1.34.283.381.71.63 1.18.686h.334a1.95 1.95 0 001.373-.61c.36-.382.556-.89.545-1.416v-3.46a.721.721 0 01.667-.676h.667c.36.027.645.315.667.676v6.583a.721.721 0 01-.667.676h-.584c-.333 0-.583-.338-.667-.676v-.337zm-8.506-6.922h1.334c.36.027.645.315.667.676v.397a.671.671 0 01-.192.48.657.657 0 01-.475.195h-1.334v5.402a.721.721 0 01-.667.675h-.667a.721.721 0 01-.668-.675V5.364c-.12-1.58 1.028-2.967 2.586-3.123h1.167c.36.026.645.314.667.675v.422a.671.671 0 01-.192.48.657.657 0 01-.475.195h-.584c-.75 0-1.084.591-1.084 1.35l-.083.338v.025zm-4.837 0h1.501c.36.027.645.315.667.676v.397a.721.721 0 01-.667.675H67.05v3.291c0 .676.334 1.013.917 1.013h.334c.36.026.645.315.667.676v.422a.721.721 0 01-.667.675h-.917c-1.585-.084-2.335-1.182-2.335-2.786V4.351a.721.721 0 01.667-.676h.667c.36.027.645.315.667.676v1.375zm-21.683 0h1.501c.36.027.645.315.668.676v.397a.721.721 0 01-.668.675h-1.5v3.291c0 .676.333 1.013.917 1.013h.333a.655.655 0 01.475.196c.125.127.195.3.192.48v.422a.721.721 0 01-.667.675H46.2c-1.751 0-2.835-.76-2.835-2.786V4.351a.721.721 0 01.667-.676h.667c.36.027.645.315.667.676v1.375zm-8.756.93a3.6 3.6 0 012.502-1.098c2.168 0 3.335 1.772 3.335 3.883v3.46a.721.721 0 01-.667.675h-.667a.721.721 0 01-.667-.675V9.44a1.763 1.763 0 00-.321-1.34 1.722 1.722 0 00-1.18-.686h-.334a1.95 1.95 0 00-1.373.61c-.36.382-.556.89-.545 1.415v3.461a.721.721 0 01-.667.675h-.667a.721.721 0 01-.667-.675V6.317a.721.721 0 01.667-.675h.559c.333 0 .583.338.667.675l.025.338zm21.683 0a3.6 3.6 0 012.501-1.098c2.169 0 3.336 1.772 3.336 3.883v3.46a.721.721 0 01-.667.675h-.667a.721.721 0 01-.667-.675V9.44a1.763 1.763 0 00-.322-1.34 1.722 1.722 0 00-1.18-.686h-.333a1.95 1.95 0 00-1.374.61c-.36.382-.556.89-.544 1.415v3.461a.721.721 0 01-.667.675h-.667a.721.721 0 01-.668-.675V6.317a.721.721 0 01.668-.675h.558c.334 0 .584.338.667.675v.338h.026zM29.938 5.557a3.977 3.977 0 00-2.855 1.127 4.074 4.074 0 00-1.231 2.84v.168c-.1 2.163 1.535 4.005 3.67 4.136h.416c2.136.101 3.956-1.553 4.087-3.713v-.423c.1-2.162-1.535-4.004-3.67-4.135h-.417zm19.765 4.81a2.162 2.162 0 002.251 1.605 3.24 3.24 0 001.502-.338c.083 0 .166-.084.25-.084.25-.17.5-.254.667 0l.334.337.333.338c.334.422.083.506-.25.76a5.572 5.572 0 01-2.836.843c-2.585 0-4.336-1.603-4.336-4.22a3.928 3.928 0 01.979-2.845 3.835 3.835 0 012.69-1.29h.476c2.502 0 3.92 1.519 4.003 4.05 0 .676.083.93-.668.93h-5.42l.025-.085zM30.022 7.416c.577.02 1.121.272 1.511.7.392.429.599.997.573 1.578a2.13 2.13 0 01-.867 1.982 2.072 2.072 0 01-2.135.173 2.12 2.12 0 01-1.167-1.817v-.338c-.107-1.139.71-2.154 1.834-2.278h.25zm19.68 1.266h4.004a1.754 1.754 0 00-1.918-1.435 2.052 2.052 0 00-2.085 1.435z" fill="#272B34" fill-rule="nonzero"/></g></svg>