<svg width="60" height="16" xmlns="http://www.w3.org/2000/svg"><g fill="none" fill-rule="evenodd"><path fill="#FFF" opacity=".67" d="M308-83L173.07 155 24-81.275z"/><path d="M11.556 6.848H6.515a.24.24 0 00-.168.069.229.229 0 00-.068.164v2.43c0 .128.105.233.236.233H8.48v3.02s-.442.148-1.663.148c-1.44 0-3.452-.519-3.452-4.882 0-4.364 2.095-4.939 4.062-4.939 1.704 0 2.437.296 2.904.439.146.044.282-.1.282-.228l.563-2.349a.216.216 0 00-.09-.181C10.897.638 9.74 0 6.819 0 3.453 0 0 1.412 0 8.2 0 14.988 3.953 16 7.284 16c2.758 0 4.431-1.162 4.431-1.162.07-.038.077-.133.077-.176V7.08a.234.234 0 00-.235-.233M37.54.813a.228.228 0 00-.067-.164.238.238 0 00-.167-.07h-2.839a.234.234 0 00-.235.234l.001 5.41h-4.425V.813A.228.228 0 0029.74.65a.239.239 0 00-.166-.07h-2.84a.234.234 0 00-.234.234v14.649c0 .129.106.234.235.234h2.839c.13 0 .234-.105.234-.234V9.196h4.425l-.008 6.266c0 .129.106.234.235.234h2.846c.13 0 .234-.105.234-.234V.813M16.913 2.736c0-1.009-.819-1.823-1.83-1.823-1.01 0-1.83.815-1.83 1.823 0 1.007.82 1.823 1.83 1.823a1.827 1.827 0 001.83-1.823m-.203 9.636V5.61a.235.235 0 00-.234-.233h-2.83c-.13 0-.246.132-.246.26v9.688c0 .284.18.369.412.369h2.55c.28 0 .348-.136.348-.374v-2.948m31.62-6.973h-2.818a.234.234 0 00-.234.234v7.183s-.716.516-1.732.516c-1.015 0-1.285-.455-1.285-1.436V5.633a.234.234 0 00-.234-.234h-2.86a.235.235 0 00-.234.234v6.738c0 2.913 1.646 3.626 3.911 3.626 1.859 0 3.357-1.012 3.357-1.012s.071.533.104.596c.041.075.12.124.207.127l1.819-.008a.235.235 0 00.235-.234l-.002-9.833a.23.23 0 00-.068-.165.24.24 0 00-.167-.07m6.589 7.925c-.977-.03-1.64-.467-1.64-.467V8.218s.654-.396 1.456-.467c1.015-.089 1.992.213 1.992 2.6 0 2.516-.441 3.013-1.808 2.972zm1.111-8.254c-1.6 0-2.688.705-2.688.705V.814a.234.234 0 00-.234-.234H50.26a.24.24 0 00-.167.069.229.229 0 00-.068.164v14.649c0 .129.105.234.235.234h1.975c.09 0 .157-.045.206-.124.05-.079.12-.676.12-.676s1.164 1.088 3.368 1.088c2.587 0 4.071-1.294 4.071-5.809 0-4.515-2.37-5.105-3.971-5.105zm-31.16.306h-2.13l-.002-2.774c0-.105-.055-.157-.178-.157h-2.902c-.113 0-.173.049-.173.156v2.866s-1.455.347-1.553.374a.233.233 0 00-.17.224v1.801c0 .13.105.234.235.234h1.488v4.334c0 3.22 2.29 3.535 3.834 3.535.707 0 1.551-.223 1.69-.274.085-.03.134-.117.134-.21l.002-1.982a.238.238 0 00-.235-.234c-.124 0-.442.05-.769.05-1.046 0-1.4-.48-1.4-1.1V8.099h2.13c.13 0 .235-.104.235-.234V5.61a.229.229 0 00-.068-.165.24.24 0 00-.168-.069" opacity=".6" fill="#272B34" fill-rule="nonzero"/></g></svg>