<svg width="56" height="34" xmlns="http://www.w3.org/2000/svg"><g fill="none" fill-rule="evenodd"><path fill="#FFF" opacity=".67" d="M38-74L-96.93 164-246-72.275z"/><path d="M13.214 8.868h10.562v.845h-9.594v6.358h9.022v.845h-9.022v6.981h9.704v.845H13.214V8.868zm11.508 0h1.122l4.973 6.98 5.083-6.98L42.814 0 31.455 16.583l5.853 8.159h-1.166l-5.325-7.426-5.347 7.426h-1.144l5.897-8.16-5.501-7.714zm13.005.845v-.845h12.036v.845h-5.545v15.029h-.968V9.712h-5.523zM0 8.868h1.21L17.9 34l-6.897-9.258-9.99-14.674-.044 14.674H0V8.868zm49.665 14.774a.343.343 0 01-.346-.353c0-.2.149-.354.346-.354.2 0 .347.154.347.354 0 .199-.146.353-.347.353zm.952-.93h.518c.007.282.212.472.513.472.337 0 .528-.204.528-.586v-2.42h.527V22.6c0 .689-.395 1.085-1.05 1.085-.615 0-1.036-.384-1.036-.973zm2.776-.03h.523c.045.324.36.53.815.53.424 0 .734-.22.734-.524 0-.26-.197-.417-.647-.524l-.438-.107c-.615-.145-.895-.444-.895-.947 0-.61.495-1.015 1.236-1.015.69 0 1.194.405 1.225.982h-.514c-.049-.316-.322-.513-.718-.513-.417 0-.694.202-.694.51 0 .245.179.385.621.49l.375.092c.697.164.984.449.984.963 0 .655-.504 1.066-1.31 1.066-.753 0-1.26-.392-1.297-1.004z" opacity=".6" fill="#272B34" fill-rule="nonzero"/></g></svg>