<svg xmlns:xl="http://www.w3.org/1999/xlink" xmlns="http://www.w3.org/2000/svg" viewBox="-130 -160 1751 950" width="1751" height="950"><defs><linearGradient x1="0" x2="1" id="a" gradientUnits="userSpaceOnUse"><stop offset="0" stop-color="#7ed3f4"/><stop offset=".464" stop-color="#8dddf8"/><stop offset="1" stop-color="#9ce6fc"/></linearGradient><linearGradient id="o" xl:href="#a" gradientTransform="rotate(-90 525.95 43.694) scale(78.29484)"/><linearGradient x1="0" x2="1" id="b" gradientUnits="userSpaceOnUse"><stop offset="0" stop-color="#5eb8f1"/><stop offset=".433" stop-color="#5fbef2"/><stop offset="1" stop-color="#61c3f3"/></linearGradient><linearGradient id="p" xl:href="#b" gradientTransform="matrix(0 -27.96244 27.96244 0 482.255 569.643)"/><linearGradient x1="0" x2="1" id="c" gradientUnits="userSpaceOnUse"><stop offset="0" stop-color="#5392e9"/><stop offset=".152" stop-color="#58a4ed"/><stop offset="1" stop-color="#5eb6f0"/></linearGradient><linearGradient id="q" xl:href="#c" gradientTransform="rotate(-90 517.372 51.473) scale(36.75064)"/><linearGradient x1="0" x2="1" id="d" gradientUnits="userSpaceOnUse"><stop offset="0" stop-color="#5392e9"/><stop offset="0" stop-color="#58a4ed"/><stop offset="1" stop-color="#5eb6f0"/></linearGradient><linearGradient id="r" xl:href="#d" gradientTransform="rotate(-90 511.388 57.456) scale(36.75064)"/><linearGradient x1="0" x2="1" id="e" gradientUnits="userSpaceOnUse"><stop offset="0" stop-color="#569eec"/><stop offset=".377" stop-color="#5aadef"/><stop offset="1" stop-color="#5fbbf2"/></linearGradient><linearGradient id="s" xl:href="#e" gradientTransform="rotate(-90 531.534 38.11) scale(44.73991)"/><linearGradient x1="0" x2="1" id="f" gradientUnits="userSpaceOnUse"><stop offset="0" stop-color="#569eec"/><stop offset=".039" stop-color="#5aadef"/><stop offset="1" stop-color="#5fbbf2"/></linearGradient><linearGradient id="t" xl:href="#f" gradientTransform="rotate(-90 538.116 31.527) scale(39.94635)"/><linearGradient x1="0" x2="1" id="g" gradientUnits="userSpaceOnUse"><stop offset="0" stop-color="#f5fcfe"/><stop offset="0" stop-color="#f6fdfe"/><stop offset="1" stop-color="#f7fdfe"/></linearGradient><linearGradient id="u" xl:href="#g" gradientTransform="matrix(0 -17.5764 17.5764 0 516.162 526.501)"/><linearGradient x1="0" x2="1" id="h" gradientUnits="userSpaceOnUse"><stop offset="0" stop-color="#fbc27f"/><stop offset="0" stop-color="#fbcd97"/><stop offset="1" stop-color="#fbd7ae"/></linearGradient><linearGradient id="v" xl:href="#h" gradientTransform="matrix(0 16.14123 -16.14123 0 486.388 515.114)"/><radialGradient cx="0" cy="0" r="1" id="i" gradientUnits="userSpaceOnUse"><stop offset="0" stop-color="#20c6b7"/><stop offset="1" stop-color="#4d9abf"/></radialGradient><radialGradient id="w" xl:href="#i" gradientTransform="matrix(34.87304 0 0 34.87304 980.318 119.673)"/><marker orient="auto" overflow="visible" markerUnits="strokeWidth" id="j" stroke-linejoin="miter" stroke-miterlimit="10" viewBox="-1 -6 14 12" markerWidth="14" markerHeight="12" color="#941100"><path d="M12 0L0-4.5v9z" fill="currentColor" stroke="currentColor"/></marker><marker orient="auto" overflow="visible" markerUnits="strokeWidth" id="m" stroke-linejoin="miter" stroke-miterlimit="10" viewBox="-1 -6 14 12" markerWidth="14" markerHeight="12" color="#207bea"><path d="M12 0L0-4.5v9z" fill="currentColor" stroke="currentColor"/></marker><clipPath id="n"><path d="M560 440v156.695c0 3.66-1.476 6.985-3.853 9.397-2.376 2.41-5.653 3.908-9.258 3.908H293.11c-3.605 0-6.882-1.498-9.258-3.908a13.361 13.361 0 01-3.853-9.397V440z"/></clipPath></defs><g fill="none"><path fill="#fff" d="M-130-160h1751v950H-130z"/><path d="M480 505c-3.366-162.932 199.066-161.113 209.514-331.11M480 505c-3.116-163.182 199.316-161.363 209.764-331.36" marker-end="url(#j)" stroke="#941100" stroke-linecap="round" stroke-linejoin="round"/><path d="M10 30h320c5.523 0 10 4.477 10 10v190c0 5.523-4.477 10-10 10H10c-5.523 0-10-4.477-10-10V40c0-5.523 4.477-10 10-10z" fill="#fff"/><path d="M10 30h320c5.523 0 10 4.477 10 10v190c0 5.523-4.477 10-10 10H10c-5.523 0-10-4.477-10-10V40c0-5.523 4.477-10 10-10z" stroke="#207bea" stroke-linecap="round" stroke-linejoin="round" stroke-dasharray="8.0,5.0"/><path d="M40 0h260c5.523 0 10 4.477 10 10v40c0 5.523-4.477 10-10 10H40c-5.523 0-10-4.477-10-10V10c0-5.523 4.477-10 10-10z" fill="#fff"/><path d="M40 0h260c5.523 0 10 4.477 10 10v40c0 5.523-4.477 10-10 10H40c-5.523 0-10-4.477-10-10V10c0-5.523 4.477-10 10-10z" stroke="#207bea" stroke-linecap="round" stroke-linejoin="round"/><path d="M84.807 32.924L70.16 41.346l-14.938-8.422c-.555-.332-1.286-.09-1.578.483a1.216 1.216 0 00.468 1.63l15.493 8.754c.35.211.79.211 1.14 0l15.2-8.754c.556-.332.76-1.056.44-1.63-.322-.603-1.024-.815-1.58-.483zM57.036 27.34l13.125-7.667 14.616 8.724c.556.332 1.287.12 1.608-.453a1.251 1.251 0 00-.438-1.66l-15.201-9.056a1.157 1.157 0 00-1.17 0l-15.493 9.056c-.789.452-.789 1.63 0 2.113l15.494 9.055c.555.332 1.286.12 1.607-.453a1.251 1.251 0 00-.438-1.66zm-6.022 6.339v-6.037c-.117-1.389.497-2.807 1.842-3.592l15.493-9.056c1.14-.664 2.514-.664 3.625.03l15.2 9.056c1.258.755 1.93 2.173 1.813 3.562v6.037c.117 1.419-.585 2.867-1.87 3.592l-15.202 8.754a3.527 3.527 0 01-3.537 0L52.885 37.27c-1.286-.725-1.959-2.143-1.871-3.592z" fill="#0096ff"/><path fill="#fff" d="M99 9.5h190v41H99z"/><clipPath id="k"><path fill="#fff" d="M0 0h190v41H0z"/></clipPath><text clip-path="url(#k)" transform="translate(104 14.5)" fill="#0096ff"><tspan font-family="Helvetica" font-size="26" font-weight="400" x="1.863" y="25">Preview Server</tspan></text><path d="M50 80h240c5.523 0 10 4.477 10 10v60c0 5.523-4.477 10-10 10H50c-5.523 0-10-4.477-10-10V90c0-5.523 4.477-10 10-10z" fill="#fff"/><path d="M50 80h240c5.523 0 10 4.477 10 10v60c0 5.523-4.477 10-10 10H50c-5.523 0-10-4.477-10-10V90c0-5.523 4.477-10 10-10z" stroke="#207bea" stroke-linecap="round" stroke-linejoin="round"/><path d="M184.071 117.143h4v14.286h-4v-1.858c-1.428 2.143-3.285 2.286-4.428 2.286-4.429 0-7.286-3.428-7.286-7.571 0-4.286 2.857-7.572 7-7.572 1.143 0 3.286.143 4.572 2.286v-1.857zm-7.428 7.143c0 2.285 1.571 4 4 4 2.286 0 4-1.715 4-4 0-2.286-1.572-4-4-4-2.286 0-4 1.714-4 4zm19.286-3.715v10.858h-4V120.57h-1.572v-3.428h1.572v-4.857h4v4.857h2.714v3.428zm12.142 0c-1-.857-1.857-1-2.285-1-1 0-1.572.429-1.572 1.143 0 .429.143.857 1.286 1.286l1 .286c1.143.428 2.857.857 3.571 2 .429.571.715 1.428.715 2.428 0 1.286-.429 2.572-1.572 3.572s-2.571 1.571-4.285 1.571c-3 0-4.572-1.428-5.572-2.428L201.5 127c.857.857 2 1.714 3.143 1.714 1.143 0 2-.571 2-1.571 0-.857-.714-1.286-1.286-1.429l-.857-.285c-1-.429-2.143-.858-3-1.715-.714-.714-1.143-1.571-1.143-2.714 0-1.429.714-2.571 1.429-3.286 1.143-.857 2.571-1 3.714-1 1 0 2.714.143 4.571 1.572l-2 2.285zm8.715-1.571c1.428-2 3.428-2.286 4.571-2.286 4.143 0 7 3.286 7 7.572 0 4.285-2.857 7.571-7.143 7.571-.857 0-3-.143-4.571-2.286v1.858h-3.857v-24h4zm-.429 5.286c0 2.285 1.572 4 4 4 2.286 0 4-1.715 4-4 0-2.286-1.571-4-4-4-2.428 0-4 1.714-4 4zm18.572 5l-6.858-12.143h4.715l4.428 8.143 4-8.143h4.572L234.357 139h-4.571l5.143-9.714zm-63.572-9.715h-10v4h5.286c-.857 2.715-2.857 4.572-6.572 4.572-4.142 0-7.142-3.429-7.142-7.572 0-4.142 2.857-7.714 7-7.714 2.285 0 4.571 1.143 6 3l3.285-2.143c-2.143-3-5.571-4.714-9.285-4.714-6.286 0-11.429 5.143-11.429 11.571 0 6.429 4.857 11.572 11.429 11.572 6.571 0 11.428-5.143 11.428-11.572.143-.428 0-.714 0-1z" fill="#000"/><path d="M114.214 100c-11 0-20 9-20 20s9 20 20 20 20-9 20-20-9-20-20-20zm-11.143 31.143c-3-3-4.571-7-4.571-10.857l15.571 15.428c-4-.143-8-1.571-11-4.571zm14.572 4.143L98.929 116.57c1.571-7 7.857-12.285 15.285-12.285 5.286 0 9.857 2.571 12.715 6.428l-2.143 1.857c-2.429-3.285-6.286-5.428-10.572-5.428-5.571 0-10.285 3.571-12.143 8.571l16.429 16.429c4.143-1.429 7.286-5 8.286-9.286h-6.857V120h10c0 7.429-5.286 13.714-12.286 15.286z" fill="#639"/><path d="M50 180h240c5.523 0 10 4.477 10 10v20c0 5.523-4.477 10-10 10H50c-5.523 0-10-4.477-10-10v-20c0-5.523 4.477-10 10-10z" fill="#000"/><clipPath id="l"><path d="M10 0h240c5.523 0 10 4.477 10 10v20c0 5.523-4.477 10-10 10H10C4.477 40 0 35.523 0 30V10C0 4.477 4.477 0 10 0z" fill="#000"/></clipPath><text clip-path="url(#l)" transform="translate(68.855 186)" fill="#00fa00"><tspan font-family="Menlo" font-size="24" font-weight="400" x="0" y="22">gatsby develop</tspan></text><path d="M170 240c-.943 58.747 128.763 66.537 205.061 149.482M170 240c-.693 58.497 129.013 66.287 205.311 149.232" marker-end="url(#m)" stroke="#207bea" stroke-linecap="round" stroke-linejoin="round"/><path d="M560 440v156.695c0 3.66-1.476 6.985-3.853 9.397-2.376 2.41-5.653 3.908-9.258 3.908H293.11c-3.605 0-6.882-1.498-9.258-3.908a13.361 13.361 0 01-3.853-9.397V440z" fill="#fff"/><path d="M560 440v156.695c0 3.66-1.476 6.985-3.853 9.397-2.376 2.41-5.653 3.908-9.258 3.908H293.11c-3.605 0-6.882-1.498-9.258-3.908a13.361 13.361 0 01-3.853-9.397V440z" stroke="#53586a" stroke-opacity=".373" stroke-linejoin="round" stroke-width="2" clip-path="url(#n)"/><path d="M560 413.78v25.989L280 440v-25.989c0-7.579 6.323-13.78 14.05-13.78l251.9-.231c7.727 0 14.05 6.201 14.05 13.78z" fill="#3c404d"/><path d="M345.75 413.697h192.89a6.848 6.848 0 110 13.696H345.75a6.848 6.848 0 110-13.696z" fill="#53586a"/><ellipse cx="300.488" cy="420.545" rx="6.829" ry="6.848" fill="#53586a"/><path d="M322.683 427.393c3.772 0 6.83-3.066 6.83-6.848s-3.058-6.848-6.83-6.848c-3.772 0-6.83 3.066-6.83 6.848s3.058 6.848 6.83 6.848z" fill="#53586a"/><path d="M525.195 491.349h-85.88c-6.469 0-11.711 5.257-11.711 11.744v54.806c0 6.487 5.242 11.744 11.71 11.744h85.88c6.47 0 11.712-5.257 11.712-11.744v-54.806c0-6.487-5.243-11.744-11.711-11.744z" fill="url(#o)"/><path d="M427.604 541.681v15.978c0 6.62 5.242 11.984 11.71 11.984h85.88c6.47 0 11.712-5.364 11.712-11.984v-15.978h-56.603l-1.952 3.995-3.904-3.995z" fill="url(#p)"/><path d="M471.638 535.098c-2.966-4.122-9.173-3.98-11.927.288-6.862 10.603-17.904 27.642-21.736 33.39.414.043.832.069 1.256.069h47.64a9.719 9.719 0 006.952-2.908z" fill="url(#q)"/><path d="M450.192 562.51a4.775 4.775 0 013.395-1.413h11.296c1.515-2.344 3.183-4.978 4.948-7.748h-8.573c-2.647 0-4.795-2.169-4.795-4.842a4.87 4.87 0 011.4-3.428 4.775 4.775 0 013.395-1.414h2.877c1.572 0 3.03-.659 4.066-1.705a5.86 5.86 0 001.687-4.106c0-3.023-2.322-5.512-5.249-5.76-2.098.153-4.137 1.22-5.414 3.244-6.709 10.618-17.504 27.68-21.25 33.437.405.044.813.07 1.228.07h10.548a4.88 4.88 0 01-.959-2.906 4.87 4.87 0 011.4-3.428z" fill="url(#r)"/><path d="M527.332 566.103a11.772 11.772 0 01-8.435 3.54h-59.38c4.6-6.925 18.07-27.777 26.426-40.732 3.342-5.194-.138-5.369 3.46-.35z" fill="url(#s)"/><path d="M491.4 529.697h-1.987c-1.093 0-2.087.44-2.802 1.178a3.915 3.915 0 00-1.173 2.817c0 2.197 1.789 3.994 3.975 3.994 1.092 0 2.086.44 2.801 1.179a3.915 3.915 0 011.173 2.816c0 2.197-1.789 3.995-3.974 3.995h-1.988c-1.092 0-2.086.439-2.801 1.178a3.915 3.915 0 00-1.173 2.816c0 2.197 1.789 3.995 3.974 3.995h5.962c1.092 0 9.22-.74 9.935 0 .735.719 5.96 2.896 5.96 3.995 0 2.197-1.787 3.994-3.973 3.994h-7.948c-1.093 0-2.087.44-2.802 1.179a3.915 3.915 0 00-1.172 2.816c0 2.197 1.788 3.994 3.974 3.994H525.179c1.612 0 3.146-.325 4.546-.906z" fill="url(#t)"/><path d="M516.162 508.925c-4.846 0-8.776 3.935-8.776 8.788s3.93 8.788 8.776 8.788c4.847 0 8.776-3.935 8.776-8.788s-3.93-8.788-8.776-8.788z" fill="url(#u)"/><path d="M397.115 524.904h-78.643c-3.617 0-6.553 2.863-6.553 6.39 0 3.529 2.936 6.392 6.553 6.392h78.643c3.618 0 6.554-2.863 6.554-6.391s-2.936-6.391-6.554-6.391z" fill="#434343"/><g><path d="M370.798 551.268h-52.337c-3.611 0-6.542 2.863-6.542 6.391 0 3.529 2.93 6.392 6.542 6.392h52.337c3.612 0 6.543-2.863 6.543-6.392 0-3.528-2.931-6.39-6.543-6.39z" fill="#434343"/></g><g><path d="M397.115 498.539h-78.643c-3.617 0-6.553 2.863-6.553 6.391s2.936 6.392 6.553 6.392h78.643c3.618 0 6.554-2.864 6.554-6.392 0-3.528-2.936-6.391-6.554-6.391z" fill="#434343"/></g><g><path d="M418.606 486.777v85.708c0 .478-.193.91-.506 1.223a1.724 1.724 0 01-1.223.507H301.729c-.477 0-.91-.194-1.222-.507a1.724 1.724 0 01-.507-1.223v-85.708z" stroke="#20ac61" stroke-linejoin="round"/><path d="M342.52 470c.478 0 .91.194 1.224.507.313.313.506.745.506 1.222v14.604h-44.236v-14.604c0-.477.194-.91.507-1.222a1.724 1.724 0 011.223-.507z" fill="#20ac61"/><path d="M342.52 470c.478 0 .91.194 1.224.507.313.313.506.745.506 1.222v14.604h-44.236v-14.604c0-.477.194-.91.507-1.222a1.724 1.724 0 011.223-.507z" stroke="#20ac61" stroke-linejoin="round"/><g><path d="M322.593 481.616a.22.22 0 00.156-.06.197.197 0 00.064-.15v-5.409h1.76a.205.205 0 00.21-.21v-.357a.227.227 0 00-.054-.16.202.202 0 00-.156-.06h-4.399a.205.205 0 00-.151.06.216.216 0 00-.06.16v.357a.205.205 0 00.211.21h1.769v5.409a.204.204 0 00.21.21zm3.794-5.655a.22.22 0 00.156-.06.197.197 0 00.064-.15v-.477a.212.212 0 00-.064-.155.212.212 0 00-.156-.064h-.54a.197.197 0 00-.151.064.22.22 0 00-.06.155v.476a.205.205 0 00.21.21zm-.064 5.655a.204.204 0 00.21-.21l.001-4.338a.204.204 0 00-.21-.21h-.404a.205.205 0 00-.21.21v4.338a.204.204 0 00.21.21zm4.042 0a.19.19 0 00.146-.06.214.214 0 00.055-.15v-.302a.214.214 0 00-.055-.151.19.19 0 00-.146-.06h-.56c-.244 0-.416-.08-.517-.238-.1-.158-.151-.393-.151-.704v-2.389h1.136a.214.214 0 00.151-.055.19.19 0 00.06-.146v-.293a.204.204 0 00-.211-.21h-1.136v-1.529a.205.205 0 00-.211-.21h-.403a.19.19 0 00-.147.06.214.214 0 00-.055.15v1.529h-.724a.19.19 0 00-.147.059.214.214 0 00-.055.151v.293c0 .06.019.11.055.146a.198.198 0 00.147.055h.724v2.453c0 1.067.474 1.601 1.42 1.601zm1.723 0a.204.204 0 00.21-.21v-6.077a.205.205 0 00-.21-.21h-.404a.214.214 0 00-.15.055.201.201 0 00-.06.155v6.077a.204.204 0 00.21.21zm3.473.092c.39 0 .738-.069 1.04-.206.302-.137.536-.3.701-.49.165-.189.247-.35.247-.485a.143.143 0 00-.06-.119.226.226 0 00-.141-.046h-.403a.378.378 0 00-.156.023.476.476 0 00-.128.133c-.092.122-.228.24-.408.352-.18.113-.414.17-.701.17-.373 0-.672-.14-.898-.421a1.7 1.7 0 01-.367-1.016v-.082h3.18a.204.204 0 00.21-.21v-.166c0-.732-.184-1.311-.554-1.738-.37-.428-.89-.641-1.562-.641-.623 0-1.121.195-1.494.586-.373.39-.577.915-.614 1.574l-.01.302.01.31c.037.672.241 1.201.614 1.589.373.387.87.58 1.494.58zm1.283-2.81h-2.557v-.027c0-.427.113-.775.339-1.043.226-.269.538-.403.935-.403.39 0 .702.134.935.403.232.268.348.616.348 1.043z" fill="#fff"/></g><g><path d="M315.285 474.571c.474 0 .859.393.859.879v7.03a.869.869 0 01-.86.88h-9.45a.869.869 0 01-.86-.88v-7.03c0-.486.385-.879.86-.879zm-4.276 1.686h-.81l-2.026 5.098h.754l.539-1.424h2.254l.553 1.424h.761zm-.423.733l.883 2.287h-1.752z" fill="#fff" fill-opacity=".8"/></g></g><g><path d="M539.116 478.895l-7.861-7.862c-1.18-1.179-3.243-1.179-4.717 0l-3.832 3.832 12.577 12.578 3.833-3.832c1.179-1.179 1.179-3.243 0-4.716z" fill="#207bea"/><path d="M482.353 514.528l40.617-39.767 12.418 12.115-40.617 39.767z" fill="#207bea"/><g><path d="M482.424 515.114l-4.683 16.141 17.294-4.45z" fill="url(#v)"/></g><g><path d="M479.865 523.184l-2.124 8.071 8.07-2.163z" fill="#272b34"/></g></g><g><path d="M510 80h240c5.523 0 10 4.477 10 10v60c0 5.523-4.477 10-10 10H510c-5.523 0-10-4.477-10-10V90c0-5.523 4.477-10 10-10z" fill="#fff"/><path d="M510 80h240c5.523 0 10 4.477 10 10v60c0 5.523-4.477 10-10 10H510c-5.523 0-10-4.477-10-10V90c0-5.523 4.477-10 10-10z" stroke="#207bea" stroke-opacity=".5" stroke-linecap="round" stroke-linejoin="round"/><g><path d="M544.118 127.876c-2.125-1.994-3.4-4.739-3.4-7.876 0-3.137 1.243-5.882 3.269-7.876 1.765-1.765 1.765-4.51 0-6.274-1.765-1.765-4.51-1.765-6.275 0-3.496 3.627-5.751 8.627-5.751 14.15s2.255 10.523 5.882 14.15c1.765 1.765 4.51 1.765 6.275 0 1.6-1.764 1.6-4.51 0-6.274z" fill="#ffd85f"/><path d="M544.118 112.124c1.993-2.124 4.77-3.366 7.875-3.366 3.105 0 5.883 1.242 7.876 3.268 1.765 1.765 4.51 1.765 6.275 0 1.764-1.765 1.764-4.51 0-6.274-3.628-3.497-8.628-5.752-14.15-5.752-5.523 0-10.523 2.255-14.15 5.882-1.766 1.765-1.766 4.51 0 6.275 1.764 1.568 4.509 1.568 6.274-.033z" fill="#3bb4e7"/><path d="M559.87 127.876c-1.994 2.124-4.772 3.366-7.877 3.366-3.104 0-5.882-1.242-7.875-3.268-1.765-1.765-4.51-1.765-6.275 0-1.765 1.765-1.765 4.51 0 6.274 3.628 3.497 8.628 5.752 14.15 5.752 5.523 0 10.523-2.255 14.15-5.882 1.765-1.765 1.765-4.51 0-6.275-1.764-1.568-4.509-1.568-6.274.033z" fill="#ed5c68"/><circle cx="540.98" cy="108.987" r="4.379" fill="#308bc5"/><circle cx="540.98" cy="131.013" r="4.379" fill="#d5465f"/><path d="M585.817 124.118c1.242-1.013 1.503-.36 2.516.62.49.49 1.994 1.504 1.013 2.255-1.993 1.634-3.758 2.386-6.372 2.386-5.752 0-9.902-4.379-9.64-10.033.13-2.614 1.11-5 3.137-6.634 1.862-1.503 4.117-2.254 6.503-2.124 1.242 0 2.255.262 3.366.621.751.262 1.503.621 2.124 1.111 1.242 1.013.621 1.504-.261 2.517-.262.261-.36.49-.621.62-.49.49-.883.883-1.504.36-1.241-.882-3.006-1.373-4.51-1.013-5 1.242-4.77 10.13 1.373 10.13.98.197 2.124-.163 2.876-.816zm139.085 4.902c-.882 0-1.503-.621-1.503-1.504v-19.673c0-.882.62-1.503 1.503-1.503h1.634c.882 0 1.503.62 1.503 1.503v19.673c0 .883-.62 1.504-1.503 1.504zm-8.628-2.255c-1.764 1.634-3.496 2.516-6.013 2.516-5.13 0-7.516-4.248-7.516-8.889v-8.006c0-.883.621-1.504 1.503-1.504h1.634c.883 0 1.504.621 1.504 1.504v8.006c0 2.615 1.372 4.64 4.248 4.64 2.745 0 4.51-2.385 4.51-4.869v-7.777c0-.883.62-1.504 1.503-1.504h1.634c.882 0 1.503.621 1.503 1.504v15.13c0 .883-.62 1.504-1.503 1.504h-1.372c-.883 0-1.373-.752-1.504-1.504l-.13-.751zm-19.542-15.785h3.137c.883 0 1.504.752 1.504 1.504v1.013c0 .882-.621 1.503-1.504 1.503h-3.137v12.516c0 .883-.62 1.504-1.503 1.504h-1.634c-.883 0-1.504-.621-1.504-1.504V110.36c0-3.758 2.125-6.764 6.014-7.124h2.385c.883 0 1.504.752 1.504 1.504v1.013c0 .882-.621 1.503-1.504 1.503h-1.242c-1.862 0-2.614 1.372-2.614 3.137v.621h.098zm-11.405 0h3.496c.883 0 1.504.621 1.504 1.504v1.013c0 .882-.621 1.503-1.504 1.503h-3.496v7.614c0 1.504.751 2.255 2.255 2.255h.751c.883 0 1.504.621 1.504 1.504v1.11c0 .883-.621 1.504-1.504 1.504h-2.124c-3.758-.262-5.392-2.614-5.392-6.373v-14.77c0-.883.62-1.504 1.503-1.504h1.634c.883 0 1.504.62 1.504 1.503v3.137zm-50.196 0h3.496c.883 0 1.504.621 1.504 1.504v1.013c0 .882-.621 1.503-1.504 1.503h-3.496v7.614c0 1.504.751 2.386 2.255 2.386h.751c.883 0 1.504.62 1.504 1.503v1.013c0 .883-.621 1.504-1.504 1.504h-1.013c-4.118 0-6.503-1.765-6.503-6.373v-14.771c0-.883.62-1.503 1.503-1.503h1.634c.882 0 1.503.62 1.503 1.503v3.137c0-.033-.13-.033-.13-.033zm-20.392 2.125c1.634-1.634 3.496-2.517 5.751-2.517 5.13 0 7.778 4.118 7.778 8.89v8.038c0 .883-.62 1.504-1.503 1.504h-1.634c-.883 0-1.504-.621-1.504-1.504v-8.006c0-2.615-1.372-4.64-4.248-4.64-2.745 0-4.51 2.254-4.51 4.869v7.777c0 .883-.62 1.504-1.503 1.504h-1.634c-.882 0-1.503-.621-1.503-1.504v-15.163c0-.882.62-1.503 1.503-1.503h1.373c.882 0 1.372.751 1.503 1.503zm50.326 0c1.634-1.634 3.497-2.517 5.752-2.517 5.13 0 7.778 4.118 7.778 8.89v8.038c0 .883-.621 1.504-1.504 1.504h-1.634c-.882 0-1.503-.621-1.503-1.504v-8.006c0-2.615-1.372-4.64-4.248-4.64-2.745 0-4.51 2.254-4.51 4.869v7.777c0 .883-.62 1.504-1.503 1.504h-1.634c-.882 0-1.503-.621-1.503-1.504v-15.163c0-.882.62-1.503 1.503-1.503h1.372c.883 0 1.373.751 1.504 1.503zm-65.751-2.615c-5.523 0-9.38 4.02-9.38 9.51s3.89 9.51 9.38 9.51c5.62 0 9.51-3.89 9.51-9.51 0-5.523-3.987-9.51-9.51-9.51zm45.85 11.144c.359 2.516 2.875 3.627 5.26 3.627 1.112 0 2.386-.261 3.367-.751.13-.13.36-.13.49-.262.621-.36 1.111-.49 1.634 0l.882.883.752.751c.752 1.013.261 1.242-.62 1.765-1.864 1.242-4.25 1.863-6.504 1.863-6.013 0-10.033-3.628-10.033-9.64 0-5.752 4.02-9.51 9.64-9.51 5.883 0 9.151 3.365 9.282 9.28 0 1.635.13 2.125-1.504 2.125h-12.647zm-45.85-6.895c2.876 0 4.771 2.516 4.771 5.261 0 2.876-1.765 5.13-4.771 5.13-3.007 0-4.771-2.254-4.771-5.13s1.895-5.261 4.77-5.261zm45.947 3.006h9.38c-.36-2.386-2.255-3.268-4.51-3.268-2.353 0-4.216 1.144-4.87 3.268z" fill="#2a3039"/></g></g><g><path d="M500.331 120l-187.213.239m187.338-.34l-186.38.335" marker-end="url(#m)" stroke="#207bea" stroke-linecap="round" stroke-linejoin="round"/></g><g><path d="M1558.045 200c23.171 0 41.955-18.907 41.955-42.23 0-20.035-13.866-36.8-32.462-41.13-.38-42.392-34.633-76.64-76.838-76.64-28.975 0-54.2 16.144-67.294 39.982a32.446 32.446 0 00-12.991-2.701c-16.631 0-30.357 12.482-32.458 28.645-21.64 4.32-37.957 23.53-37.957 46.58 0 26.23 21.126 47.494 47.184 47.494h170.861z" fill="#fff"/><path d="M1558.045 200c23.171 0 41.955-18.907 41.955-42.23 0-20.035-13.866-36.8-32.462-41.13-.38-42.392-34.633-76.64-76.838-76.64-28.975 0-54.2 16.144-67.294 39.982a32.446 32.446 0 00-12.991-2.701c-16.631 0-30.357 12.482-32.458 28.645-21.64 4.32-37.957 23.53-37.957 46.58 0 26.23 21.126 47.494 47.184 47.494h170.861z" stroke="#207bea" stroke-linecap="round" stroke-linejoin="round" stroke-width="2"/><g><path fill="#fff" d="M1427.194 105.426h85.612v66.943h-85.612z"/><text transform="translate(1432.194 110.644)" fill="#000"><tspan font-family="Monaco" font-size="42" font-weight="400" x="0" y="42">CDN</tspan></text></g></g><g><path d="M1179.415 120l159.065.103m-158.94-.318l158.356.068" marker-end="url(#j)" stroke="#941100" stroke-linecap="round" stroke-linejoin="round"/></g><g><path d="M930 80h240c5.523 0 10 4.477 10 10v60c0 5.523-4.477 10-10 10H930c-5.523 0-10-4.477-10-10V90c0-5.523 4.477-10 10-10z" fill="#fff"/><path d="M930 80h240c5.523 0 10 4.477 10 10v60c0 5.523-4.477 10-10 10H930c-5.523 0-10-4.477-10-10V90c0-5.523 4.477-10 10-10z" stroke="#207bea" stroke-linecap="round" stroke-linejoin="round"/></g><g><path d="M1024.19 110.635l.158 2.829c1.806-2.188 4.176-3.282 7.11-3.282 5.085 0 7.673 2.919 7.763 8.756v16.175h-5.482v-15.858c0-1.553-.335-2.703-1.004-3.45-.669-.747-1.764-1.12-3.284-1.12-2.212 0-3.86 1.004-4.942 3.009v17.419h-5.485v-24.478h5.169zm31.373 24.93c-3.475 0-6.293-1.096-8.452-3.29s-3.239-5.117-3.239-8.767v-.678c0-2.443.47-4.627 1.41-6.55.94-1.922 2.262-3.419 3.962-4.49 1.7-1.07 3.596-1.605 5.688-1.605 3.324 0 5.894 1.063 7.706 3.189 1.815 2.127 2.72 5.134 2.72 9.026v2.218h-15.957c.167 2.02.839 3.618 2.02 4.795 1.182 1.176 2.668 1.764 4.458 1.764 2.512 0 4.559-1.017 6.139-3.054l2.956 2.829c-.978 1.462-2.283 2.597-3.915 3.404-1.633.807-3.464 1.21-5.495 1.21zm-.654-20.969c-1.506 0-2.72.528-3.645 1.583-.926 1.055-1.516 2.526-1.772 4.412h10.45v-.408c-.12-1.84-.61-3.23-1.467-4.174-.858-.942-2.046-1.413-3.566-1.413zm21.575-9.91v5.95h4.312v4.072h-4.312v13.664c0 .934.186 1.608.554 2.024.368.414 1.027.621 1.975.621a8.43 8.43 0 001.918-.226v4.253c-1.249.348-2.452.52-3.611.52-4.212 0-6.32-2.33-6.32-6.99v-13.867h-4.02v-4.072h4.018v-5.95h5.484zm14.333 30.428h-5.485v-34.747h5.485zm11.804 0h-5.485v-24.478h5.485zm-5.824-30.835c0-.843.267-1.544.8-2.103.536-.557 1.3-.836 2.292-.836.993 0 1.76.279 2.303.836.54.559.811 1.26.811 2.104 0 .829-.27 1.519-.81 2.07-.544.55-1.31.826-2.304.826-.993 0-1.756-.276-2.291-.826-.534-.55-.8-1.241-.8-2.07zm13.723 30.835v-20.407h-3.724v-4.072h3.724v-2.24c0-2.715.752-4.81 2.256-6.288 1.506-1.478 3.611-2.217 6.319-2.217.964 0 1.987.136 3.07.407l-.135 4.298a10.778 10.778 0 00-2.099-.18c-2.619 0-3.927 1.349-3.927 4.049v2.171h4.965v4.072h-4.965v20.406h-5.484zm22.997-7.872l4.965-16.606h5.846l-9.704 28.188c-1.49 4.117-4.018 6.176-7.584 6.176-.798 0-1.678-.136-2.64-.408v-4.253l1.038.068c1.383 0 2.426-.252 3.126-.758.699-.505 1.252-1.353 1.659-2.544l.789-2.104-8.576-24.365h5.913z" fill="#0e1e25"/><path d="M991.395 112.124l-.018-.008c-.01-.004-.02-.007-.03-.016a.142.142 0 01-.036-.12l.995-6.082 4.665 4.666-4.851 2.064a.107.107 0 01-.043.008h-.02a.133.133 0 01-.025-.022 2.207 2.207 0 00-.637-.49zm6.767-.37l4.988 4.988c1.036 1.037 1.555 1.554 1.744 2.154.028.089.051.177.07.269l-11.922-5.049a1.034 1.034 0 00-.019-.008c-.048-.019-.103-.04-.103-.09 0-.049.057-.072.104-.091l.016-.006zm6.598 9.012c-.258.484-.76.986-1.609 1.836l-5.624 5.623-7.274-1.515-.038-.008c-.065-.01-.133-.021-.133-.08a2.195 2.195 0 00-.843-1.535c-.03-.03-.022-.076-.013-.118 0-.007 0-.013.003-.018l1.368-8.399.005-.028c.008-.064.02-.139.077-.139a2.226 2.226 0 001.493-.856c.012-.013.02-.027.035-.035.041-.019.09 0 .133.019l12.418 5.253zm-8.526 8.752l-9.248 9.248 1.583-9.73.003-.012a.173.173 0 01.007-.037c.013-.031.047-.044.079-.057l.015-.006c.347-.148.653-.376.895-.666.03-.036.068-.07.115-.077a.116.116 0 01.038 0l6.512 1.338zm-11.205 11.206l-1.043 1.042-11.524-16.656a.612.612 0 00-.013-.018c-.018-.024-.037-.048-.034-.077 0-.02.014-.038.029-.054l.013-.017c.034-.051.064-.103.096-.158l.026-.045.004-.004c.018-.03.034-.06.065-.077.027-.013.065-.008.094-.001l12.768 2.633c.036.005.07.02.098.042.016.017.02.035.024.056.18.683.67 1.242 1.323 1.512.036.018.02.058.004.1a.303.303 0 00-.02.058c-.16.978-1.54 9.392-1.91 11.664zm-2.178 2.176c-.768.76-1.221 1.163-1.733 1.325-.506.16-1.048.16-1.553 0-.6-.19-1.118-.708-2.154-1.745l-11.573-11.573 3.023-4.689a.193.193 0 01.051-.06c.032-.023.079-.013.117 0 .694.21 1.44.172 2.108-.107.035-.013.07-.022.097.003a.248.248 0 01.036.041l11.581 16.806zm-18.129-13.109l-2.655-2.655 5.243-2.237a.108.108 0 01.043-.009c.043 0 .069.044.092.084.053.081.109.16.167.237l.017.02c.016.022.005.044-.01.065l-2.896 4.495zm-3.83-3.83l-3.359-3.359c-.571-.571-.986-.986-1.274-1.342l10.213 2.118.039.007c.063.01.132.022.132.08 0 .065-.076.095-.14.12l-.03.012zm-5.22-6.428c.012-.216.05-.43.116-.637.19-.6.708-1.117 1.745-2.154l4.299-4.299c1.979 2.872 3.963 5.741 5.953 8.606.035.046.073.098.033.136a3.569 3.569 0 00-.508.68.207.207 0 01-.064.08c-.017.01-.035.006-.054.002h-.003l-11.517-2.415zm7.31-8.24l5.777-5.78c.544.238 2.523 1.073 4.29 1.82 1.338.566 2.558 1.08 2.941 1.248.039.016.074.031.09.07.01.023.006.052 0 .077a2.578 2.578 0 00.674 2.352c.038.039 0 .094-.034.142l-.018.027-5.868 9.09a.178.178 0 01-.056.064c-.03.02-.074.01-.11.001a2.927 2.927 0 00-.7-.095c-.21 0-.44.039-.67.081h-.002c-.026.004-.05.009-.07-.006a.271.271 0 01-.058-.066l-6.187-9.025zm6.947-6.947l7.482-7.482c1.036-1.036 1.555-1.555 2.155-1.744a2.574 2.574 0 011.552 0c.6.189 1.118.708 2.154 1.744l1.621 1.621-5.321 8.242a.2.2 0 01-.053.061c-.032.022-.077.013-.116 0a2.699 2.699 0 00-2.47.477c-.035.036-.087.015-.13-.004-.696-.303-6.1-2.587-6.874-2.915zm16.094-4.731l4.914 4.914-1.184 7.332v.02a.174.174 0 01-.01.049c-.013.025-.039.03-.065.038a2.355 2.355 0 00-.73.373c-.015.016-.029.03-.052.033a.147.147 0 01-.056-.01l-7.487-3.18-.014-.007c-.048-.02-.104-.043-.104-.091a2.828 2.828 0 00-.4-1.178c-.035-.06-.075-.121-.044-.181zm-5.06 11.075l7.02 2.973c.038.018.08.035.097.075a.136.136 0 010 .073c-.02.103-.039.22-.039.339v.197c0 .048-.05.069-.096.088l-.014.005c-1.112.475-15.61 6.658-15.633 6.658-.022 0-.045 0-.067-.022-.038-.039 0-.093.035-.142a.93.93 0 00.018-.025l5.768-8.932.01-.015c.034-.054.072-.115.134-.115l.058.01c.131.017.247.034.364.034.875 0 1.686-.426 2.175-1.154a.205.205 0 01.044-.052c.035-.026.086-.013.126.005zm-8.038 11.82l15.804-6.739s.023 0 .044.022c.087.086.16.144.23.198l.036.022c.032.018.064.039.067.072 0 .013 0 .02-.003.032l-1.354 8.317-.005.033c-.009.064-.018.138-.079.138a2.225 2.225 0 00-1.766 1.09l-.007.01c-.018.03-.035.058-.064.073-.027.013-.062.008-.09.002l-12.603-2.6c-.013-.003-.196-.668-.21-.67z" fill="url(#w)"/></g><g><clipPath id="x"><path d="M0 0h200v40H0z"/></clipPath><text clip-path="url(#x)" transform="translate(1404.978 246)" fill="#207bea"><tspan font-family="Menlo" font-size="24" font-weight="400" x="0" y="22">live site</tspan></text></g><g><path stroke="#207bea" stroke-linecap="round" stroke-linejoin="round" stroke-dasharray="16.0,10.0" stroke-width="2" d="M1470 240v-39"/></g><g><path d="M450.694 400c50.67-84.051 168.098-107.164 178.82-226.107M450.693 400c50.92-84.301 168.348-107.414 179.07-226.357" marker-end="url(#m)" stroke="#207bea" stroke-linecap="round" stroke-linejoin="round"/></g><g><path d="M759.646 120l146.715-.377m-146.59.247l146.05-.38" marker-end="url(#j)" stroke="#941100" stroke-linecap="round" stroke-linejoin="round"/></g><g><clipPath id="y"><path d="M0 0h260v70H0z"/></clipPath><text clip-path="url(#y)" transform="translate(-100 332.5)" fill="#0096ff"><tspan font-family="Menlo" font-size="22" font-weight="400" x="11.588" y="30">Gatsby updates the </tspan> <tspan font-family="Menlo" font-size="22" font-weight="400" x="51.323" y="55">Preview via HMR</tspan></text></g><g><clipPath id="z"><path d="M0 0h590v70H0z"/></clipPath><text clip-path="url(#z)" transform="translate(-35 -140)" fill="#0096ff"><tspan font-family="Menlo" font-size="22" font-weight="400" x="23.475" y="30">Gatsby is notified of content changes and </tspan> <tspan font-family="Menlo" font-size="22" font-weight="400" x="10.23" y="55">fetches the updated content from Contentful</tspan></text></g><g><clipPath id="A"><path d="M0 0h300v70H0z"/></clipPath><text clip-path="url(#A)" transform="translate(720 470)" fill="#0096ff"><tspan font-family="Menlo" font-size="22" font-weight="400" x="10" y="30">Stackbit updates the </tspan> <tspan font-family="Menlo" font-size="22" font-weight="400" x="10" y="55">content in Contentful</tspan></text></g><g><clipPath id="B"><path d="M0 0h205v70H0z"/></clipPath><text clip-path="url(#B)" transform="translate(610 680)" fill="#941100"><tspan font-family="Menlo" font-size="22" font-weight="400" x="10" y="30">User clicks </tspan> <tspan font-family="Menlo" font-size="22" font-weight="400" x="10" y="55">Publish</tspan></text></g><g><clipPath id="C"><path d="M0 0h345v70H0z"/></clipPath><text clip-path="url(#C)" transform="translate(-110 680)" fill="#0096ff"><tspan font-family="Menlo" font-size="22" font-weight="400" x="17.117" y="30">User updates the content </tspan> <tspan font-family="Menlo" font-size="22" font-weight="400" x="83.343" y="55">via Stackbit editor</tspan></text></g><g><clipPath id="D"><path d="M0 0h320v70H0z"/></clipPath><text clip-path="url(#D)" transform="translate(810 280)" fill="#941100"><tspan font-family="Menlo" font-size="22" font-weight="400" x="10" y="30">Stackbit publishes the </tspan> <tspan font-family="Menlo" font-size="22" font-weight="400" x="10" y="55">content in Contentful</tspan></text></g><g><path d="M430.385 745.61c-.054-.562-.094-1.463-.126-2.396 9.147-.872 15.541-3.12 15.541-5.42-6.838-5.725 5.928-46.404-17.838-45.578-1.493-1.174-4.105-2.216-7.853-2.216-32.191 2.263-17.93 41.852-25.292 47.928 0 3.063 6.219 4.343 15.1 5.237a45.68 45.68 0 01-.193 2.445c-3.688 9.212-28.575 6.625-29.724 24.39h80c-1.147-17.765-25.926-15.178-29.615-24.39z" fill="#000"/></g><g><path d="M380 750c-76.069-32.655-54.851-81.052-50.67-126.123M380 750c-75.819-32.905-54.601-81.302-50.42-126.373" marker-end="url(#m)" stroke="#207bea" stroke-linecap="round" stroke-linejoin="round"/></g><g><path d="M460 750c79.186-47.405 56.36-77.506 50.67-126.123M460 750c79.436-47.655 56.61-77.756 50.92-126.373" marker-end="url(#j)" stroke="#941100" stroke-linecap="round" stroke-linejoin="round"/></g><g><path d="M174.024 679.992l61.98.507m-.9-.35l-.362 60.674m-60.593-60.962l61.08.43m.1-.267l-.418 59.924" stroke="#207bea" stroke-linecap="round" stroke-linejoin="round"/></g><g><path d="M234.22 705.013l77.348-1.293m-77.224 1.104l76.456-1.316" stroke="#207bea" stroke-linecap="round" stroke-linejoin="round" stroke-dasharray="8.0,5.0"/></g><g><circle cx="330.699" cy="703.154" r="20" fill="#fff"/><path d="M344.841 689.011c8.409 8.49 7.657 20.304 0 28.285-8.163 8.828-20.627 8.265-28.284 0-8.782-6.821-7.897-20.41 0-28.285 7.462-7.72 21.34-8.889 28.284 0m0 0c8.534 8.366 7.782 20.18.125 28.16-8.163 8.828-20.627 8.265-28.284 0-8.782-6.821-7.897-20.41 0-28.285 7.462-7.72 21.34-8.889 28.284 0" stroke="#207bea" stroke-linecap="round" stroke-linejoin="round"/><text transform="translate(319.7 690.654)" fill="#0096ff"><tspan font-family="Menlo" font-size="22" font-weight="400" x="4.377" y="20">1</tspan></text></g><g><circle cx="410" cy="120" r="20" fill="#fff"/><path d="M424.142 105.858c8.82 7.842 8.165 20.19 0 28.284-7.129 8.207-19.98 8.21-28.284 0-7.795-6.924-8.489-20.67 0-28.284 7.465-7.328 21.439-6.78 28.284 0m0 0c8.945 7.717 8.29 20.065.125 28.16-7.129 8.206-19.98 8.209-28.284 0-7.795-6.925-8.489-20.67 0-28.285 7.465-7.328 21.439-6.78 28.284 0" stroke="#207bea" stroke-linecap="round" stroke-linejoin="round"/><text transform="translate(399 107.5)" fill="#0096ff"><tspan font-family="Menlo" font-size="22" font-weight="400" x="4.377" y="20">3</tspan></text></g><g><circle cx="262.599" cy="314.665" r="20" fill="#fff"/><path d="M276.741 300.523c8.534 7.19 7.587 21.218 0 28.284-7.155 8.684-21.095 7.374-28.284 0-8.068-7.761-8.698-20.184 0-28.284 8.348-7.761 20.46-8.157 28.284 0m0 0c8.66 7.064 7.712 21.093.125 28.159-7.155 8.684-21.095 7.374-28.284 0-8.068-7.761-8.698-20.184 0-28.284 8.348-7.761 20.46-8.157 28.284 0" stroke="#207bea" stroke-linecap="round" stroke-linejoin="round"/><text transform="translate(251.599 302.165)" fill="#0096ff"><tspan font-family="Menlo" font-size="22" font-weight="400" x="4.377" y="20">4</tspan></text></g><g><circle cx="509.415" cy="702.901" r="20" fill="#fff"/><path d="M523.557 688.759c8.249 8.745 7.01 20.037 0 28.284-7.18 6.952-20 8.747-28.284 0-8.34-8.598-8.908-19.7 0-28.284 7.023-8.194 19.48-7.325 28.284 0m0 0c8.374 8.62 7.135 19.912.125 28.159-7.18 6.952-20 8.747-28.284 0-8.34-8.598-8.908-19.7 0-28.284 7.023-8.194 19.48-7.325 28.284 0" stroke="#941100" stroke-linecap="round" stroke-linejoin="round"/><text transform="translate(498.415 690.4)" fill="#941100"><tspan font-family="Menlo" font-size="22" font-weight="400" x="4.377" y="20">5</tspan></text></g><g><circle cx="825" cy="120" r="20" fill="#fff"/><path d="M839.142 105.858c7.678 7.44 8.063 19.885 0 28.284-7.233 7.906-20.021 7.076-28.284 0-8.885-8.063-7.117-20.938 0-28.284 8.79-6.851 19.73-7.87 28.284 0m0 0c7.803 7.316 8.188 19.76.125 28.16-7.233 7.905-20.021 7.075-28.284 0-8.885-8.064-7.117-20.939 0-28.285 8.79-6.851 19.73-7.87 28.284 0" stroke="#941100" stroke-linecap="round" stroke-linejoin="round"/><text transform="translate(814 107.5)" fill="#941100"><tspan font-family="Menlo" font-size="22" font-weight="400" x="4.377" y="20">7</tspan></text></g><g><circle cx="1249.822" cy="120" r="20" fill="#fff"/><path d="M1263.965 105.858c7.392 6.788 7.485 20.914 0 28.284-7.26 8.384-21.136 8.45-28.285 0-6.948-8.9-7.327-20.452 0-28.284 7.466-7.284 20.96-7.037 28.284 0m0 0c7.518 6.663 7.61 20.789.126 28.16-7.26 8.383-21.136 8.448-28.285 0-6.948-8.9-7.327-20.453 0-28.285 7.466-7.284 20.96-7.037 28.284 0" stroke="#941100" stroke-linecap="round" stroke-linejoin="round"/><text transform="translate(1238.822 107.5)" fill="#941100"><tspan font-family="Menlo" font-size="22" font-weight="400" x="4.377" y="20">8</tspan></text></g><g><path d="M99.52 332.497l61.55.363m-.77-.552l-.623 60.472m-60.031-60.478l60.773.35m.067-.468l-.63 59.967" stroke="#207bea" stroke-linecap="round" stroke-linejoin="round"/></g><g><path d="M159.733 351.596l84.926-30.37m-84.802 30.241l84.168-30.206" stroke="#207bea" stroke-linecap="round" stroke-linejoin="round" stroke-dasharray="8.0,5.0"/></g><g><circle cx="659.321" cy="256.75" r="20" fill="#fff"/><path d="M673.463 242.608c7.963 8.093 8.64 21.066 0 28.284-7.207 7.43-21.115 7.912-28.284 0-8.613-7.226-6.908-21.423 0-28.284 7.907-8.627 20.71-8.701 28.284 0m0 0c8.088 7.968 8.766 20.941.125 28.16-7.207 7.428-21.115 7.911-28.284 0-8.613-7.227-6.908-21.424 0-28.285 7.907-8.627 20.71-8.701 28.284 0" stroke="#941100" stroke-linecap="round" stroke-linejoin="round"/><text transform="translate(648.321 244.25)" fill="#941100"><tspan font-family="Menlo" font-size="22" font-weight="400" x="4.377" y="20">6</tspan></text></g><g><path d="M790.445 469.999l-71.41.177m.744-.93l-.117 61.987m70.908-61.306l-70.668.183m.124-.988l-.204 61.016" stroke="#207bea" stroke-linecap="round" stroke-linejoin="round"/></g><g><path d="M720.73 484.183l-166.902-156.34m166.95 156.296l-166.35-155.857" stroke="#207bea" stroke-linecap="round" stroke-linejoin="round" stroke-dasharray="8.0,5.0"/></g><g><path d="M680.803 680.005l-72.008-.426m.722-.738l.14 61.493m71.27-60.41l-71.284-.351m.026-.857l.198 60.665" stroke="#941100" stroke-linecap="round" stroke-linejoin="round"/></g><g><path d="M610.607 702.998l-81.517.212m81.642-.234l-80.802.124" stroke="#941100" stroke-linecap="round" stroke-linejoin="round" stroke-dasharray="8.0,5.0"/></g><g><circle cx="540.128" cy="314.782" r="20" fill="#fff"/><path d="M554.27 300.64c6.895 8.494 8.743 21.37 0 28.284-7.103 7.73-21.075 6.837-28.285 0-7.522-8.297-8.279-21.154 0-28.284 8.79-6.895 20.21-7.613 28.285 0m0 0c7.02 8.37 8.868 21.246.125 28.159-7.103 7.73-21.075 6.837-28.285 0-7.522-8.297-8.279-21.154 0-28.284 8.79-6.895 20.21-7.613 28.285 0" stroke="#207bea" stroke-linecap="round" stroke-linejoin="round"/><text transform="translate(529.128 302.282)" fill="#0096ff"><tspan font-family="Menlo" font-size="22" font-weight="400" x="4.377" y="20">2</tspan></text></g><g><path d="M880.572 280l-71.378.107m.678-.28l.261 60.26m70.564-60.128l-70.699.147m.04-.404l.319 59.787" stroke="#941100" stroke-linecap="round" stroke-linejoin="round"/></g><g><path d="M810.743 296.694L678 262.08m132.862 34.515l-132.096-34.371" stroke="#941100" stroke-linecap="round" stroke-linejoin="round" stroke-dasharray="8.0,5.0"/></g><g><clipPath id="E"><path d="M0 0h320v70H0z"/></clipPath><text clip-path="url(#E)" transform="translate(665 -140)" fill="#941100"><tspan font-family="Menlo" font-size="22" font-weight="400" x="54.039" y="30">Contentful calls </tspan> <tspan font-family="Menlo" font-size="22" font-weight="400" x="14.304" y="55">Netlify deploy webhook</tspan></text></g><g><path d="M985.005-90.376l-.27 20.857m.945-.672l-321.454.427m.379.718l.654-21.338m319.89-.117l-.254 20.187m.91.117l-321.053.31m-.132.713l.693-20.851" stroke="#941100" stroke-linecap="round" stroke-linejoin="round"/></g><g><clipPath id="F"><path d="M0 0h220v70H0z"/></clipPath><text clip-path="url(#F)" transform="translate(1140 -140)" fill="#941100"><tspan font-family="Menlo" font-size="22" font-weight="400" x="10.662" y="30">Netlify deploys </tspan> <tspan font-family="Menlo" font-size="22" font-weight="400" x="57.02" y="55">the site</tspan></text></g><g><path d="M1360.018-90.93l-.417 21.107m.857-.663l-220.666.344m.34.385l-.495-20.628m220.583-.668l-.427 20.444m.79.069l-220.336.303m-.023.356l-.466-20.338" stroke="#941100" stroke-linecap="round" stroke-linejoin="round"/></g><g><path d="M554.982-90.733l.519 21.605m.736-.652l-591.878.26m.242.802l.46-22.417m590.056.276l.574 20.952m.67.025l-591.619.294m-.095.744l.431-21.574" stroke="#207bea" stroke-linecap="round" stroke-linejoin="round"/></g><g><path d="M825 100.895l.098-171.187m-.033 171.062l.12-170.561" stroke="#941100" stroke-linecap="round" stroke-linejoin="round" stroke-dasharray="8.0,5.0"/></g><g><path d="M1249.838 100.699l.103-171.278m-.096 171.153l.157-170.66" stroke="#941100" stroke-linecap="round" stroke-linejoin="round" stroke-dasharray="8.0,5.0"/></g><g><path d="M410 100.503l-.161-171.369m.236 171.244l-.202-170.76" stroke="#207bea" stroke-linecap="round" stroke-linejoin="round" stroke-dasharray="8.0,5.0"/></g></g></svg>