<svg height="64" viewBox="0 0 59 64" width="59" xmlns="http://www.w3.org/2000/svg"><path d="m57.4634667 6.61973333h-7.8784v-5.55306666c0-.5888-.4778667-1.06666667-1.0666667-1.06666667h-38.5066667c-.58879997 0-1.06666663.47786667-1.06666663 1.06666667v5.55306666h-7.8784c-.5888 0-1.06666667.47786667-1.06666667 1.06666667v13.4883556c0 1.9811555.35342222 3.8855111 1.05102222 5.6590222 2.38791111 6.1013333 6.87431111 10.0302222 11.80728888 10.4184889 3.3479111 5.6149333 8.0775111 9.4257777 13.2629333 10.4981333.0035556.0007111.0064.0021333.0099556.0035556.6791111.1415111 1.3717333.2325333 2.0672.2808888v6.0807112c-.6876444.0369777-1.3681778.096-2.0188444.2040888-5.8680889.9443556-9.9697778 4.4679112-9.9946667 8.5767112-.0007111.0128-.0035556.0241777-.0035556.0369777 0 .4416.2688.8206223.6520889.9827556.1272889.0540444.2680889.0839111.416.0839111.0021334 0 .0042667-.0007111.0071111-.0007111h24.0184889c.0021334 0 .0042667.0007111.0071111.0007111.1479111 0 .288-.0298667.416-.0846222.3832889-.1621334.6520889-.5411556.6520889-.9827556 0-.0128-.0035555-.0241778-.0035555-.0369778-.0248889-4.1088-4.1265778-7.6323555-9.9896889-8.576-.6528-.1088-1.3354667-.1678222-2.0238222-.2048v-6.0807111c.6961777-.0483555 1.3880888-.1386666 2.0672-.2808889.0035555-.0007111.0064-.0021333.0099555-.0035555 5.1847111-1.0723556 9.9150222-4.8832 13.2629333-10.4981333 4.9336889-.3889778 9.4193778-4.3171556 11.8072889-10.4170667.6968889-1.7749333 1.0510223-3.6792889 1.0510223-5.6604445v-13.4876444c-.0014223-.58951111-.4792889-1.06666667-1.0680889-1.06666667zm-54.42702226 19.43466667c-.59946666-1.5253333-.90382222-3.1665778-.90382222-4.8796444v-12.42168893h6.81173334v15.27111113c0 2.9425778.52622222 5.7784889 1.56444444 8.4295111.3285333.8391111.6912 1.6448 1.0723556 2.4291555-3.53848893-.9194666-6.70648893-4.1329777-8.54471116-8.8284444zm37.02968886 35.8115556h-21.6021333c.7018667-2.5671112 3.8727111-4.768 8.0597333-5.4421334 1.7514667-.2901333 3.7269334-.2908444 5.4883556.0007111 4.1820444.6734223 7.3528889 2.8743111 8.0540444 5.4414223zm-8.0981333-16.2019556c-.0014222 0-.0028444 0-.0049778.0007111-1.7649778.3697778-3.6302222.3697778-5.3959111 0-.0014222 0-.0035555 0-.0049778-.0007111-5.8474666-1.2053333-11.1068444-6.4341333-14.0664889-13.9882667-.9400888-2.4028444-1.4172444-4.9770666-1.4172444-7.6522666v-21.89013337h36.3733333v21.89013337c0 2.6752-.4771555 5.2494222-1.4172444 7.6522666-2.9603556 7.5541334-8.2190222 12.7829334-14.0664889 13.9882667zm24.4288-24.4899556c0 1.7130667-.3043556 3.3550223-.9038222 4.8810667-1.8382222 4.6940445-5.0062222 7.9082667-8.5454222 8.8270222.3811555-.7850666.7438222-1.5900444 1.0723555-2.4291555 1.0382222-2.6517334 1.5644445-5.4876445 1.5644445-8.4295111v-15.27040003h6.8117333v12.42097773zm-17.0538667-3.7013333c.6321778.0924445 1.1470223.5269333 1.344 1.1335111.1969778.6065778.0355556 1.2600889-.4216889 1.7052445l-4.2922666 4.1841777 1.0133333 5.9086223c.0832.4849777-.0504889.9784889-.3655111 1.3525333-.3185778.3783111-.7836444.5952-1.2743111.5952-.0007111 0 0 0-.0007111 0-.2666667 0-.5347556-.0661333-.7744-.1927111l-5.3063111-2.7889778-5.3063111 2.7889778c-.6791112.3562667-1.5573334.1820444-2.0494223-.4024889-.3157333-.3740444-.4487111-.8668444-.3655111-1.3525333l1.0133334-5.9079111-4.2929778-4.1848889c-.4572445-.4458667-.6179556-1.0986667-.4209778-1.7059556.1976889-.6065778.7118222-1.0403555 1.3432889-1.1328l5.9335111-.8618667 2.6524444-5.3767111c.2830223-.5724444.8547556-.9272889 1.4926223-.9272889.6378666 0 1.2103111.3548445 1.4926222.9265778l2.6524444 5.3774222zm-5.0353777 5.6675556 3.7880888-3.6935111-5.2352-.7601778c-.5418666-.0789334-1.0097777-.4188445-1.2529777-.9080889l-2.3424-4.7473778-2.3416889 4.7459556c-.2439111.4913777-.7111111.8312889-1.2515556.9102222l-5.2380444.7601778 3.7888 3.6928c.3932444.3832889.5724444.9336889.4792889 1.4734222l-.8945778 5.2145778 4.6826667-2.4618667c.2382222-.1251556.5063111-.1912889.7751111-.1912889s.5368889.0661333.7751111.192l4.6826666 2.4611556-.8945777-5.2145778c-.0931556-.5397333.0860444-1.0901333.4792889-1.4734222z" fill="#fff"/></svg>