<svg height="64" viewBox="0 0 43 64" width="43" xmlns="http://www.w3.org/2000/svg"><path d="m20.3733333 55.2533333c.2133334.1066667.4266667.2133334.64.2133334.2133334 0 .4266667-.1066667.64-.2133334.8533334-.64 20.3733334-15.68 20.3733334-34.24 0-11.62666663-9.3866667-21.0133333-21.0133334-21.0133333-11.62666663 0-21.0133333 9.38666667-21.0133333 21.0133333 0 18.4533334 19.52 33.6 20.3733333 34.24zm.64-53.11999997c10.4533334 0 18.88 8.42666667 18.88 18.87999997 0 15.5733334-15.4666666 29.2266667-18.88 32-3.4133333-2.7733333-18.87999997-16.4266666-18.87999997-32 0-10.4533333 8.42666667-18.87999997 18.87999997-18.87999997zm8.5333334 18.13333337c0-4.6933334-3.84-8.5333334-8.5333334-8.5333334-4.6933333 0-8.5333333 3.84-8.5333333 8.5333334 0 4.6933333 3.84 8.5333333 8.5333333 8.5333333 4.6933334 0 8.5333334-3.84 8.5333334-8.5333333zm-14.9333334 0c0-3.52 2.88-6.4 6.4-6.4s6.4 2.88 6.4 6.4-2.88 6.4-6.4 6.4-6.4-2.88-6.4-6.4zm25.3866667 34.56c0 5.12-8.32 9.1733333-18.9866667 9.1733333-10.6666666 0-18.98666663-4.0533333-18.98666663-9.1733333 0-2.9866667 2.88-5.6533334 7.36-7.2533334.53333333.64.96000003 1.1733334 1.49333333 1.7066667-4.26666667 1.3866667-6.72 3.52-6.72 5.5466667 0 3.4133333 6.8266667 7.04 16.8533333 7.04 10.0266667 0 16.8533334-3.6266667 16.8533334-7.04 0-2.0266667-2.56-4.2666667-6.72-5.5466667.5333333-.5333333.96-1.0666667 1.4933333-1.7066667 4.5866667 1.6 7.36 4.2666667 7.36 7.2533334z" fill="#fff"/></svg>