<svg height="64" viewBox="0 0 74 64" width="74" xmlns="http://www.w3.org/2000/svg"><path d="m73.4569585 60.0656443-11.8375034-17.8552596c-.3874033-.5850189-1.0002732-.9829708-1.6922992-1.0988525s-1.4011042.0607062-1.9579563.4876069l-8.4971752 6.5170837-12.3368308-17.6572505c-.1038866-.1410422-.2221825-.2708792-.3529728-.3874092v-11.2693032c1.0570801.3389843 2.1613828.5075358 3.2714555.4993274 5.165456 0 10.330912-3.3058918 15.496368-3.3058918 1.5084254-.0152825 3.0016705.3021791 4.3734195.929782.1961548.0955645.4103675.148384.6284638.1549637.1971573.0125366.3894235-.0646797.5231436-.2101002.1337201-.1454206.1945756-.3434742.1655838-.5388909 0-4.4308134 0-8.85875707 0-13.28383105-.0470147-.8624892-.530622-1.64145402-1.2827549-2.06618241-1.3770387-.60419876-2.8701205-.89811249-4.3734194-.86090933-5.165456 0-10.330912 3.30589185-15.496368 3.30589185-1.1100621.00806204-2.2143418-.16048591-3.2714555-.49932742v-1.72181867c0-.66565394-.5396191-1.20527307-1.2052731-1.20527307-.6656539 0-1.205273.53961913-1.205273 1.20527307v28.32391713c-.4917969.1350406-.9304412.4174555-1.2569277.8092548l-11.3812214 13.5851493.9470003-1.1364003-6.2415927-5.8025289c-.5741707-.5335524-1.3631372-.7709925-2.1364137-.6429554s-1.4436057.6071035-1.8151602 1.2972464l-12.21630343 22.6246974c-.42224641.7795767-.40581444 1.7232566.04331677 2.4876603.4491312.7644037 1.26548104 1.2380857 2.15200204 1.2486862h68.87274682c.9291587-.0084363 1.7789907-.5253167 2.2138331-1.3464861.4348424-.8211693.3847728-1.8145841-.1304325-2.5878696zm-36.519774-54.44390634c1.0156027.23920261 2.0558922.35768003 3.0992736.35297283 2.9243909-.14382699 5.8085514-.74215232 8.5488297-1.77347323 2.2455177-.84485668 4.6045824-1.34974874 6.9991929-1.49798225 1.0641049-.0112462 2.1191195.19682613 3.0992736.61124563v10.45143936c-1.0156027-.2392026-2.0558922-.3576801-3.0992736-.3529729-2.9243909.143827-5.8085514.7421524-8.5488297 1.7734733-2.2382342.8549544-4.5914257 1.3714378-6.9819747 1.5324186-1.0641049.0112462-2.1191195-.1968261-3.0992736-.6112456v-10.48587574zm-26.5160075 58.29217114h.1291364zm-.78342753-.3960183.09470003.0688727zm.36158192.2324455.12913641.0774818zm-.94700027-4.5369922c-.47599001.6286721-.66649253 1.4281581-.52515469 2.2039279h-5.91444714l12.14743071-22.4955609 6.3018564 5.8541834zm0 3.6416465-.06026365-.0947zm-.23244552-.4132365-.05165456-.1033091zm-.18940005-.4907183v-.0516546zm46.48910415-.5337638h-43.9063761c-.1027993-.1645693-.1510064-.3573977-.1377455-.550982l23.976325-28.8921173 20.1452784 28.8318537c.0375418.2116504-.0054516.4296887-.1205273.6112456zm.6284638 2.5310734h.1205273zm.370191-.1205273.1119182-.0516545zm1.6701641-2.3933279c.1214642-.7062278-.0292767-1.4322455-.4218456-2.0317461l-7.4296475-10.6236212 1.015873 1.4635459 8.5402206-6.5601291 11.7600215 17.7347323h-13.4904493zm-.5423729 1.4291095v-.0516546z" fill="#fff"/></svg>