<svg height="64" viewBox="0 0 64 64" width="64" xmlns="http://www.w3.org/2000/svg"><g fill="#fff"><path d="m51.1980606 27.4850909c-.2579394 0-.5042424-.1027879-.6865454-.2831515l-12.3423031-12.342303c-.3781818-.3781819-.3781818-.9929697 0-1.3711516l10.2846061-10.28654541c.3781818-.37818181.9929697-.37818181 1.3711515 0 .3781818.37818182.3781818.9929697 0 1.37115152l-9.6 9.59999999 10.9711515 10.9711515 9.6-9.6c.3781818-.3781818.9929697-.3781818 1.3711515 0s.3781818.9929697 0 1.3711515l-10.284606 10.2865455c-.1803637.1803636-.4266667.2831515-.6846061.2831515z"/><path d="m56.6846061 21.9985455c-.2482425 0-.4964849-.0950303-.6865455-.2831516l-12.342303-12.3403636c-.3781818-.37818182-.3781818-.99296969 0-1.37115151l5.4865454-5.48654546c.3781818-.37818181.9929697-.37818181 1.3711515 0 .3781819.37818182.3781819.9929697 0 1.37115152l-4.8 4.80193939 10.9711516 10.96921216 4.8-4.8c.3781818-.3781819.9929697-.3781819 1.3711515 0 .3781818.3781818.3781818.9929697 0 1.3711515l-5.4846061 5.484606c-.1900606.1881213-.438303.2831516-.6865454.2831516z"/><path d="m37.4865455 19.2562424c-.2482425 0-.4964849-.0950303-.6865455-.2831515-.3781818-.3781818-.3781818-.9929697 0-1.3711515l2.057697-2.057697c.3781818-.3781818.9929697-.3781818 1.3711515 0s.3781818.9929697 0 1.3711515l-2.057697 2.057697c-.1900606.1881212-.4363636.2831515-.684606.2831515z"/><circle cx="51.197514" cy="21.029726" r="1" transform="matrix(.70710678 -.70710678 .70710678 .70710678 .125143 42.361573)"/><path d="m40.2288485 38.454303c-.2482424 0-.4964849-.0950303-.6865455-.2831515-.3781818-.3781818-.3781818-.9929697 0-1.3711515l6.857697-6.8557576c.3762424-.3781818.3762424-.9929697 0-1.3711515s-.3781818-.9929697 0-1.3711515l2.057697-2.057697-8.2288485-8.2288485-2.057697 2.057697c-.3781818.3781818-.9929697.3781818-1.3711515 0s-.3781818-.9929697 0-1.3711515l2.742303-2.742303c.3646061-.3646061 1.0084849-.3646061 1.3711515 0l9.6 9.6c.3781819.3781818.3781819.9929697 0 1.3711515l-2.1740606 2.1740606c.5139394 1.0821818.3238788 2.4164848-.566303 3.3105454l-6.857697 6.8557576c-.1900606.1881212-.438303.2831515-.6865454.2831515z"/><path d="m29.257697 21.9985455c-.2482425 0-.4964849-.0950303-.6865455-.2831516-.3781818-.3781818-.3781818-.9929697 0-1.3711515l3.4288485-3.4288485c.2598788-.2618181.6438788-.3471515.9929697-.2346666l3.5452121 1.1810909.9018182-.9018182c.3781818-.3781818.9929697-.3781818 1.3711515 0s.3781818.9929697 0 1.3711515l-1.3265454 1.3265455c-.2598788.2618182-.6438788.3490909-.9929697.2346666l-3.5452122-1.1810909-3.0041212 3.0041212c-.1881212.1881213-.4363636.2831516-.684606.2831516z"/><path d="m14.857697 61.0831515c-.2482425 0-.4964849-.0950303-.6865455-.2831515-.3781818-.3781818-.3781818-.9929697 0-1.3711515l9.6-9.6-10.9711515-10.9711515-9.6 9.6c-.37818182.3781818-.9929697.3781818-1.37115152 0-.37818181-.3781818-.37818181-.9929697 0-1.3711515l10.28460602-10.2865455c.3646061-.3646061 1.0084849-.3646061 1.3711516 0l12.342303 12.342303c.3781818.3781818.3781818.9929697 0 1.3711515l-10.2846061 10.2865455c-.1881212.1881212-.4363636.2831515-.684606.2831515z"/><path d="m14.1730909 61.769697c-.2482424 0-.4964848-.0950303-.6865454-.2831515-.3781819-.3781819-.3781819-.9929697 0-1.3711516l4.8-4.8019394-10.97115156-10.9692121-4.8 4.8c-.37818182.3781818-.9929697.3781818-1.37115152 0-.37818181-.3781818-.37818181-.9929697 0-1.3711515l5.48460606-5.4846061c.37818182-.3781818.9929697-.3781818 1.37115152 0l12.342303 12.3403637c.3781818.3781818.3781818.9929697 0 1.3711515l-5.4865454 5.4865455c-.1881212.1881212-.4344243.2831515-.6826667.2831515z"/><path d="m24.457697 48.7408485c-.2482425 0-.4964849-.0950303-.6865455-.2831515-.3781818-.3781818-.3781818-.9929697 0-1.3711515l2.057697-2.057697c.3781818-.3781818.9929697-.3781818 1.3711515 0s.3781818.9929697 0 1.3711515l-2.057697 2.057697c-.1881212.1881212-.4363636.2831515-.684606.2831515z"/><circle cx="12.801322" cy="42.970274" r="1" transform="matrix(.70710678 -.70710678 .70710678 .70710678 -26.635152 21.637603)"/><path d="m31.3134545 41.8850909c-.2482424 0-.4964848-.0950303-.6865454-.2831515-.3781818-.3781818-.3781818-.9929697 0-1.3711515l8.9134545-8.915394c.3781819-.3781818.3781819-.9929697 0-1.3711515-.3684848-.3665454-1.0084848-.3665454-1.3711515 0l-2.7442424 2.7423031c-.3781818.3781818-.9929697.3781818-1.3711515 0-.3781818-.3781819-.3781818-.9929697 0-1.3711516l2.7442424-2.742303c1.0957576-1.097697 3.0138182-1.097697 4.1134546 0 1.1345454 1.1345455 1.1345454 2.9789091 0 4.1134546l-8.9115152 8.9134545c-.1900606.1900606-.438303.2850909-.6865455.2850909z"/><path d="m34.742303 32.969697c-.2482424 0-.4964848-.0950303-.6865454-.2831515-.3781818-.3781819-.3781818-.9929697 0-1.3711516l2.7442424-2.742303c.3762424-.3781818.3762424-.9929697 0-1.3711515s-.9929697-.3781818-1.3711515 0l-2.742303 2.742303c-.3781819.3781818-.9929697.3781818-1.3711516 0-.3781818-.3781818-.3781818-.9929697 0-1.3711515l2.7423031-2.742303c1.132606-1.1364849 2.9789091-1.1364849 4.1153939 0 1.1326061 1.1345454 1.1326061 2.9789091 0 4.1134545l-2.7442424 2.7423031c-.1900606.1881212-.438303.2831515-.6865455.2831515z"/><path d="m32 30.2273939c-.2482424 0-.4964848-.0950303-.6865455-.2831515-.3781818-.3781818-.3781818-.9929697 0-1.3711515l2.7423031-2.742303c.1842424-.1842424.2831515-.4286061.2831515-.6865455s-.1008485-.5003636-.2831515-.684606c-.3684849-.3646061-1.0046061-.3665455-1.3730909 0l-2.7423031 2.742303c-.3781818.3781818-.9929697.3781818-1.3711515 0s-.3781818-.9929697 0-1.3711515l2.7423031-2.7423031c1.0976969-1.0976969 3.0157575-1.0976969 4.1153939 0 .5488485.5469091.8494545 1.2761213.8513939 2.0557576 0 .7757576-.3025454 1.5088485-.8513939 2.0596364l-2.742303 2.742303c-.1881213.1861818-.4363637.2812121-.6846061.2812121z"/><path d="m23.7711515 49.4254545c-.2579394 0-.5042424-.1027878-.6865454-.2831515l-9.6-9.6c-.3781819-.3781818-.3781819-.9929697 0-1.3711515l2.1740606-2.1740606c-.5139394-1.0821818-.3238788-2.4164848.566303-3.3105454l12.3442424-12.3423031c1.0957576-1.0976969 3.0138182-1.0976969 4.1134546 0 1.1345454 1.1345455 1.1345454 2.9808485 0 4.115394l-2.7423031 2.742303c-.3781818.3781818-.9929697.3781818-1.3711515 0s-.3781818-.9929697 0-1.3711515l2.7423031-2.7423031c.3781818-.3781818.3781818-.994909 0-1.3730909-.3684849-.3665454-1.0065455-.3665454-1.3711516 0l-12.3442424 12.3423031c-.3762424.3781818-.3762424.9929697 0 1.3711515s.3781818.9929697 0 1.3711515l-2.057697 2.057697 8.2288485 8.2288485 2.057697-2.057697c.3781818-.3781818.9929697-.3781818 1.3711515 0s.3781818.9929697 0 1.3711515l-2.742303 2.742303c-.1784243.1823031-.4247273.2831515-.6826667.2831515z"/><path d="m31.3134545 47.369697c-.1027878 0-.2055757-.0174546-.3064242-.0484849l-3.5452121-1.1830303-.9018182.9018182c-.3781818.3781818-.9929697.3781818-1.3711515 0s-.3781818-.9929697 0-1.3711515l1.3265454-1.3265455c.2598788-.2618182.6458182-.3490909.9929697-.2346666l3.5452122 1.1810909 7.1350303-7.1350303c-.9289697-.6322425-2.2070303-.5372122-3.0293334.2850909l-3.7449697 3.7449697c-.3781818.3781818-.9929697.3781818-1.3711515 0s-.3781818-.9929697 0-1.3711515l3.7449697-3.7449697c1.6853333-1.6853334 4.4315152-1.6853334 6.1187879 0l.3684848.3684848c.3781819.3781818.3781819.9929697 0 1.3711515l-8.2753939 8.2773334c-.1842424.1861818-.4324848.2850909-.6865455.2850909z"/><path d="m47.7711515 62.454303c-.2482424 0-.4964848-.0950303-.6865454-.2831515l-10.2846061-10.2865454c-.3781818-.3781819-.3781818-.9929697 0-1.3711516l12.342303-12.342303c.3646061-.364606 1.0084849-.364606 1.3711515 0l10.2846061 10.2865455c.3781818.3781818.3781818.9929697 0 1.3711515s-.9929697.3781818-1.3711515 0l-9.6-9.6-10.9711515 10.9711515 9.6 9.6c.3781818.3781818.3781818.9929697 0 1.3711515-.1881212.1881212-.4363637.2831515-.6846061.2831515z"/><path d="m48.4557576 63.1408485c-.2482424 0-.4964849-.0950303-.6865455-.2831515l-5.4865454-5.4865455c-.3781819-.3781818-.3781819-.9929697 0-1.3711515l12.342303-12.3403636c.3781818-.3781819.9929697-.3781819 1.3711515 0l5.4846061 5.484606c.3781818.3781818.3781818.9929697 0 1.3711515-.3781818.3781819-.9929697.3781819-1.3711515 0l-4.8-4.8-10.9711516 10.9692122 4.8 4.8019394c.3781819.3781818.3781819.9929697 0 1.3711515-.1861818.1881212-.4344242.2831515-.6826666.2831515z"/><path d="m47.7711515 40.512c-.2482424 0-.4964848-.0950303-.6865454-.2831515l-2.057697-2.057697c-.3781818-.3781818-.3781818-.9929697 0-1.3711515s.9929697-.3781818 1.3711515 0l2.057697 2.057697c.3781818.3781818.3781818.9929697 0 1.3711515-.1881212.1881212-.4363637.2831515-.6846061.2831515z"/><circle cx="42.969498" cy="51.198096" r="1" transform="matrix(.70710678 -.70710678 .70710678 .70710678 -23.617046 45.379599)"/><path d="m38.857697 50.7966061c-.2482425 0-.4964849-.0950303-.6865455-.2831516l-2.1740606-2.1721212c-1.0647273.5061819-2.4494545.2909091-3.3124848-.5701818l-1.3711516-1.3711515c-.3781818-.3781818-.3781818-.9929697 0-1.3711515.3781819-.3781818.9929697-.3781818 1.3711516 0l1.3711515 1.3711515c.3684848.3665455 1.0084848.3665455 1.3711515 0 .3626667-.3626667 1.0084848-.3646061 1.3730909 0l2.057697 2.057697 8.2288485-8.2288485-2.057697-2.057697c-.3781818-.3781818-.3781818-.9929697 0-1.3711515s.9929697-.3781818 1.3711515 0l2.742303 2.742303c.3781818.3781818.3781818.9929697 0 1.3711515l-9.6 9.6c-.1881212.1900607-.4363636.2831516-.684606.2831516z"/><path d="m46.3534545 39.094303c-.2482424 0-.4964848-.0950303-.6865454-.2831515l-1.3265455-1.3265454c-.2598788-.2598788-.3510303-.6438788-.2346666-.9929697l1.1810909-3.5452122-.2618182-.2618181c-.3781818-.3781819-.3781818-.9929697 0-1.3711516.3781818-.3781818.9929697-.3781818 1.3711515 0l.6884849.6865455c.2598787.2598788.3510303.6438788.2346666.9929697l-1.1810909 3.5452121.9018182.9018182c.3781818.3781818.3781818.9929697 0 1.3711515-.1900606.1881212-.438303.2831515-.6865455.2831515z"/><path d="m14.1730909 26.1139394c-.2579394 0-.5042424-.1027879-.6865454-.2831515l-10.28460611-10.2865455c-.37818181-.3781818-.37818181-.9929697 0-1.3711515.37818182-.3781818.9929697-.3781818 1.37115152 0l9.59999999 9.6 10.9711515-10.9711515-9.6-9.60000001c-.3781818-.37818181-.3781818-.99296969 0-1.37115151s.9929697-.37818182 1.3711515 0l10.2846061 10.28654542c.3781818.3781819.3781818.9929697 0 1.3711515l-12.342303 12.3423031c-.1823031.1803636-.4286061.2831515-.6846061.2831515z"/><path d="m8.68654545 20.6273939c-.24824242 0-.49648484-.0950303-.68654545-.2831515l-5.48460606-5.484606c-.37818182-.3781819-.37818182-.9929697 0-1.3711516.37818182-.3781818.9929697-.3781818 1.37115151 0l4.8 4.8 10.97115155-10.96921207-4.8-4.8019394c-.3781818-.37818181-.3781818-.99296969 0-1.37115151s.9929697-.37818182 1.3711515 0l5.4865454 5.48654545c.3781819.37818182.3781819.9929697 0 1.37115152l-12.34230299 12.34036361c-.19006061.1881212-.43830303.2831515-.68654546.2831515z"/><path d="m18.2865455 27.4850909c-.2482425 0-.4964849-.0950303-.6865455-.2831515l-2.057697-2.057697c-.3781818-.3781818-.3781818-.9929697 0-1.3711515s.9929697-.3781818 1.3711515 0l2.057697 2.057697c.3781818.3781818.3781818.9929697 0 1.3711515-.1881212.1881212-.4363636.2831515-.684606.2831515z"/><circle cx="21.029144" cy="12.801904" r="1" transform="matrix(.70710678 -.70710678 .70710678 .70710678 -2.893019 18.619441)"/><path d="m18.2865455 27.4850909c-.2482425 0-.4964849-.0950303-.6865455-.2831515l-2.742303-2.742303c-.3781818-.3781819-.3781818-.9929697 0-1.3711516l9.6-9.6c.3781818-.3781818.9929697-.3781818 1.3711515 0l2.1740606 2.1721213c1.0647273-.5081213 2.4513939-.2909091 3.3124848.5701818l1.3711516 1.3711515c.3781818.3781818.3781818.9929697 0 1.3711515-.3781819.3781818-.9929697.3781818-1.3711516 0l-1.3711515-1.3711515c-.3665454-.3665455-1.0065454-.3665455-1.3711515 0-.3626667.3646061-1.0084848.3646061-1.3730909 0l-2.057697-2.057697-8.2288485 8.2288485 2.057697 2.057697c.3781818.3781818.3781818.9929697 0 1.3711515-.1881212.1881212-.4363636.2831515-.684606.2831515z"/><path d="m18.2865455 32.969697c-.2482425 0-.4964849-.0950303-.6865455-.2831515l-.6846061-.6865455c-.2598787-.2598788-.3510303-.6438788-.2346666-.9929697l1.1810909-3.5452121-.9018182-.9018182c-.3781818-.3781818-.3781818-.9929697 0-1.3711515s.9929697-.3781818 1.3711515 0l1.3265455 1.3265454c.2598788.2598788.3510303.6438788.2346666.9929697l-1.1810909 3.5452122.2618182.2618181c.3781818.3781819.3781818.9929697 0 1.3711516-.1900606.1881212-.438303.2831515-.6865454.2831515z"/></g></svg>