<svg width="200" height="200" xmlns="http://www.w3.org/2000/svg" xmlns:xlink="http://www.w3.org/1999/xlink"><defs><circle id="a" cx="88.5" cy="88.5" r="88.5"/></defs><g fill="none" fill-rule="evenodd"><circle fill="#207BEA" fill-rule="nonzero" cx="100" cy="100" r="100"/><circle cx="88.5" cy="88.5" r="88.5" fill="#207BEA" fill-rule="nonzero" transform="translate(12 12)"/><g transform="translate(12 12)"><mask id="b" fill="#fff"><use xlink:href="#a"/></mask><path d="M88.5-6C34.652-6-9 37.372-9 90.876c0 23.314 8.293 44.705 22.104 61.42 2.13-16.95 19.17-31.287 43.063-38.076 8.73 8.081 20.005 12.984 32.333 12.984 12.038 0 23.092-4.656 31.733-12.398 24.1 7.383 40.773 22.557 41.321 40.194C176.754 137.915 186 115.474 186 90.876 186 37.372 142.348-6 88.5-6zm0 121.732c-6.224 0-12.089-1.7-17.296-4.642-12.55-7.096-21.19-21.615-21.19-38.379 0-23.722 17.264-43.021 38.486-43.021 21.225 0 38.488 19.3 38.488 43.021 0 17.021-8.912 31.72-21.774 38.692-5.067 2.745-10.72 4.329-16.714 4.329z" fill="#FFF" fill-rule="nonzero" mask="url(#b)"/></g></g></svg>