<svg xmlns="http://www.w3.org/2000/svg" xmlns:xlink="http://www.w3.org/1999/xlink" width="24" height="24" version="1.1" viewBox="0 0 24 24"><g fill-rule="evenodd" stroke-width="1"><g fill="#3EB0FD" fill-rule="nonzero"><g><g transform="translate(-1318.000000, -331.000000) translate(318.000000, 291.000000) translate(864.000000, 36.000000)"><path id="check" d="M148,4 C141.369863,4 136,9.36986301 136,16 C136,22.630137 141.369863,28 148,28 C154.630137,28 160,22.630137 160,16 C160,9.36986301 154.630137,4 148,4 Z M152.383562,12.1369863 C153.506849,12.109589 154.082192,13.4794521 153.287671,14.2739726 L147.479452,20.0821918 C147.123288,20.4383562 146.520548,20.4383562 146.164384,20.0821918 L143.232877,17.0958904 C142.027397,15.9178082 143.808219,14.1369863 144.986301,15.3424658 L146.630137,16.9863014 C146.739726,17.0958904 146.958904,17.0958904 147.068493,16.9863014 L151.561644,12.4931507 C151.753425,12.2739726 152.054795,12.1369863 152.383562,12.1369863 Z"/></g></g></g></g></svg>