<?xml version="1.0" encoding="UTF-8"?>
<svg width="50px" height="70px" viewBox="0 0 50 70" version="1.1" xmlns="http://www.w3.org/2000/svg" xmlns:xlink="http://www.w3.org/1999/xlink">
    <defs>
        <path d="M12.984375,0.984375 C12.433594,0.996094 11.992188,1.449219 12,2 L12,8 C11.996094,8.359375 12.183594,8.695313 12.496094,8.878906 C12.808594,9.058594 13.191406,9.058594 13.503906,8.878906 C13.816406,8.695313 14.003906,8.359375 14,8 L14,2 C14.003906,1.730469 13.898438,1.46875 13.707031,1.277344 C13.515625,1.085938 13.253906,0.980469 12.984375,0.984375 Z M3.988281,3.992188 C3.582031,3.992188 3.21875,4.238281 3.0625,4.613281 C2.910156,4.992188 3,5.421875 3.292969,5.707031 L7.292969,9.707031 C7.542969,9.96875 7.917969,10.074219 8.265625,9.980469 C8.617188,9.890625 8.890625,9.617188 8.980469,9.265625 C9.074219,8.917969 8.96875,8.542969 8.707031,8.292969 L4.707031,4.292969 C4.519531,4.097656 4.261719,3.992188 3.988281,3.992188 Z M21.980469,3.992188 C21.71875,3.996094 21.472656,4.105469 21.292969,4.292969 L17.292969,8.292969 C17.03125,8.542969 16.925781,8.917969 17.019531,9.265625 C17.109375,9.617188 17.382813,9.890625 17.734375,9.980469 C18.082031,10.074219 18.457031,9.96875 18.707031,9.707031 L22.707031,5.707031 C23.003906,5.417969 23.089844,4.980469 22.929688,4.601563 C22.769531,4.21875 22.394531,3.976563 21.980469,3.992188 Z M10.9452206,16.5671257 C10.4342256,17.0781206 10.1165798,17.7879901 10.1165798,18.5669121 L10.1165798,42.6800377 C10.1165798,42.6800377 8.155891,40.857028 6.08152679,40.8542661 C2.46312845,40.8542661 0.0796193673,41.4700082 0.0796193673,43.3151157 L0.0768567011,45.853518 L6.07600216,47.853518 L14.3592205,53.9937462 L25.4630074,53.9937462 C29.4846772,53.9937462 32.7439975,50.7344259 32.7439975,46.7127561 L32.7439968,34.1232612 C32.7439968,32.559892 31.478939,31.2948341 29.9155697,31.2948341 C28.3522005,31.2948341 27.0871426,32.559892 27.0871426,34.1232612 L27.0871426,32.7090477 C27.0871426,31.1456784 25.8220847,29.8806206 24.2587155,29.8806206 C22.6953462,29.8806206 21.4302883,31.1456784 21.4302883,32.7090477 L21.4302883,31.2948341 C21.4302883,29.7314649 20.1652305,28.466407 18.6018612,28.466407 C17.038492,28.466407 15.7734341,29.7314649 15.7734341,31.2948341 L15.7734341,18.5669121 C15.7734341,17.0035428 14.5083762,15.7384849 12.945007,15.7384849 C12.166085,15.7384849 11.4562156,16.0561307 10.9452206,16.5671257 Z" id="path-1"></path>
        <filter x="-264.8%" y="-102.8%" width="629.6%" height="426.4%" filterUnits="objectBoundingBox" id="filter-2">
            <feOffset dx="0" dy="32" in="SourceAlpha" result="shadowOffsetOuter1"></feOffset>
            <feGaussianBlur stdDeviation="23.5" in="shadowOffsetOuter1" result="shadowBlurOuter1"></feGaussianBlur>
            <feColorMatrix values="0 0 0 0 0   0 0 0 0 0   0 0 0 0 0  0 0 0 0.180670892 0" type="matrix" in="shadowBlurOuter1"></feColorMatrix>
        </filter>
    </defs>
    <g id="v05" stroke="none" stroke-width="1" fill="none" fill-rule="evenodd">
        <g id="Live-Demo" transform="translate(-662.000000, -412.000000)">
            <g transform="translate(187.000000, 132.000000)" id="Launch-Demo-button">
                <g transform="translate(0.000000, 50.000000)">
                    <g id="Controls-/-btn-main-action-text-only-/-Normal" transform="translate(364.000000, 237.000000)">
                        <g id="icons8-easy_filled" transform="translate(119.000000, 0.000000)">
                            <g id="Shape">
                                <use fill="black" fill-opacity="1" filter="url(#filter-2)" xlink:href="#path-1"></use>
                                <use fill="#FFFFFF" fill-rule="evenodd" xlink:href="#path-1"></use>
                            </g>
                        </g>
                    </g>
                </g>
            </g>
        </g>
    </g>
</svg>
