<svg fill="none" height="88" width="88" xmlns="http://www.w3.org/2000/svg"><path d="M0 0h88v88H0z" fill="#fff"/><path d="M36.335 54.86c-2.769-2.768-4.43-6.506-4.43-10.728 0-4.153 1.73-7.96 4.43-10.728a5.932 5.932 0 000-8.445 5.933 5.933 0 00-8.445 0C23.045 29.874 20 36.657 20 44.132a26.764 26.764 0 007.96 19.103 5.932 5.932 0 008.444 0c2.284-2.284 2.284-6.021-.07-8.375z" fill="#ffd75f"/><path d="M36.334 33.404c2.769-2.769 6.506-4.43 10.729-4.43 4.153 0 7.96 1.73 10.728 4.43 2.353 2.353 6.09 2.353 8.444 0s2.353-6.091 0-8.444C61.321 20.045 54.607 17 47.132 17a26.764 26.764 0 00-19.103 7.96 5.932 5.932 0 000 8.444c2.214 2.353 5.952 2.353 8.305 0z" fill="#3ab2e6"/><path d="M57.792 54.86c-2.769 2.769-6.507 4.43-10.729 4.43-4.153 0-7.96-1.73-10.728-4.43a5.932 5.932 0 00-8.444 0 5.933 5.933 0 000 8.445c4.914 4.914 11.628 7.96 19.103 7.96a26.764 26.764 0 0019.103-7.96 5.932 5.932 0 000-8.445c-2.215-2.353-6.021-2.353-8.305 0z" fill="#ec5c68"/><path d="M36.35 33.461a5.952 5.952 0 10-8.42-8.416 5.952 5.952 0 008.42 8.416z" fill="#2f8ac4"/><path d="M36.338 63.295a5.952 5.952 0 10-8.42-8.415 5.952 5.952 0 008.42 8.415z" fill="#d4455f"/></svg>