<svg width="88" height="88" viewBox="0 0 88 88" fill="none" xmlns="http://www.w3.org/2000/svg">
<rect width="88" height="88" fill="white"/>
<path d="M44 71C58.9117 71 71 58.9117 71 44C71 29.0883 58.9117 17 44 17C29.0883 17 17 29.0883 17 44C17 58.9117 29.0883 71 44 71Z" fill="#663399"/>
<path d="M28.9566 59.0428C24.9066 54.9928 22.7852 49.5928 22.7852 44.3856L43.8066 65.2142C38.4066 65.0214 33.0066 63.0928 28.9566 59.0428ZM48.628 64.6357L23.3637 39.3714C25.4852 29.9214 33.9709 22.7856 43.9994 22.7856C51.1352 22.7856 57.3066 26.2571 61.1637 31.4642L58.2709 33.9714C54.9923 29.5356 49.7852 26.6428 43.9994 26.6428C36.478 26.6428 30.1137 31.4642 27.6066 38.2142L49.7852 60.3928C55.378 58.4642 59.6209 53.6428 60.9709 47.8571H51.7137V43.9999H65.2137C65.2137 54.0285 58.078 62.5142 48.628 64.6357Z" fill="white"/>
</svg>
