<svg width="412" height="60" fill="none" xmlns="http://www.w3.org/2000/svg"><path fill="#fff" d="M0 0h412v60H0z"/><path fill="#FCEFF0" d="M0 0h412v29H0z"/><path fill="#EAFEED" d="M0 29h412v31H0z"/><rect x="123.633" y="35" width="20" height="18" rx="3" fill="#BAEFC0"/><rect x="350.633" y="35" width="20" height="18" rx="3" fill="#BAEFC0"/><path d="M112.867 42.047l.289-1.524h-1.609l.586-2.945h-1.485l-.586 2.945h-1.968l.586-2.945h-1.477l-.586 2.945h-1.594l-.289 1.524h1.594l-.437 2.21h-1.602L104 45.79h1.594l-.61 3.07h1.477l.601-3.07h1.977l-.609 3.07h1.476l.617-3.07h1.61l.281-1.531h-1.609l.445-2.211h1.617zm-5.125-.102h2.125l-.484 2.43h-2.117l.476-2.43zM124.023 42.21l3.079 1.642-3.079 1.64.735 1.313 2.992-1.875-.125 3.515h1.469l-.125-3.515 2.992 1.883.734-1.32-3.086-1.641 3.086-1.641-.734-1.313-2.992 1.875.125-3.515h-1.469l.125 3.515-2.992-1.882-.735 1.32zM133.914 42.21l3.078 1.642-3.078 1.64.734 1.313 2.993-1.875-.125 3.515h1.468l-.125-3.515 2.993 1.883.734-1.32-3.086-1.641 3.086-1.641-.734-1.313-2.993 1.875.125-3.515h-1.468l.125 3.515-2.993-1.882-.734 1.32zM147.812 49.086c2.266 0 3.626-1.344 3.626-3.625v-7.875h-5.876v1.625h3.985v6.219c0 1.25-.633 1.937-1.758 1.937-1.008 0-1.711-.648-1.742-1.633h-1.828c.008 2.024 1.437 3.352 3.593 3.352zM156.992 49c1.164 0 2.078-.484 2.492-1.336h.164v1.195h1.727v-5.828c0-1.828-1.203-2.867-3.32-2.867-1.922 0-3.305.977-3.461 2.453h1.781c.187-.625.797-.984 1.633-.984 1 0 1.57.5 1.57 1.383v.718l-2.14.125c-2.047.125-3.157 1.032-3.157 2.563 0 1.547 1.086 2.578 2.711 2.578zm.586-1.484c-.914 0-1.492-.461-1.492-1.203 0-.758.555-1.188 1.625-1.25l1.867-.102v.781c0 1.031-.844 1.774-2 1.774zM168.711 40.164c-1.234 0-2.102.547-2.461 1.547h-.156v-1.406h-1.844v11.422h1.875V47.46h.156c.321.984 1.196 1.547 2.43 1.547 1.969 0 3.187-1.383 3.187-3.664V43.82c0-2.273-1.218-3.656-3.187-3.656zm-.649 1.594c1.227 0 1.985.836 1.985 2.18v1.343c0 1.336-.758 2.18-1.985 2.18-1.218 0-1.976-.836-1.976-2.18v-1.343c0-1.344.758-2.18 1.976-2.18zM176.773 49c1.165 0 2.079-.484 2.493-1.336h.164v1.195h1.726v-5.828c0-1.828-1.203-2.867-3.32-2.867-1.922 0-3.305.977-3.461 2.453h1.781c.188-.625.797-.984 1.633-.984 1 0 1.57.5 1.57 1.383v.718l-2.14.125c-2.047.125-3.157 1.032-3.157 2.563 0 1.547 1.086 2.578 2.711 2.578zm.586-1.484c-.914 0-1.492-.461-1.492-1.203 0-.758.555-1.188 1.625-1.25l1.867-.102v.781c0 1.031-.843 1.774-2 1.774zM184.008 48.86h1.82v-4.985c0-1.297.797-2.148 2.016-2.148 1.172 0 1.734.656 1.734 2.03v5.102h1.82v-5.547c0-2.07-1.007-3.18-2.867-3.18-1.258 0-2.203.587-2.64 1.634h-.125v-1.461h-1.758v8.554zM199.625 46.54c-.18.632-.906 1.046-1.852 1.046-1.242 0-2.046-.844-2.046-2.148v-.415h5.64v-1.039c0-2.375-1.398-3.851-3.648-3.851-2.274 0-3.781 1.484-3.781 3.726v1.336c0 2.438 1.406 3.836 3.843 3.836 1.914 0 3.367-1.023 3.571-2.492h-1.727zm-1.937-4.97c1.195 0 1.914.844 1.914 2.235h-3.875c0-1.399.734-2.235 1.961-2.235zM204.156 42.727c0 1.273.797 2.086 2.375 2.437l1.281.281c.977.211 1.336.5 1.336 1.063 0 .664-.625 1.101-1.617 1.101-.969 0-1.617-.382-1.773-1.054h-1.805c.125 1.547 1.453 2.476 3.547 2.476 2.148 0 3.516-1.07 3.516-2.734 0-1.281-.758-2.008-2.469-2.375l-1.274-.274c-.929-.203-1.32-.515-1.32-1.062 0-.64.602-1.063 1.516-1.063.883 0 1.5.399 1.625 1.04h1.718c-.117-1.54-1.359-2.446-3.32-2.446-2.023 0-3.336 1.016-3.336 2.61zM219.406 46.54c-.179.632-.906 1.046-1.851 1.046-1.243 0-2.047-.844-2.047-2.148v-.415h5.64v-1.039c0-2.375-1.398-3.851-3.648-3.851-2.273 0-3.781 1.484-3.781 3.726v1.336c0 2.438 1.406 3.836 3.843 3.836 1.915 0 3.368-1.023 3.571-2.492h-1.727zm-1.937-4.97c1.195 0 1.914.844 1.914 2.235h-3.875c0-1.399.734-2.235 1.961-2.235zM240.906 43.156c-.203-1.96-1.492-3.047-3.586-3.047-2.445 0-3.828 1.43-3.828 3.97v.983c0 2.547 1.383 3.97 3.828 3.97 2.086 0 3.391-1.079 3.586-2.993h-1.781c-.156.945-.82 1.461-1.82 1.461-1.282 0-1.985-.922-1.985-2.602v-.656c0-1.68.703-2.601 1.985-2.601.992 0 1.672.539 1.82 1.515h1.781zM247.047 49.031c2.359 0 3.851-1.468 3.851-3.797V43.93c0-2.328-1.492-3.797-3.851-3.797s-3.852 1.469-3.852 3.797v1.304c0 2.328 1.493 3.797 3.852 3.797zm0-7.39c1.265 0 2.055.914 2.055 2.39v1.102c0 1.476-.79 2.39-2.055 2.39-1.266 0-2.055-.914-2.055-2.39V44.03c0-1.476.789-2.39 2.055-2.39zM261.18 42.36c0-1.454-.586-2.227-1.696-2.227-.836 0-1.468.531-1.664 1.406h-.195c-.18-.898-.727-1.406-1.523-1.406-.821 0-1.422.523-1.618 1.453h-.195v-1.281h-1.594v8.554h1.563v-5.836c0-.804.39-1.312 1-1.312.586 0 .914.437.914 1.227v5.921h1.555v-5.836c0-.804.375-1.312.976-1.312.578 0 .914.445.914 1.227v5.921h1.563v-6.5zM265.445 48.86h1.813v-7.032h3.547V40.36h-3.578v-.804c0-.727.492-1.102 1.445-1.102.312 0 1.89.024 2.133.047v-1.367c-.18-.024-1.852-.055-2.172-.055-2.235 0-3.188.75-3.188 2.57v.711h-2.289v1.47h2.289v7.03zM276.719 49.031c2.359 0 3.851-1.468 3.851-3.797V43.93c0-2.328-1.492-3.797-3.851-3.797-2.36 0-3.852 1.469-3.852 3.797v1.304c0 2.328 1.492 3.797 3.852 3.797zm0-7.39c1.265 0 2.054.914 2.054 2.39v1.102c0 1.476-.789 2.39-2.054 2.39-1.266 0-2.055-.914-2.055-2.39V44.03c0-1.476.789-2.39 2.055-2.39zM286.375 45.047c0-1.977 1.039-3.055 3.016-3.055.468 0 1.031.094 1.414.242v-1.976c-.297-.117-.743-.18-1.227-.18-1.625 0-2.578.766-2.93 2.414h-.265v-2.187h-3.586v1.36h1.828V47.5h-1.664v1.36h5.961V47.5h-2.547v-2.453zM294.852 37.914v2.445h-2.25v1.47h2.25v4.39c0 1.898.929 2.664 3.179 2.664.258 0 1.696-.024 1.836-.047v-1.453c-.148.015-1.383.023-1.695.023-.969 0-1.508-.422-1.508-1.18v-4.398h3.274V40.36h-3.305v-2.445h-1.781zM314.898 48.86h1.813v-7.032h3.547V40.36h-3.578v-.804c0-.727.492-1.102 1.445-1.102.313 0 1.891.024 2.133.047v-1.367c-.18-.024-1.852-.055-2.172-.055-2.234 0-3.188.75-3.188 2.57v.711h-2.289v1.47h2.289v7.03zM326.172 49.031c2.359 0 3.851-1.468 3.851-3.797V43.93c0-2.328-1.492-3.797-3.851-3.797-2.36 0-3.852 1.469-3.852 3.797v1.304c0 2.328 1.492 3.797 3.852 3.797zm0-7.39c1.266 0 2.055.914 2.055 2.39v1.102c0 1.476-.789 2.39-2.055 2.39s-2.055-.914-2.055-2.39V44.03c0-1.476.789-2.39 2.055-2.39zM336.062 49.031c2.36 0 3.852-1.468 3.852-3.797V43.93c0-2.328-1.492-3.797-3.852-3.797-2.359 0-3.851 1.469-3.851 3.797v1.304c0 2.328 1.492 3.797 3.851 3.797zm0-7.39c1.266 0 2.055.914 2.055 2.39v1.102c0 1.476-.789 2.39-2.055 2.39-1.265 0-2.054-.914-2.054-2.39V44.03c0-1.476.789-2.39 2.054-2.39zM345.164 48.992c1.242 0 2.109-.539 2.469-1.539h.156v1.406h1.844V37h-1.875v4.703h-.156c-.321-.992-1.204-1.547-2.438-1.547-1.961 0-3.18 1.383-3.18 3.657v1.523c0 2.281 1.219 3.656 3.18 3.656zm.656-1.586c-1.226 0-1.984-.836-1.984-2.18v-1.335c0-1.344.758-2.188 1.984-2.188 1.219 0 1.977.836 1.977 2.188v1.336c0 1.343-.758 2.18-1.977 2.18zM351.508 42.21l3.078 1.642-3.078 1.64.734 1.313 2.992-1.875-.125 3.515h1.469l-.125-3.515 2.992 1.883.735-1.32-3.086-1.641 3.086-1.641-.735-1.313-2.992 1.875.125-3.515h-1.469l.125 3.515-2.992-1.882-.734 1.32zM361.398 42.21l3.079 1.642-3.079 1.64.735 1.313 2.992-1.875-.125 3.515h1.469l-.125-3.515 2.992 1.883.734-1.32-3.086-1.641 3.086-1.641-.734-1.313-2.992 1.875.125-3.515H365l.125 3.515-2.992-1.882-.735 1.32zM17.555 44.617h3.554v-1.234h-3.554v-3.54h-1.22v3.54h-3.554v1.234h3.555v3.531h1.219v-3.53zM21.078 15.617v-1.234h-8.265v1.234h8.265z" fill="#1E3C68"/></svg>