<svg width="88" height="88" fill="none" xmlns="http://www.w3.org/2000/svg"><path fill="#fff" d="M0 0h88v88H0z"/><path fill-rule="evenodd" clip-rule="evenodd" d="M43.998 19C29.642 19 18 30.64 18 45c0 11.488 7.45 21.232 17.78 24.67 1.302.24 1.776-.563 1.776-1.252 0-.617-.023-2.253-.035-4.422-7.233 1.57-8.758-3.486-8.758-3.486-1.183-3.004-2.888-3.803-2.888-3.803-2.36-1.612.179-1.58.179-1.58 2.61.183 3.982 2.68 3.982 2.68 2.32 3.972 6.086 2.825 7.567 2.159.237-1.68.909-2.825 1.65-3.475-5.772-.656-11.842-2.887-11.842-12.85 0-2.838 1.013-5.16 2.676-6.977-.268-.657-1.16-3.302.256-6.88 0 0 2.182-.7 7.149 2.665 2.073-.578 4.298-.865 6.509-.876 2.209.01 4.432.298 6.509.876 4.964-3.365 7.142-2.666 7.142-2.666 1.42 3.579.527 6.224.26 6.881 1.667 1.817 2.672 4.139 2.672 6.977 0 9.988-6.08 12.186-11.87 12.83.932.802 1.764 2.389 1.764 4.815 0 3.475-.032 6.28-.032 7.132 0 .695.47 1.505 1.788 1.25C62.557 66.224 70 56.486 70 45.002 70 30.64 58.358 19 43.998 19z" fill="#161514"/></svg>