<svg width="118" height="88" fill="none" xmlns="http://www.w3.org/2000/svg"><path fill="#fff" d="M0 0h118v88H0z"/><path d="M32.596 29.735h18.86v1.499H34.326v11.282h16.11v1.5h-16.11v12.387h17.328v1.499H32.596V29.735zm20.55 0h2.004l8.88 12.387 9.078-12.387L85.453 14 65.17 43.424l10.452 14.478H73.54l-9.51-13.177-9.548 13.177H52.44l10.53-14.478-9.823-13.69zm23.223 1.499v-1.5h21.493v1.5H87.96v26.668h-1.728V31.234h-9.863zM9 29.734h2.161L40.962 74.33 28.647 57.902l-17.84-26.037-.078 26.037H9V29.735zM97.688 55.95a.611.611 0 01-.618-.627c0-.354.265-.627.618-.627.358 0 .618.273.618.627s-.26.627-.618.627zm1.7-1.65h.924c.013.5.379.838.917.838.601 0 .942-.362.942-1.04v-4.295h.942v4.299c0 1.22-.707 1.924-1.876 1.924-1.097 0-1.85-.682-1.85-1.726zm4.957-.055h.933c.08.577.644.943 1.455.943.757 0 1.312-.391 1.312-.93 0-.464-.353-.741-1.156-.93l-.782-.19c-1.098-.257-1.598-.788-1.598-1.68 0-1.083.883-1.803 2.208-1.803 1.232 0 2.132.72 2.186 1.744h-.916c-.089-.56-.577-.91-1.283-.91-.744 0-1.241.358-1.241.905 0 .434.32.683 1.111.868l.668.164c1.245.29 1.758.796 1.758 1.71 0 1.162-.9 1.89-2.338 1.89-1.346 0-2.25-.695-2.317-1.781z" fill="#000"/></svg>