<svg width="88" height="88" fill="none" xmlns="http://www.w3.org/2000/svg"><path fill="#fff" d="M0 0h88v88H0z"/><path d="M57.035 35.15l-.022-.01c-.012-.004-.024-.008-.035-.02a.167.167 0 01-.042-.14l1.17-7.157 5.49 5.491-5.709 2.43a.126.126 0 01-.05.008h-.023a.159.159 0 01-.03-.025 2.599 2.599 0 00-.75-.577zm7.962-.436l5.87 5.869c1.218 1.22 1.829 1.83 2.051 2.535.033.104.06.209.082.316l-14.027-5.94a1.533 1.533 0 00-.023-.01c-.056-.022-.121-.048-.121-.105 0-.058.067-.085.123-.108l.018-.007 6.027-2.55zm7.764 10.604c-.303.57-.894 1.16-1.893 2.161l-6.618 6.616-8.559-1.782-.045-.01c-.076-.011-.156-.025-.156-.093a2.582 2.582 0 00-.992-1.807c-.035-.034-.026-.089-.015-.139 0-.008 0-.015.003-.021l1.61-9.883.006-.033c.009-.076.022-.163.09-.163a2.62 2.62 0 001.757-1.008c.014-.015.023-.031.041-.04.048-.023.106 0 .156.02l14.613 6.182h.002zm-10.033 10.3l-10.882 10.88 1.863-11.448.003-.015a.201.201 0 01.01-.044c.014-.036.054-.052.092-.067l.018-.007a2.8 2.8 0 001.052-.783c.036-.043.08-.084.136-.091a.14.14 0 01.044 0l7.663 1.575.001-.002zM49.543 68.801l-1.226 1.227L34.756 50.43a.54.54 0 00-.015-.021c-.022-.03-.044-.058-.04-.091 0-.025.017-.046.034-.064l.015-.02c.04-.06.075-.12.113-.186l.03-.053.005-.005c.021-.036.041-.07.077-.09.032-.016.076-.01.111-.002l15.023 3.098a.25.25 0 01.116.05c.02.02.024.041.028.066a2.66 2.66 0 001.557 1.779c.042.021.024.068.005.118a.356.356 0 00-.023.068c-.19 1.151-1.813 11.052-2.249 13.724zm-2.562 2.561c-.904.895-1.437 1.37-2.04 1.56a3.029 3.029 0 01-1.826 0c-.706-.224-1.316-.833-2.535-2.054L26.962 57.251l3.557-5.517a.226.226 0 01.06-.07c.038-.028.093-.016.138 0a3.686 3.686 0 002.48-.126c.041-.015.082-.026.114.003.016.014.03.03.043.048L46.98 71.365v-.002zM25.649 55.938l-3.124-3.124 6.169-2.632a.127.127 0 01.05-.01c.052 0 .082.051.109.098a4.4 4.4 0 00.197.279l.02.024c.018.026.006.051-.013.076l-3.407 5.29h-.001zm-4.507-4.506l-3.952-3.953c-.673-.672-1.16-1.16-1.5-1.58l12.018 2.493.046.008c.074.012.156.026.156.095 0 .076-.09.11-.166.14l-.034.015-6.568 2.782zM15 43.868c.014-.255.06-.507.136-.75.224-.706.833-1.314 2.054-2.535l5.057-5.058c2.33 3.38 4.664 6.755 7.006 10.127.04.054.086.115.04.16-.222.244-.443.51-.599.8a.242.242 0 01-.076.093c-.02.013-.04.008-.063.004h-.003L15 43.865v.002zm8.601-9.697l6.798-6.8c.64.28 2.968 1.263 5.047 2.14 1.575.667 3.01 1.273 3.462 1.47.045.018.086.036.106.081.012.028.006.063 0 .091a3.033 3.033 0 00.792 2.769c.046.045 0 .11-.04.166l-.02.032-6.906 10.696a.21.21 0 01-.065.075c-.036.023-.088.012-.13.002a3.444 3.444 0 00-.822-.112c-.249 0-.518.045-.79.095h-.002c-.03.005-.058.01-.082-.007a.318.318 0 01-.068-.078L23.6 34.171h.001zm8.175-8.174l8.804-8.804c1.219-1.22 1.83-1.83 2.535-2.052a3.029 3.029 0 011.826 0c.706.223 1.316.833 2.535 2.052l1.908 1.908-6.261 9.698a.236.236 0 01-.063.072c-.038.026-.09.015-.136 0a3.176 3.176 0 00-2.907.56c-.041.043-.102.019-.153-.004-.818-.356-7.178-3.044-8.088-3.43zm18.938-5.567l5.781 5.782-1.393 8.629v.022a.203.203 0 01-.012.058c-.015.03-.045.036-.076.045a2.77 2.77 0 00-.83.414.226.226 0 00-.03.026c-.016.018-.033.034-.06.037a.172.172 0 01-.065-.01l-8.81-3.744-.017-.007c-.056-.023-.123-.05-.123-.108a3.33 3.33 0 00-.47-1.385c-.042-.07-.089-.143-.053-.214l6.158-9.545zm-5.955 13.033l8.26 3.498c.045.021.095.04.115.088a.16.16 0 010 .086 2.056 2.056 0 00-.046.398v.232c0 .057-.059.082-.113.104l-.017.006c-1.308.56-18.369 7.834-18.395 7.834-.025 0-.053 0-.078-.026-.046-.045 0-.109.04-.166l.022-.03 6.787-10.51.012-.018c.04-.064.085-.135.158-.135l.068.01c.154.022.29.042.428.042a3.07 3.07 0 002.56-1.359.247.247 0 01.051-.06c.04-.03.102-.016.148.006zm-9.458 13.909l18.596-7.93s.027 0 .053.025c.101.101.188.17.27.233l.042.026c.038.021.075.045.078.085 0 .015 0 .024-.003.038l-1.593 9.785-.006.04c-.01.075-.02.162-.092.162a2.619 2.619 0 00-2.08 1.282l-.007.012a.206.206 0 01-.075.087c-.032.015-.073.009-.106.001l-14.83-3.059c-.015-.003-.23-.786-.247-.787z" fill="url(#paint0_radial)"/><defs><radialGradient id="paint0_radial" cx="0" cy="0" r="1" gradientUnits="userSpaceOnUse" gradientTransform="matrix(0 57.9999 -66.9631 0 13.053 43.213)"><stop stop-color="#20C6B7"/><stop offset="1" stop-color="#4D9ABF"/></radialGradient></defs></svg>