<svg width="88" height="88" fill="none" xmlns="http://www.w3.org/2000/svg"><path fill="#fff" d="M0 0h88v88H0z"/><path d="M25.758 21.597c0 7.93 4.926 12.69 14.777 15.194l10.435 2.42c9.35 2.171 15.027 7.514 15.027 16.196.083 3.757-1.17 7.43-3.423 10.436 0-8.683-4.508-13.358-15.277-16.196l-10.269-2.338c-8.264-1.836-14.61-6.26-14.61-15.694 0-3.59 1.17-7.18 3.34-10.018z" fill="#F04939"/><path d="M56.146 53.237c4.425 2.838 6.428 6.845 6.428 12.605-3.757 4.759-10.185 7.347-17.782 7.347-12.772 0-21.872-6.345-23.792-17.28h12.272c1.586 5.008 5.76 7.346 11.437 7.346 6.762.083 11.353-3.59 11.437-10.018zM25.759 21.513C29.349 16.838 35.526 14 43.038 14c13.107 0 20.62 6.929 22.54 16.613H53.725c-1.336-3.84-4.592-6.846-10.519-6.846-6.428.084-10.769 3.757-11.02 9.6-4.301-2.371-6.595-7.012-6.427-11.854z" fill="#F37368"/></svg>