<svg width="508" height="145" fill="none" xmlns="http://www.w3.org/2000/svg"><path fill="#fff" d="M0 0h508v145H0z"/><path fill="#EAFEED" d="M0 70h508v23H0z"/><path fill="#D6FDDB" d="M0 70h122v23H0z"/><path fill="#FCEFF0" d="M0 47h508v23H0z"/><path fill="#F9DDE0" d="M0 47h122v23H0z"/><path d="M458.992 11.055c.828 0 1.5-.688 1.5-1.524 0-.844-.672-1.531-1.5-1.531-.82 0-1.5.688-1.5 1.531 0 .836.68 1.524 1.5 1.524zm-.547 8.539l1.446-5.172h-1.953L457 19.594h1.445zM458.992 34.055c.828 0 1.5-.688 1.5-1.524 0-.843-.672-1.531-1.5-1.531-.82 0-1.5.688-1.5 1.531 0 .836.68 1.524 1.5 1.524zm-.547 8.539l1.446-5.172h-1.953L457 42.594h1.445zM458.992 57.055c.828 0 1.5-.688 1.5-1.524 0-.843-.672-1.531-1.5-1.531-.82 0-1.5.688-1.5 1.531 0 .836.68 1.524 1.5 1.524zm-.547 8.539l1.446-5.172h-1.953L457 65.594h1.445zM458.992 80.055c.828 0 1.5-.688 1.5-1.524 0-.844-.672-1.531-1.5-1.531-.82 0-1.5.688-1.5 1.531 0 .836.68 1.524 1.5 1.524zm-.547 8.539l1.446-5.172h-1.953L457 88.594h1.445zM458.992 103.055c.828 0 1.5-.688 1.5-1.524 0-.843-.672-1.531-1.5-1.531-.82 0-1.5.688-1.5 1.531 0 .836.68 1.524 1.5 1.524zm-.547 8.539l1.446-5.172h-1.953l-.938 5.172h1.445zM458.992 126.055c.828 0 1.5-.688 1.5-1.524 0-.843-.672-1.531-1.5-1.531-.82 0-1.5.688-1.5 1.531 0 .836.68 1.524 1.5 1.524zm-.547 8.539l1.446-5.172h-1.953l-.938 5.172h1.445zM275.5 13.055c.828 0 1.5-.688 1.5-1.524 0-.844-.672-1.531-1.5-1.531-.82 0-1.5.688-1.5 1.531 0 .836.68 1.524 1.5 1.524zm0 5.984c.828 0 1.5-.695 1.5-1.531 0-.844-.672-1.531-1.5-1.531-.82 0-1.5.687-1.5 1.53 0 .837.68 1.532 1.5 1.532zM295.5 37.055c.828 0 1.5-.688 1.5-1.524 0-.843-.672-1.531-1.5-1.531-.82 0-1.5.688-1.5 1.531 0 .836.68 1.524 1.5 1.524zm0 5.984c.828 0 1.5-.695 1.5-1.531 0-.844-.672-1.531-1.5-1.531-.82 0-1.5.687-1.5 1.53 0 .837.68 1.532 1.5 1.532zM295.5 60.055c.828 0 1.5-.688 1.5-1.524 0-.843-.672-1.531-1.5-1.531-.82 0-1.5.688-1.5 1.531 0 .836.68 1.524 1.5 1.524zm0 5.984c.828 0 1.5-.695 1.5-1.531 0-.844-.672-1.531-1.5-1.531-.82 0-1.5.687-1.5 1.53 0 .837.68 1.532 1.5 1.532zM295.5 83.055c.828 0 1.5-.688 1.5-1.524 0-.844-.672-1.531-1.5-1.531-.82 0-1.5.688-1.5 1.531 0 .836.68 1.524 1.5 1.524zm0 5.984c.828 0 1.5-.695 1.5-1.531 0-.844-.672-1.531-1.5-1.531-.82 0-1.5.687-1.5 1.53 0 .837.68 1.532 1.5 1.532zM355.5 105.055c.828 0 1.5-.688 1.5-1.524 0-.843-.672-1.531-1.5-1.531-.82 0-1.5.688-1.5 1.531 0 .836.68 1.524 1.5 1.524zm0 5.984c.828 0 1.5-.695 1.5-1.531 0-.844-.672-1.531-1.5-1.531-.82 0-1.5.687-1.5 1.531 0 .836.68 1.531 1.5 1.531zM365.5 128.055c.828 0 1.5-.688 1.5-1.524 0-.843-.672-1.531-1.5-1.531-.82 0-1.5.688-1.5 1.531 0 .836.68 1.524 1.5 1.524zm0 5.984c.828 0 1.5-.695 1.5-1.531 0-.844-.672-1.531-1.5-1.531-.82 0-1.5.687-1.5 1.531 0 .836.68 1.531 1.5 1.531zM151.32 59.422V58h-8.265v1.422h8.265zM147.914 82.422h3.461V81h-3.461v-3.469h-1.453V81H143v1.422h3.461v3.453h1.453v-3.453z" fill="#1E3C68"/><path d="M53.75 18.273h1.719l4.976-9.843V7h-7.672v1.398h6.016v.11l-5.039 9.765zM103.203 18.273h1.719l4.976-9.843V7h-7.671v1.398h6.015v.11l-5.039 9.765zM56.578 41.523c2.43 0 4.11-1.336 4.11-3.273 0-1.406-.946-2.57-2.344-2.867v-.125c1.172-.32 1.89-1.274 1.89-2.492 0-1.766-1.515-3.016-3.656-3.016-2.14 0-3.656 1.25-3.656 3.016 0 1.21.726 2.18 1.883 2.492v.125c-1.422.336-2.336 1.476-2.336 2.867 0 1.938 1.672 3.273 4.11 3.273zm0-6.78c-1.242 0-2.062-.735-2.062-1.837 0-1.093.82-1.828 2.062-1.828 1.234 0 2.063.735 2.063 1.828 0 1.102-.828 1.836-2.063 1.836zm0 5.444c-1.453 0-2.453-.843-2.453-2.07 0-1.226 1-2.07 2.453-2.07 1.453 0 2.453.844 2.453 2.07 0 1.227-1 2.07-2.453 2.07zM106.031 41.523c2.43 0 4.11-1.336 4.11-3.273 0-1.406-.946-2.57-2.344-2.867v-.125c1.172-.32 1.891-1.274 1.891-2.492 0-1.766-1.516-3.016-3.657-3.016-2.14 0-3.656 1.25-3.656 3.016 0 1.21.727 2.18 1.883 2.492v.125c-1.422.336-2.336 1.476-2.336 2.867 0 1.938 1.672 3.273 4.109 3.273zm0-6.78c-1.242 0-2.062-.735-2.062-1.837 0-1.093.82-1.828 2.062-1.828 1.235 0 2.063.735 2.063 1.828 0 1.102-.828 1.836-2.063 1.836zm0 5.444c-1.453 0-2.453-.843-2.453-2.07 0-1.226 1-2.07 2.453-2.07 1.453 0 2.453.844 2.453 2.07 0 1.227-1 2.07-2.453 2.07zM52.578 56.656c0 2.078 1.461 3.586 3.477 3.586.71 0 1.468-.304 1.828-.758l.133.055c-.078.14-.157.266-.422.633l-3 4.101h1.851c.14-.18 2.297-3.171 2.485-3.453 1.11-1.61 1.57-2.828 1.57-4.125 0-2.304-1.64-3.93-3.96-3.93-2.29 0-3.962 1.65-3.962 3.891zm3.961-2.492c1.352 0 2.375 1.047 2.375 2.422 0 1.375-1.023 2.422-2.375 2.422s-2.375-1.047-2.375-2.422c0-1.375 1.023-2.422 2.375-2.422zM102.031 79.656c0 2.078 1.461 3.586 3.477 3.586.711 0 1.469-.305 1.828-.758l.133.055c-.078.14-.157.266-.422.633l-3 4.101h1.851c.141-.18 2.297-3.171 2.485-3.453 1.109-1.61 1.57-2.828 1.57-4.125 0-2.304-1.641-3.93-3.961-3.93-2.289 0-3.961 1.65-3.961 3.891zm3.961-2.492c1.352 0 2.375 1.047 2.375 2.422 0 1.375-1.023 2.422-2.375 2.422-1.351 0-2.375-1.047-2.375-2.422 0-1.375 1.024-2.422 2.375-2.422zM50.945 110.273v-1.382H47.86V99h-1.593L43 101.141v1.64l3.133-2.039h.125v8.149h-3.235v1.382h7.922zM56.555 110.523c2.523 0 3.93-2.101 3.93-5.882 0-3.789-1.407-5.891-3.93-5.891-2.524 0-3.93 2.102-3.93 5.891 0 3.781 1.406 5.882 3.93 5.882zm-2.328-5.882c0-2.946.804-4.5 2.328-4.5 1.015 0 1.71.695 2.062 2.031l-4.36 3.437a12.68 12.68 0 01-.03-.968zm2.328 4.5c-1.016 0-1.711-.696-2.063-2.024l4.352-3.461c.023.313.031.633.031.985 0 2.937-.805 4.5-2.32 4.5zM100.398 110.273v-1.382h-3.085V99h-1.594l-3.266 2.141v1.64l3.133-2.039h.125v8.149h-3.234v1.382h7.921zM106.008 110.523c2.523 0 3.93-2.101 3.93-5.882 0-3.789-1.407-5.891-3.93-5.891-2.524 0-3.93 2.102-3.93 5.891 0 3.781 1.406 5.882 3.93 5.882zm-2.328-5.882c0-2.946.804-4.5 2.328-4.5 1.015 0 1.711.695 2.062 2.031l-4.359 3.437a12.894 12.894 0 01-.031-.968zm2.328 4.5c-1.016 0-1.711-.696-2.063-2.024l4.352-3.461c.023.313.031.633.031.985 0 2.937-.805 4.5-2.32 4.5zM50.945 133.273v-1.382H47.86V122h-1.593L43 124.141v1.64l3.133-2.039h.125v8.149h-3.235v1.382h7.922zM60.836 133.273v-1.382H57.75V122h-1.594l-3.265 2.141v1.64l3.132-2.039h.125v8.149h-3.234v1.382h7.922zM100.398 133.273v-1.382h-3.085V122h-1.594l-3.266 2.141v1.64l3.133-2.039h.125v8.149h-3.234v1.382h7.921zM110.289 133.273v-1.382h-3.086V122h-1.594l-3.265 2.141v1.64l3.133-2.039h.125v8.149h-3.235v1.382h7.922z" fill="#C6C7C7"/><path d="M392.711 11.594l.266-1.32h-1.625l.601-3.032h-1.297l-.601 3.031h-2.141l.602-3.03h-1.297l-.602 3.03H385l-.258 1.32h1.617l-.476 2.446h-1.617L384 15.375h1.617l-.633 3.148h1.305l.609-3.148h2.149l-.625 3.148h1.297l.625-3.148h1.625l.258-1.336h-1.625l.484-2.445h1.625zm-5.102-.055h2.243l-.508 2.578h-2.235l.5-2.578zM397.008 13.375h1.304c1.485 0 2.43.781 2.43 2.008 0 1.203-.922 1.96-2.39 1.96-1.352 0-2.297-.734-2.407-1.882h-1.523c.101 1.992 1.68 3.297 3.976 3.297 2.329 0 3.977-1.367 3.977-3.313 0-1.523-.898-2.562-2.406-2.758v-.124c1.219-.282 1.945-1.258 1.945-2.602 0-1.734-1.469-2.945-3.57-2.945-2.172 0-3.586 1.234-3.703 3.234h1.515c.102-1.156.906-1.867 2.133-1.867 1.227 0 2.039.71 2.039 1.812 0 1.11-.844 1.883-2.062 1.883h-1.258v1.297zM408.305 18.773c2.429 0 4.109-1.335 4.109-3.273 0-1.406-.945-2.57-2.344-2.867v-.125c1.172-.32 1.891-1.274 1.891-2.492 0-1.766-1.516-3.016-3.656-3.016-2.141 0-3.657 1.25-3.657 3.016 0 1.21.727 2.18 1.883 2.492v.125c-1.422.336-2.336 1.476-2.336 2.867 0 1.938 1.672 3.273 4.11 3.273zm0-6.78c-1.243 0-2.063-.735-2.063-1.837 0-1.094.82-1.828 2.063-1.828 1.234 0 2.062.735 2.062 1.828 0 1.102-.828 1.836-2.062 1.836zm0 5.444c-1.453 0-2.453-.843-2.453-2.07 0-1.226 1-2.07 2.453-2.07 1.453 0 2.453.844 2.453 2.07 0 1.227-1 2.07-2.453 2.07zM419.352 18.523h1.507v-2.312h1.657v-1.367h-1.664v-3.117h-1.461v3.117h-3.422v-.11l3.64-7.484h-1.648l-3.711 7.664v1.297h5.102v2.312zM432.07 14.86c0-2.063-1.476-3.587-3.484-3.587-.711 0-1.492.32-1.852.758l-.125-.047c.071-.14.071-.156.414-.64l3-4.094h-1.851c-.149.188-2.305 3.18-2.484 3.453-1.094 1.57-1.547 2.79-1.547 4.125 0 2.305 1.648 3.93 3.968 3.93 2.289 0 3.961-1.649 3.961-3.899zm-3.968 2.492c-1.352 0-2.375-1.04-2.375-2.415 0-1.382 1.023-2.421 2.375-2.421 1.351 0 2.375 1.039 2.375 2.421 0 1.376-1.024 2.415-2.375 2.415zM439.133 18.523h1.508v-2.312h1.656v-1.367h-1.664v-3.117h-1.461v3.117h-3.422v-.11l3.641-7.484h-1.649l-3.711 7.664v1.297h5.102v2.312zM445.039 18.523h1.719l4.976-9.843V7.25h-7.672v1.398h6.016v.11l-5.039 9.765zM392.711 34.594l.266-1.32h-1.625l.601-3.032h-1.297l-.601 3.031h-2.141l.602-3.03h-1.297l-.602 3.03H385l-.258 1.32h1.617l-.476 2.446h-1.617L384 38.375h1.617l-.633 3.148h1.305l.609-3.148h2.149l-.625 3.148h1.297l.625-3.148h1.625l.258-1.336h-1.625l.484-2.445h1.625zm-5.102-.055h2.243l-.508 2.578h-2.235l.5-2.578zM394.656 33.484v.047h1.539v-.047c0-1.257.828-2.093 2.078-2.093 1.243 0 2.055.75 2.055 1.906 0 .851-.359 1.445-1.82 3.031l-3.774 4.078v1.117h7.375v-1.421h-5.093v-.133l2.515-2.68c1.836-1.922 2.399-2.89 2.399-4.078 0-1.898-1.461-3.195-3.61-3.195-2.148 0-3.664 1.437-3.664 3.468zM405.477 41.523h1.718l4.977-9.843v-1.43H404.5v1.398h6.016v.11l-5.039 9.765zM416.789 36.375h1.305c1.484 0 2.429.781 2.429 2.008 0 1.203-.921 1.96-2.39 1.96-1.352 0-2.297-.734-2.406-1.882h-1.524c.102 1.992 1.68 3.297 3.977 3.297 2.328 0 3.976-1.367 3.976-3.313 0-1.523-.898-2.562-2.406-2.758v-.124c1.219-.282 1.945-1.258 1.945-2.602 0-1.734-1.468-2.945-3.57-2.945-2.172 0-3.586 1.234-3.703 3.234h1.516c.101-1.156.906-1.867 2.132-1.867 1.227 0 2.039.71 2.039 1.812 0 1.11-.843 1.883-2.062 1.883h-1.258v1.297zM432.344 41.523v-1.382h-3.086V30.25h-1.594l-3.266 2.14v1.641l3.133-2.039h.125v8.149h-3.234v1.382h7.922zM436.57 36.375h1.305c1.484 0 2.43.781 2.43 2.008 0 1.203-.922 1.96-2.391 1.96-1.352 0-2.297-.734-2.406-1.882h-1.524c.102 1.992 1.68 3.297 3.977 3.297 2.328 0 3.977-1.367 3.977-3.313 0-1.523-.899-2.562-2.407-2.758v-.124c1.219-.282 1.946-1.258 1.946-2.602 0-1.734-1.469-2.945-3.571-2.945-2.172 0-3.586 1.234-3.703 3.234h1.516c.101-1.156.906-1.867 2.133-1.867 1.226 0 2.039.71 2.039 1.812 0 1.11-.844 1.883-2.063 1.883h-1.258v1.297zM444.109 33.484v.047h1.539v-.047c0-1.257.829-2.093 2.079-2.093 1.242 0 2.054.75 2.054 1.906 0 .851-.359 1.445-1.82 3.031l-3.773 4.078v1.117h7.374v-1.421h-5.093v-.133l2.515-2.68c1.836-1.922 2.399-2.89 2.399-4.078 0-1.898-1.461-3.195-3.61-3.195-2.148 0-3.664 1.437-3.664 3.468zM392.711 57.594l.266-1.32h-1.625l.601-3.032h-1.297l-.601 3.031h-2.141l.602-3.03h-1.297l-.602 3.03H385l-.258 1.32h1.617l-.476 2.446h-1.617L384 61.375h1.617l-.633 3.148h1.305l.609-3.148h2.149l-.625 3.148h1.297l.625-3.148h1.625l.258-1.336h-1.625l.484-2.445h1.625zm-5.102-.055h2.243l-.508 2.578h-2.235l.5-2.578zM398.656 64.523c2.422 0 3.875-1.187 3.875-3.164 0-1.492-1.015-2.609-2.531-2.742V58.5c1.156-.195 1.969-1.219 1.969-2.46 0-1.743-1.258-2.79-3.367-2.79h-3.797v11.273h3.851zm-2.25-9.945h1.797c1.367 0 2.133.633 2.133 1.75 0 1.11-.82 1.727-2.313 1.727h-1.617v-3.477zm0 8.602v-3.852h1.805c1.734 0 2.633.649 2.633 1.906 0 1.297-.875 1.946-2.594 1.946h-1.844zM408.188 64.75c2.359 0 3.945-1.563 3.945-3.883 0-2.21-1.453-3.75-3.539-3.75-1.008 0-1.828.36-2.36 1.04h-.132l.296-3.493h5.086V53.25h-6.375l-.554 6.406h1.547c.429-.765 1.203-1.187 2.156-1.187 1.375 0 2.304.984 2.304 2.437 0 1.453-.921 2.422-2.304 2.422-1.242 0-2.18-.758-2.313-1.86h-1.562c.094 1.954 1.633 3.282 3.805 3.282zM419.352 64.523h1.507v-2.312h1.657v-1.367h-1.664v-3.117h-1.461v3.117h-3.422v-.11l3.64-7.484h-1.648l-3.711 7.664v1.297h5.102v2.312zM432.344 64.523v-1.382h-3.086V53.25h-1.594l-3.266 2.14v1.641l3.133-2.039h.125v8.149h-3.234v1.382h7.922zM442.234 64.523v-1.382h-3.086V53.25h-1.593l-3.266 2.14v1.641l3.133-2.039h.125v8.149h-3.235v1.382h7.922zM444.047 53.25v11.273h3.297c3.195 0 4.804-1.906 4.804-5.671 0-3.711-1.625-5.602-4.804-5.602h-3.297zm1.633 1.445h1.484c2.25 0 3.32 1.344 3.32 4.172 0 2.883-1.054 4.211-3.32 4.211h-1.484v-8.383zM392.711 80.594l.266-1.32h-1.625l.601-3.032h-1.297l-.601 3.031h-2.141l.602-3.03h-1.297l-.602 3.03H385l-.258 1.32h1.617l-.476 2.446h-1.617L384 84.375h1.617l-.633 3.148h1.305l.609-3.148h2.149l-.625 3.148h1.297l.625-3.148h1.625l.258-1.336h-1.625l.484-2.445h1.625zm-5.102-.055h2.243l-.508 2.578h-2.235l.5-2.578zM394.414 79.906c0 2.078 1.461 3.586 3.477 3.586.711 0 1.468-.305 1.828-.758l.133.055a6.1 6.1 0 01-.422.633l-3 4.101h1.851c.141-.18 2.297-3.171 2.485-3.453 1.109-1.61 1.57-2.828 1.57-4.125 0-2.304-1.641-3.93-3.961-3.93-2.289 0-3.961 1.65-3.961 3.891zm3.961-2.492c1.352 0 2.375 1.047 2.375 2.422 0 1.375-1.023 2.422-2.375 2.422S396 81.21 396 79.836c0-1.375 1.023-2.422 2.375-2.422zM405.477 87.523h1.718l4.977-9.843v-1.43H404.5v1.398h6.016v.11l-5.039 9.765zM416.789 82.375h1.305c1.484 0 2.429.781 2.429 2.008 0 1.203-.921 1.96-2.39 1.96-1.352 0-2.297-.734-2.406-1.882h-1.524c.102 1.992 1.68 3.297 3.977 3.297 2.328 0 3.976-1.367 3.976-3.313 0-1.523-.898-2.562-2.406-2.757v-.126c1.219-.28 1.945-1.257 1.945-2.601 0-1.734-1.468-2.945-3.57-2.945-2.172 0-3.586 1.234-3.703 3.234h1.516c.101-1.156.906-1.867 2.132-1.867 1.227 0 2.039.71 2.039 1.812 0 1.11-.843 1.883-2.062 1.883h-1.258v1.297zM427.969 87.75c2.359 0 3.945-1.563 3.945-3.883 0-2.21-1.453-3.75-3.539-3.75-1.008 0-1.828.36-2.359 1.04h-.133l.297-3.493h5.086V76.25h-6.375l-.555 6.406h1.547c.429-.765 1.203-1.187 2.156-1.187 1.375 0 2.305.984 2.305 2.437 0 1.453-.922 2.422-2.305 2.422-1.242 0-2.18-.758-2.312-1.86h-1.563c.094 1.954 1.633 3.282 3.805 3.282zM441.508 86.078h-5.149v-3.61h4.86V81.11h-4.86v-3.414h5.149V76.25h-6.781v11.273h6.781v-1.445zM450.57 87.523h1.727l-3.555-11.273h-1.812l-3.555 11.273h1.641l.906-3.109h3.75l.898 3.11zm-2.797-9.468h.055l1.461 5.039h-2.984l1.468-5.04zM392.711 103.594l.266-1.321h-1.625l.601-3.03h-1.297l-.601 3.03h-2.141l.602-3.03h-1.297l-.602 3.03H385l-.258 1.321h1.617l-.476 2.445h-1.617l-.266 1.336h1.617l-.633 3.148h1.305l.609-3.148h2.149l-.625 3.148h1.297l.625-3.148h1.625l.258-1.336h-1.625l.484-2.445h1.625zm-5.102-.055h2.243l-.508 2.578h-2.235l.5-2.578zM398.633 109.266c-1.695 0-2.578-1.149-2.578-3.336v-2.086c0-2.188.883-3.336 2.57-3.336 1.352 0 2.289.984 2.336 2.461h1.641c-.032-2.477-1.524-3.953-3.961-3.953-2.688 0-4.258 1.773-4.258 4.828v2.086c0 3.054 1.57 4.828 4.258 4.828 2.375 0 3.961-1.508 3.961-3.789h-1.641c-.031 1.422-.922 2.297-2.328 2.297zM408.281 110.773c2.524 0 3.93-2.101 3.93-5.882 0-3.789-1.406-5.891-3.93-5.891-2.523 0-3.929 2.102-3.929 5.891 0 3.781 1.406 5.882 3.929 5.882zm-2.328-5.882c0-2.946.805-4.5 2.328-4.5 1.016 0 1.711.695 2.063 2.031l-4.36 3.437a12.894 12.894 0 01-.031-.968zm2.328 4.5c-1.015 0-1.711-.696-2.062-2.024l4.351-3.461c.024.313.032.633.032.985 0 2.937-.805 4.5-2.321 4.5zM416.742 110.523v-4.789h4.711v-1.398h-4.711v-3.641h5.164V99.25h-6.797v11.273h1.633zM424.266 99.25v11.273h3.296c3.196 0 4.805-1.906 4.805-5.671 0-3.711-1.625-5.602-4.805-5.602h-3.296zm1.632 1.445h1.485c2.25 0 3.32 1.344 3.32 4.172 0 2.883-1.055 4.211-3.32 4.211h-1.485v-8.383zM438.219 110.523c2.422 0 3.875-1.187 3.875-3.164 0-1.492-1.016-2.609-2.532-2.742v-.117c1.157-.195 1.969-1.219 1.969-2.461 0-1.742-1.258-2.789-3.367-2.789h-3.797v11.273h3.852zm-2.25-9.945h1.797c1.367 0 2.132.633 2.132 1.75 0 1.11-.82 1.727-2.312 1.727h-1.617v-3.477zm0 8.602v-3.852h1.804c1.735 0 2.633.649 2.633 1.906 0 1.297-.875 1.946-2.594 1.946h-1.843zM451.852 106.859c0-2.062-1.477-3.586-3.485-3.586-.711 0-1.492.321-1.851.758l-.125-.047c.07-.14.07-.156.414-.64l3-4.094h-1.852c-.148.188-2.305 3.18-2.484 3.453-1.094 1.57-1.547 2.789-1.547 4.125 0 2.305 1.648 3.93 3.969 3.93 2.289 0 3.961-1.649 3.961-3.899zm-3.969 2.493c-1.352 0-2.375-1.04-2.375-2.414 0-1.383 1.023-2.422 2.375-2.422 1.351 0 2.375 1.039 2.375 2.422 0 1.374-1.024 2.414-2.375 2.414zM392.711 126.594l.266-1.321h-1.625l.601-3.031h-1.297l-.601 3.031h-2.141l.602-3.031h-1.297l-.602 3.031H385l-.258 1.321h1.617l-.476 2.445h-1.617l-.266 1.336h1.617l-.633 3.148h1.305l.609-3.148h2.149l-.625 3.148h1.297l.625-3.148h1.625l.258-1.336h-1.625l.484-2.445h1.625zm-5.102-.055h2.243l-.508 2.578h-2.235l.5-2.578zM398.297 133.75c2.359 0 3.945-1.562 3.945-3.883 0-2.211-1.453-3.75-3.539-3.75-1.008 0-1.828.36-2.359 1.039h-.133l.297-3.492h5.086v-1.414h-6.375l-.555 6.406h1.547c.43-.765 1.203-1.187 2.156-1.187 1.375 0 2.305.984 2.305 2.437 0 1.453-.922 2.422-2.305 2.422-1.242 0-2.179-.758-2.312-1.859h-1.563c.094 1.953 1.633 3.281 3.805 3.281zM408.523 132.266c-1.695 0-2.578-1.149-2.578-3.336v-2.086c0-2.188.883-3.336 2.571-3.336 1.351 0 2.289.984 2.336 2.461h1.64c-.031-2.477-1.523-3.953-3.961-3.953-2.687 0-4.258 1.773-4.258 4.828v2.086c0 3.054 1.571 4.828 4.258 4.828 2.375 0 3.961-1.508 3.961-3.789h-1.64c-.032 1.422-.922 2.297-2.329 2.297zM414.195 125.906c0 2.078 1.461 3.586 3.477 3.586.711 0 1.469-.304 1.828-.758l.133.055c-.078.141-.156.266-.422.633l-3 4.101h1.851a273.91 273.91 0 002.485-3.453c1.109-1.609 1.57-2.828 1.57-4.125 0-2.304-1.64-3.929-3.961-3.929-2.289 0-3.961 1.648-3.961 3.89zm3.961-2.492c1.352 0 2.375 1.047 2.375 2.422 0 1.375-1.023 2.422-2.375 2.422-1.351 0-2.375-1.047-2.375-2.422 0-1.375 1.024-2.422 2.375-2.422zM432.344 133.523v-1.382h-3.086v-9.891h-1.594l-3.266 2.141v1.64l3.133-2.039h.125v8.149h-3.234v1.382h7.922zM435.148 133.523h1.719l4.977-9.843v-1.43h-7.672v1.398h6.016v.11l-5.04 9.765zM449.023 133.523h1.508v-2.312h1.657v-1.367h-1.665v-3.117h-1.461v3.117h-3.421v-.11l3.64-7.484h-1.648l-3.711 7.664v1.297h5.101v2.312z" fill="#0366D6"/><path d="M164 16.375c.109 1.867 1.492 3.086 3.617 3.234v.868h.961v-.868c2.149-.172 3.5-1.437 3.5-3.336 0-1.695-.93-2.625-3.18-3.171l-.32-.086V9.164c1.063.156 1.774.828 1.899 1.82h1.406c-.094-1.742-1.391-2.937-3.305-3.117V7h-.961v.867c-2.039.156-3.344 1.383-3.344 3.188 0 1.64.969 2.633 3.086 3.14l.258.063v4.055c-1.234-.149-2.078-.875-2.195-1.938H164zm1.734-5.39c0-1.008.719-1.688 1.883-1.829v3.625c-1.344-.375-1.883-.89-1.883-1.797zm4.883 5.39c0 1.04-.812 1.79-2.039 1.938v-3.829c1.438.375 2.039.938 2.039 1.891zM181.516 13.602c-.211-1.844-1.5-2.915-3.485-2.915-2.367 0-3.734 1.415-3.734 3.899v1.047c0 2.484 1.367 3.906 3.734 3.906 1.985 0 3.274-1.07 3.485-2.883h-1.547c-.157.961-.907 1.532-1.953 1.532-1.383 0-2.149-.97-2.149-2.72v-.718c0-1.75.766-2.719 2.149-2.719 1.039 0 1.804.586 1.953 1.57h1.547zM187.766 19.54c2.296 0 3.757-1.47 3.757-3.774v-1.29c0-2.312-1.461-3.773-3.757-3.773-2.297 0-3.758 1.461-3.758 3.774v1.289c0 2.304 1.461 3.773 3.758 3.773zm0-7.509c1.359 0 2.211.977 2.211 2.555v1.07c0 1.578-.852 2.555-2.211 2.555-1.36 0-2.211-.977-2.211-2.555v-1.07c0-1.578.851-2.555 2.211-2.555zM201.391 19.375v-1.266h-2.735V7.54h-4.351v1.274h2.789v9.296h-2.852v1.266h7.149zM207.547 19.54c2.297 0 3.758-1.47 3.758-3.774v-1.29c0-2.312-1.461-3.773-3.758-3.773-2.297 0-3.758 1.461-3.758 3.774v1.289c0 2.304 1.461 3.773 3.758 3.773zm0-7.509c1.359 0 2.211.977 2.211 2.555v1.07c0 1.578-.852 2.555-2.211 2.555s-2.211-.977-2.211-2.555v-1.07c0-1.578.852-2.555 2.211-2.555zM217.156 15.578c0-2.086 1.071-3.281 2.992-3.281.469 0 1.024.101 1.407.242V10.82c-.282-.117-.743-.18-1.227-.18-1.633 0-2.625.79-2.961 2.391h-.219V10.86h-3.367v1.204h1.852v6.109h-1.688v1.203h5.797v-1.203h-2.586v-2.594zM231.383 21.898v-1.351h-8.11v1.351h8.11zM236.562 19.516c1.227 0 2.102-.524 2.508-1.485h.149v1.344h1.57V7.539h-1.609v4.672h-.149c-.343-.953-1.242-1.492-2.469-1.492-1.96 0-3.21 1.398-3.21 3.625v1.547c0 2.226 1.25 3.625 3.21 3.625zm.516-1.391c-1.312 0-2.14-.922-2.14-2.383V14.47c0-1.461.828-2.39 2.14-2.39 1.313 0 2.141.921 2.141 2.39v1.273c0 1.461-.828 2.383-2.141 2.383zM246.164 19.516c1.203 0 2.117-.5 2.524-1.375h.148v1.242h1.492v-5.82c0-1.79-1.172-2.82-3.226-2.82-1.829 0-3.164.952-3.321 2.359h1.531c.204-.672.852-1.063 1.758-1.063 1.094 0 1.703.547 1.703 1.524v.75l-2.234.117c-1.984.117-3.078 1.008-3.078 2.523 0 1.54 1.078 2.563 2.703 2.563zm.484-1.305c-1 0-1.625-.508-1.625-1.328 0-.828.594-1.297 1.727-1.36l2.023-.101v.898c0 1.086-.906 1.89-2.125 1.89zM256.719 15.578c0-2.086 1.07-3.281 2.992-3.281.469 0 1.023.101 1.406.242V10.82c-.281-.117-.742-.18-1.226-.18-1.633 0-2.625.79-2.961 2.391h-.219V10.86h-3.367v1.204h1.851v6.109h-1.687v1.203h5.797v-1.203h-2.586v-2.594zM265.57 14.57h-.117V7.54h-1.562v11.835h1.562v-3.023l1.07-1.047 2.774 4.07h1.844l-3.485-5.094 3.258-3.422h-1.859l-3.485 3.711zM164 39.375c.109 1.867 1.492 3.086 3.617 3.234v.868h.961v-.868c2.149-.172 3.5-1.437 3.5-3.336 0-1.695-.93-2.625-3.18-3.171l-.32-.086v-3.852c1.063.156 1.774.828 1.899 1.82h1.406c-.094-1.742-1.391-2.937-3.305-3.117V30h-.961v.867c-2.039.156-3.344 1.383-3.344 3.188 0 1.64.969 2.633 3.086 3.14l.258.063v4.054c-1.234-.148-2.078-.874-2.195-1.937H164zm1.734-5.39c0-1.008.719-1.688 1.883-1.829v3.625c-1.344-.375-1.883-.89-1.883-1.797zm4.883 5.39c0 1.04-.812 1.79-2.039 1.938v-3.829c1.438.375 2.039.938 2.039 1.891zM181.516 36.602c-.211-1.844-1.5-2.914-3.485-2.914-2.367 0-3.734 1.414-3.734 3.898v1.047c0 2.484 1.367 3.906 3.734 3.906 1.985 0 3.274-1.07 3.485-2.883h-1.547c-.157.961-.907 1.532-1.953 1.532-1.383 0-2.149-.97-2.149-2.72v-.718c0-1.75.766-2.719 2.149-2.719 1.039 0 1.804.586 1.953 1.57h1.547zM187.766 42.54c2.296 0 3.757-1.47 3.757-3.774v-1.29c0-2.312-1.461-3.773-3.757-3.773-2.297 0-3.758 1.461-3.758 3.774v1.289c0 2.304 1.461 3.773 3.758 3.773zm0-7.509c1.359 0 2.211.977 2.211 2.555v1.07c0 1.578-.852 2.555-2.211 2.555-1.36 0-2.211-.977-2.211-2.555v-1.07c0-1.578.851-2.555 2.211-2.555zM201.391 42.375v-1.266h-2.735V30.54h-4.351v1.273h2.789v9.297h-2.852v1.266h7.149zM207.547 42.54c2.297 0 3.758-1.47 3.758-3.774v-1.29c0-2.312-1.461-3.773-3.758-3.773-2.297 0-3.758 1.461-3.758 3.774v1.289c0 2.304 1.461 3.773 3.758 3.773zm0-7.509c1.359 0 2.211.977 2.211 2.555v1.07c0 1.578-.852 2.555-2.211 2.555s-2.211-.977-2.211-2.555v-1.07c0-1.578.852-2.555 2.211-2.555zM217.156 38.578c0-2.086 1.071-3.281 2.992-3.281.469 0 1.024.101 1.407.242V33.82c-.282-.117-.743-.18-1.227-.18-1.633 0-2.625.79-2.961 2.391h-.219V33.86h-3.367v1.203h1.852v6.11h-1.688v1.203h5.797v-1.203h-2.586v-2.594zM231.383 44.898v-1.351h-8.11v1.351h8.11zM236.562 42.516c1.227 0 2.102-.524 2.508-1.485h.149v1.344h1.57V30.539h-1.609v4.672h-.149c-.343-.953-1.242-1.492-2.469-1.492-1.96 0-3.21 1.398-3.21 3.625v1.547c0 2.226 1.25 3.625 3.21 3.625zm.516-1.391c-1.312 0-2.14-.922-2.14-2.383V37.47c0-1.461.828-2.39 2.14-2.39 1.313 0 2.141.921 2.141 2.39v1.273c0 1.461-.828 2.383-2.141 2.383zM246.164 42.516c1.203 0 2.117-.5 2.524-1.375h.148v1.242h1.492v-5.82c0-1.79-1.172-2.82-3.226-2.82-1.829 0-3.164.952-3.321 2.359h1.531c.204-.672.852-1.063 1.758-1.063 1.094 0 1.703.547 1.703 1.523v.75l-2.234.118c-1.984.117-3.078 1.008-3.078 2.523 0 1.54 1.078 2.563 2.703 2.563zm.484-1.305c-1 0-1.625-.508-1.625-1.328 0-.828.594-1.297 1.727-1.36l2.023-.101v.898c0 1.086-.906 1.89-2.125 1.89zM256.719 38.578c0-2.086 1.07-3.281 2.992-3.281.469 0 1.023.101 1.406.242V33.82c-.281-.117-.742-.18-1.226-.18-1.633 0-2.625.79-2.961 2.391h-.219V33.86h-3.367v1.203h1.851v6.11h-1.687v1.203h5.797v-1.203h-2.586v-2.594zM265.57 37.57h-.117v-7.03h-1.562v11.835h1.562v-3.023l1.07-1.047 2.774 4.07h1.844l-3.485-5.094 3.258-3.422h-1.859l-3.485 3.711zM278.945 40.125c-.211.695-.968 1.125-1.976 1.125-1.344 0-2.211-.922-2.211-2.36v-.382h5.711v-.922c0-2.422-1.352-3.89-3.578-3.89-2.211 0-3.672 1.476-3.672 3.718v1.297c0 2.422 1.367 3.828 3.758 3.828 1.835 0 3.242-.984 3.468-2.414h-1.5zm-2.07-5.148c1.289 0 2.055.914 2.055 2.43h-4.172c0-1.524.797-2.43 2.117-2.43zM286.391 38.578c0-2.086 1.07-3.281 2.992-3.281.469 0 1.023.101 1.406.242V33.82c-.281-.117-.742-.18-1.227-.18-1.632 0-2.624.79-2.96 2.391h-.219V33.86h-3.367v1.203h1.851v6.11h-1.687v1.203h5.797v-1.203h-2.586v-2.594zM164 62.375c.109 1.867 1.492 3.086 3.617 3.234v.868h.961v-.868c2.149-.171 3.5-1.437 3.5-3.336 0-1.695-.93-2.625-3.18-3.171l-.32-.086v-3.852c1.063.156 1.774.828 1.899 1.82h1.406c-.094-1.742-1.391-2.937-3.305-3.117V53h-.961v.867c-2.039.156-3.344 1.383-3.344 3.188 0 1.64.969 2.633 3.086 3.14l.258.063v4.054c-1.234-.148-2.078-.874-2.195-1.937H164zm1.734-5.39c0-1.008.719-1.688 1.883-1.829v3.625c-1.344-.375-1.883-.89-1.883-1.797zm4.883 5.39c0 1.04-.812 1.79-2.039 1.938v-3.829c1.438.375 2.039.938 2.039 1.891zM181.516 59.602c-.211-1.844-1.5-2.914-3.485-2.914-2.367 0-3.734 1.414-3.734 3.898v1.047c0 2.484 1.367 3.906 3.734 3.906 1.985 0 3.274-1.07 3.485-2.883h-1.547c-.157.961-.907 1.532-1.953 1.532-1.383 0-2.149-.97-2.149-2.72v-.718c0-1.75.766-2.719 2.149-2.719 1.039 0 1.804.586 1.953 1.57h1.547zM187.766 65.54c2.296 0 3.757-1.47 3.757-3.774v-1.29c0-2.312-1.461-3.773-3.757-3.773-2.297 0-3.758 1.461-3.758 3.774v1.289c0 2.304 1.461 3.773 3.758 3.773zm0-7.509c1.359 0 2.211.977 2.211 2.555v1.07c0 1.578-.852 2.555-2.211 2.555-1.36 0-2.211-.977-2.211-2.555v-1.07c0-1.578.851-2.555 2.211-2.555zM201.391 65.375v-1.266h-2.735V53.54h-4.351v1.273h2.789v9.297h-2.852v1.266h7.149zM207.547 65.54c2.297 0 3.758-1.47 3.758-3.774v-1.29c0-2.312-1.461-3.773-3.758-3.773-2.297 0-3.758 1.461-3.758 3.774v1.289c0 2.304 1.461 3.773 3.758 3.773zm0-7.509c1.359 0 2.211.977 2.211 2.555v1.07c0 1.578-.852 2.555-2.211 2.555s-2.211-.977-2.211-2.555v-1.07c0-1.578.852-2.555 2.211-2.555zM217.156 61.578c0-2.086 1.071-3.281 2.992-3.281.469 0 1.024.101 1.407.242V56.82c-.282-.117-.743-.18-1.227-.18-1.633 0-2.625.79-2.961 2.391h-.219V56.86h-3.367v1.203h1.852v6.11h-1.688v1.203h5.797v-1.203h-2.586v-2.594zM231.383 67.898v-1.351h-8.11v1.351h8.11zM236.273 65.516c1.204 0 2.118-.5 2.524-1.375h.148v1.242h1.493v-5.82c0-1.79-1.172-2.82-3.227-2.82-1.828 0-3.164.952-3.32 2.359h1.531c.203-.672.851-1.063 1.758-1.063 1.093 0 1.703.547 1.703 1.523v.75l-2.235.118c-1.984.117-3.078 1.008-3.078 2.523 0 1.54 1.078 2.563 2.703 2.563zm.485-1.305c-1 0-1.625-.508-1.625-1.328 0-.828.594-1.297 1.726-1.36l2.024-.101v.898c0 1.086-.906 1.89-2.125 1.89zM250.75 59.602c-.211-1.844-1.5-2.914-3.484-2.914-2.368 0-3.735 1.414-3.735 3.898v1.047c0 2.484 1.367 3.906 3.735 3.906 1.984 0 3.273-1.07 3.484-2.883h-1.547c-.156.961-.906 1.532-1.953 1.532-1.383 0-2.148-.97-2.148-2.72v-.718c0-1.75.765-2.719 2.148-2.719 1.039 0 1.805.586 1.953 1.57h1.547zM255.453 54.531v2.375h-2.25v1.29h2.25v4.6c0 1.829.953 2.61 3.133 2.61.328 0 1.562-.031 1.734-.062v-1.281c-.187.023-1.226.039-1.625.039-1.086 0-1.672-.461-1.672-1.305v-4.602h3.344v-1.289H257v-2.375h-1.547zM267.031 54.867c.703 0 1.211-.484 1.211-1.156 0-.68-.508-1.164-1.211-1.164-.695 0-1.211.484-1.211 1.164 0 .672.516 1.156 1.211 1.156zm3.594 10.508v-1.266h-2.75v-7.25h-4.336v1.266h2.805v5.984h-2.867v1.266h7.148zM272.836 56.86l3.078 8.515h1.742l3.071-8.516h-1.665l-2.21 6.914h-.11l-2.226-6.914h-1.68zM288.836 63.125c-.211.695-.969 1.125-1.977 1.125-1.343 0-2.211-.922-2.211-2.36v-.382h5.711v-.922c0-2.422-1.351-3.89-3.578-3.89-2.211 0-3.672 1.476-3.672 3.718v1.297c0 2.422 1.368 3.828 3.758 3.828 1.836 0 3.242-.984 3.469-2.414h-1.5zm-2.07-5.148c1.289 0 2.054.914 2.054 2.43h-4.172c0-1.524.797-2.43 2.118-2.43zM164 85.375c.109 1.867 1.492 3.086 3.617 3.234v.868h.961v-.868c2.149-.171 3.5-1.437 3.5-3.336 0-1.695-.93-2.625-3.18-3.171l-.32-.086v-3.852c1.063.156 1.774.828 1.899 1.82h1.406c-.094-1.742-1.391-2.937-3.305-3.117V76h-.961v.867c-2.039.156-3.344 1.383-3.344 3.188 0 1.64.969 2.632 3.086 3.14l.258.063v4.055c-1.234-.149-2.078-.876-2.195-1.938H164zm1.734-5.39c0-1.008.719-1.688 1.883-1.829v3.625c-1.344-.375-1.883-.89-1.883-1.797zm4.883 5.39c0 1.04-.812 1.79-2.039 1.938v-3.829c1.438.375 2.039.938 2.039 1.891zM181.516 82.602c-.211-1.844-1.5-2.915-3.485-2.915-2.367 0-3.734 1.415-3.734 3.899v1.047c0 2.484 1.367 3.906 3.734 3.906 1.985 0 3.274-1.07 3.485-2.883h-1.547c-.157.961-.907 1.531-1.953 1.531-1.383 0-2.149-.968-2.149-2.718v-.719c0-1.75.766-2.719 2.149-2.719 1.039 0 1.804.586 1.953 1.57h1.547zM187.766 88.54c2.296 0 3.757-1.47 3.757-3.774v-1.29c0-2.312-1.461-3.773-3.757-3.773-2.297 0-3.758 1.461-3.758 3.774v1.289c0 2.304 1.461 3.773 3.758 3.773zm0-7.509c1.359 0 2.211.977 2.211 2.555v1.07c0 1.578-.852 2.555-2.211 2.555-1.36 0-2.211-.977-2.211-2.555v-1.07c0-1.578.851-2.555 2.211-2.555zM201.391 88.375v-1.266h-2.735V76.54h-4.351v1.273h2.789v9.297h-2.852v1.266h7.149zM207.547 88.54c2.297 0 3.758-1.47 3.758-3.774v-1.29c0-2.312-1.461-3.773-3.758-3.773-2.297 0-3.758 1.461-3.758 3.774v1.289c0 2.304 1.461 3.773 3.758 3.773zm0-7.509c1.359 0 2.211.977 2.211 2.555v1.07c0 1.578-.852 2.555-2.211 2.555s-2.211-.977-2.211-2.555v-1.07c0-1.578.852-2.555 2.211-2.555zM217.156 84.578c0-2.086 1.071-3.281 2.992-3.281.469 0 1.024.101 1.407.242V79.82c-.282-.117-.743-.18-1.227-.18-1.633 0-2.625.79-2.961 2.391h-.219V79.86h-3.367v1.204h1.852v6.109h-1.688v1.203h5.797v-1.203h-2.586v-2.594zM231.383 90.898v-1.351h-8.11v1.351h8.11zM236.273 88.516c1.204 0 2.118-.5 2.524-1.375h.148v1.242h1.493v-5.82c0-1.79-1.172-2.82-3.227-2.82-1.828 0-3.164.952-3.32 2.359h1.531c.203-.672.851-1.063 1.758-1.063 1.093 0 1.703.547 1.703 1.523v.75l-2.235.118c-1.984.117-3.078 1.007-3.078 2.523 0 1.54 1.078 2.563 2.703 2.563zm.485-1.305c-1 0-1.625-.508-1.625-1.328 0-.828.594-1.297 1.726-1.36l2.024-.101v.898c0 1.086-.906 1.89-2.125 1.89zM250.75 82.602c-.211-1.844-1.5-2.915-3.484-2.915-2.368 0-3.735 1.415-3.735 3.899v1.047c0 2.484 1.367 3.906 3.735 3.906 1.984 0 3.273-1.07 3.484-2.883h-1.547c-.156.961-.906 1.531-1.953 1.531-1.383 0-2.148-.968-2.148-2.718v-.719c0-1.75.765-2.719 2.148-2.719 1.039 0 1.805.586 1.953 1.57h1.547zM255.453 77.531v2.375h-2.25v1.29h2.25v4.6c0 1.829.953 2.61 3.133 2.61.328 0 1.562-.031 1.734-.062v-1.281c-.187.023-1.226.039-1.625.039-1.086 0-1.672-.461-1.672-1.305v-4.602h3.344v-1.289H257v-2.375h-1.547zM267.031 77.867c.703 0 1.211-.484 1.211-1.156 0-.68-.508-1.164-1.211-1.164-.695 0-1.211.484-1.211 1.164 0 .672.516 1.156 1.211 1.156zm3.594 10.508v-1.266h-2.75v-7.25h-4.336v1.266h2.805v5.984h-2.867v1.266h7.148zM272.836 79.86l3.078 8.515h1.742l3.071-8.516h-1.665l-2.21 6.914h-.11l-2.226-6.914h-1.68zM288.836 86.125c-.211.695-.969 1.125-1.977 1.125-1.343 0-2.211-.922-2.211-2.36v-.382h5.711v-.922c0-2.422-1.351-3.89-3.578-3.89-2.211 0-3.672 1.476-3.672 3.718v1.297c0 2.422 1.368 3.828 3.758 3.828 1.836 0 3.242-.984 3.469-2.414h-1.5zm-2.07-5.148c1.289 0 2.054.914 2.054 2.43h-4.172c0-1.524.797-2.43 2.118-2.43zM164 108.375c.109 1.867 1.492 3.086 3.617 3.234v.868h.961v-.868c2.149-.171 3.5-1.437 3.5-3.336 0-1.695-.93-2.625-3.18-3.171l-.32-.086v-3.852c1.063.156 1.774.828 1.899 1.82h1.406c-.094-1.742-1.391-2.937-3.305-3.117V99h-.961v.867c-2.039.156-3.344 1.383-3.344 3.188 0 1.64.969 2.633 3.086 3.14l.258.063v4.054c-1.234-.148-2.078-.874-2.195-1.937H164zm1.734-5.391c0-1.007.719-1.687 1.883-1.828v3.625c-1.344-.375-1.883-.89-1.883-1.797zm4.883 5.391c0 1.039-.812 1.789-2.039 1.937v-3.828c1.438.375 2.039.938 2.039 1.891zM181.516 105.602c-.211-1.844-1.5-2.914-3.485-2.914-2.367 0-3.734 1.414-3.734 3.898v1.047c0 2.484 1.367 3.906 3.734 3.906 1.985 0 3.274-1.07 3.485-2.883h-1.547c-.157.961-.907 1.532-1.953 1.532-1.383 0-2.149-.969-2.149-2.719v-.719c0-1.75.766-2.719 2.149-2.719 1.039 0 1.804.586 1.953 1.571h1.547zM187.766 111.539c2.296 0 3.757-1.469 3.757-3.773v-1.289c0-2.313-1.461-3.774-3.757-3.774-2.297 0-3.758 1.461-3.758 3.774v1.289c0 2.304 1.461 3.773 3.758 3.773zm0-7.508c1.359 0 2.211.977 2.211 2.555v1.07c0 1.578-.852 2.555-2.211 2.555-1.36 0-2.211-.977-2.211-2.555v-1.07c0-1.578.851-2.555 2.211-2.555zM201.391 111.375v-1.266h-2.735v-10.57h-4.351v1.273h2.789v9.297h-2.852v1.266h7.149zM207.547 111.539c2.297 0 3.758-1.469 3.758-3.773v-1.289c0-2.313-1.461-3.774-3.758-3.774-2.297 0-3.758 1.461-3.758 3.774v1.289c0 2.304 1.461 3.773 3.758 3.773zm0-7.508c1.359 0 2.211.977 2.211 2.555v1.07c0 1.578-.852 2.555-2.211 2.555s-2.211-.977-2.211-2.555v-1.07c0-1.578.852-2.555 2.211-2.555zM217.156 107.578c0-2.086 1.071-3.281 2.992-3.281a4.45 4.45 0 011.407.242v-1.719c-.282-.117-.743-.179-1.227-.179-1.633 0-2.625.789-2.961 2.39h-.219v-2.172h-3.367v1.203h1.852v6.11h-1.688v1.203h5.797v-1.203h-2.586v-2.594zM231.383 113.898v-1.351h-8.11v1.351h8.11zM236.273 111.516c1.204 0 2.118-.5 2.524-1.375h.148v1.242h1.493v-5.821c0-1.789-1.172-2.82-3.227-2.82-1.828 0-3.164.953-3.32 2.36h1.531c.203-.672.851-1.063 1.758-1.063 1.093 0 1.703.547 1.703 1.523v.75l-2.235.118c-1.984.117-3.078 1.008-3.078 2.523 0 1.539 1.078 2.563 2.703 2.563zm.485-1.305c-1 0-1.625-.508-1.625-1.328 0-.828.594-1.297 1.726-1.36l2.024-.101v.898c0 1.086-.906 1.891-2.125 1.891zM250.75 105.602c-.211-1.844-1.5-2.914-3.484-2.914-2.368 0-3.735 1.414-3.735 3.898v1.047c0 2.484 1.367 3.906 3.735 3.906 1.984 0 3.273-1.07 3.484-2.883h-1.547c-.156.961-.906 1.532-1.953 1.532-1.383 0-2.148-.969-2.148-2.719v-.719c0-1.75.765-2.719 2.148-2.719 1.039 0 1.805.586 1.953 1.571h1.547zM255.453 100.531v2.375h-2.25v1.289h2.25v4.602c0 1.828.953 2.609 3.133 2.609.328 0 1.562-.031 1.734-.062v-1.282c-.187.024-1.226.04-1.625.04-1.086 0-1.672-.461-1.672-1.305v-4.602h3.344v-1.289H257v-2.375h-1.547zM267.031 100.867c.703 0 1.211-.484 1.211-1.156 0-.68-.508-1.164-1.211-1.164-.695 0-1.211.484-1.211 1.164 0 .672.516 1.156 1.211 1.156zm3.594 10.508v-1.266h-2.75v-7.25h-4.336v1.266h2.805v5.984h-2.867v1.266h7.148zM272.836 102.859l3.078 8.516h1.742l3.071-8.516h-1.665l-2.21 6.914h-.11l-2.226-6.914h-1.68zM288.836 109.125c-.211.695-.969 1.125-1.977 1.125-1.343 0-2.211-.922-2.211-2.359v-.383h5.711v-.922c0-2.422-1.351-3.891-3.578-3.891-2.211 0-3.672 1.477-3.672 3.719v1.297c0 2.422 1.368 3.828 3.758 3.828 1.836 0 3.242-.984 3.469-2.414h-1.5zm-2.07-5.148c1.289 0 2.054.914 2.054 2.429h-4.172c0-1.523.797-2.429 2.118-2.429zM300.617 113.898v-1.351h-8.109v1.351h8.109zM310.188 111.375v-1.266h-2.735v-10.57h-4.351v1.273h2.789v9.297h-2.852v1.266h7.149zM316.484 100.867c.704 0 1.211-.484 1.211-1.156 0-.68-.507-1.164-1.211-1.164-.695 0-1.211.484-1.211 1.164 0 .672.516 1.156 1.211 1.156zm3.594 10.508v-1.266h-2.75v-7.25h-4.336v1.266h2.805v5.984h-2.867v1.266h7.148zM325.992 114.57c2.36 0 3.774-1.203 3.774-3.203v-8.508h-1.547v1.352h-.149c-.343-.93-1.281-1.492-2.515-1.492-2.008 0-3.282 1.398-3.282 3.625v1.453c0 2.219 1.266 3.625 3.227 3.625 1.25 0 2.211-.57 2.547-1.484h.148v1.421c0 1.282-.773 1.985-2.179 1.985-1.078 0-1.883-.43-2.047-1.094h-1.547c.164 1.438 1.523 2.32 3.57 2.32zm-2.125-6.922v-1.179c0-1.453.844-2.391 2.164-2.391 1.313 0 2.164.93 2.164 2.391v1.179c0 1.454-.851 2.391-2.164 2.391-1.32 0-2.164-.937-2.164-2.391zM332.531 111.375h1.571v-4.977c0-1.375.875-2.289 2.195-2.289 1.258 0 1.859.696 1.859 2.141v5.125h1.563v-5.508c0-2.039-1.008-3.156-2.86-3.156-1.289 0-2.257.594-2.695 1.641h-.117v-4.813h-1.516v11.836zM344.469 100.531v2.375h-2.25v1.289h2.25v4.602c0 1.828.953 2.609 3.133 2.609.328 0 1.562-.031 1.734-.062v-1.282c-.188.024-1.227.04-1.625.04-1.086 0-1.672-.461-1.672-1.305v-4.602h3.344v-1.289h-3.367v-2.375h-1.547zM164 131.375c.109 1.867 1.492 3.086 3.617 3.234v.868h.961v-.868c2.149-.171 3.5-1.437 3.5-3.336 0-1.695-.93-2.625-3.18-3.171l-.32-.086v-3.852c1.063.156 1.774.828 1.899 1.82h1.406c-.094-1.742-1.391-2.937-3.305-3.117V122h-.961v.867c-2.039.156-3.344 1.383-3.344 3.188 0 1.64.969 2.633 3.086 3.14l.258.063v4.054c-1.234-.148-2.078-.874-2.195-1.937H164zm1.734-5.391c0-1.007.719-1.687 1.883-1.828v3.625c-1.344-.375-1.883-.89-1.883-1.797zm4.883 5.391c0 1.039-.812 1.789-2.039 1.937v-3.828c1.438.375 2.039.938 2.039 1.891zM181.516 128.602c-.211-1.844-1.5-2.914-3.485-2.914-2.367 0-3.734 1.414-3.734 3.898v1.047c0 2.484 1.367 3.906 3.734 3.906 1.985 0 3.274-1.07 3.485-2.883h-1.547c-.157.961-.907 1.532-1.953 1.532-1.383 0-2.149-.969-2.149-2.719v-.719c0-1.75.766-2.719 2.149-2.719 1.039 0 1.804.586 1.953 1.571h1.547zM187.766 134.539c2.296 0 3.757-1.469 3.757-3.773v-1.289c0-2.313-1.461-3.774-3.757-3.774-2.297 0-3.758 1.461-3.758 3.774v1.289c0 2.304 1.461 3.773 3.758 3.773zm0-7.508c1.359 0 2.211.977 2.211 2.555v1.07c0 1.578-.852 2.555-2.211 2.555-1.36 0-2.211-.977-2.211-2.555v-1.07c0-1.578.851-2.555 2.211-2.555zM201.391 134.375v-1.266h-2.735v-10.57h-4.351v1.273h2.789v9.297h-2.852v1.266h7.149zM207.547 134.539c2.297 0 3.758-1.469 3.758-3.773v-1.289c0-2.313-1.461-3.774-3.758-3.774-2.297 0-3.758 1.461-3.758 3.774v1.289c0 2.304 1.461 3.773 3.758 3.773zm0-7.508c1.359 0 2.211.977 2.211 2.555v1.07c0 1.578-.852 2.555-2.211 2.555s-2.211-.977-2.211-2.555v-1.07c0-1.578.852-2.555 2.211-2.555zM217.156 130.578c0-2.086 1.071-3.281 2.992-3.281a4.45 4.45 0 011.407.242v-1.719c-.282-.117-.743-.179-1.227-.179-1.633 0-2.625.789-2.961 2.39h-.219v-2.172h-3.367v1.203h1.852v6.11h-1.688v1.203h5.797v-1.203h-2.586v-2.594zM231.383 136.898v-1.351h-8.11v1.351h8.11zM236.273 134.516c1.204 0 2.118-.5 2.524-1.375h.148v1.242h1.493v-5.821c0-1.789-1.172-2.82-3.227-2.82-1.828 0-3.164.953-3.32 2.36h1.531c.203-.672.851-1.063 1.758-1.063 1.093 0 1.703.547 1.703 1.523v.75l-2.235.118c-1.984.117-3.078 1.008-3.078 2.523 0 1.539 1.078 2.563 2.703 2.563zm.485-1.305c-1 0-1.625-.508-1.625-1.328 0-.828.594-1.297 1.726-1.36l2.024-.101v.898c0 1.086-.906 1.891-2.125 1.891zM250.75 128.602c-.211-1.844-1.5-2.914-3.484-2.914-2.368 0-3.735 1.414-3.735 3.898v1.047c0 2.484 1.367 3.906 3.735 3.906 1.984 0 3.273-1.07 3.484-2.883h-1.547c-.156.961-.906 1.532-1.953 1.532-1.383 0-2.148-.969-2.148-2.719v-.719c0-1.75.765-2.719 2.148-2.719 1.039 0 1.805.586 1.953 1.571h1.547zM255.453 123.531v2.375h-2.25v1.289h2.25v4.602c0 1.828.953 2.609 3.133 2.609.328 0 1.562-.031 1.734-.062v-1.282c-.187.024-1.226.04-1.625.04-1.086 0-1.672-.461-1.672-1.305v-4.602h3.344v-1.289H257v-2.375h-1.547zM267.031 123.867c.703 0 1.211-.484 1.211-1.156 0-.68-.508-1.164-1.211-1.164-.695 0-1.211.484-1.211 1.164 0 .672.516 1.156 1.211 1.156zm3.594 10.508v-1.266h-2.75v-7.25h-4.336v1.266h2.805v5.984h-2.867v1.266h7.148zM272.836 125.859l3.078 8.516h1.742l3.071-8.516h-1.665l-2.21 6.914h-.11l-2.226-6.914h-1.68zM288.836 132.125c-.211.695-.969 1.125-1.977 1.125-1.343 0-2.211-.922-2.211-2.359v-.383h5.711v-.922c0-2.422-1.351-3.891-3.578-3.891-2.211 0-3.672 1.477-3.672 3.719v1.297c0 2.422 1.368 3.828 3.758 3.828 1.836 0 3.242-.984 3.469-2.414h-1.5zm-2.07-5.148c1.289 0 2.054.914 2.054 2.429h-4.172c0-1.523.797-2.429 2.118-2.429zM300.617 136.898v-1.351h-8.109v1.351h8.109zM310.617 128.008c0-1.508-.601-2.313-1.75-2.313-.844 0-1.5.524-1.703 1.367h-.172c-.18-.867-.734-1.367-1.531-1.367-.813 0-1.414.516-1.617 1.399h-.172v-1.235h-1.383v8.516h1.375v-5.773c0-.938.43-1.516 1.117-1.516.649 0 1 .484 1 1.398v5.891h1.367v-5.773c0-.938.422-1.516 1.094-1.516.641 0 1 .492 1 1.406v5.883h1.375v-6.367zM318.508 132.125c-.211.695-.969 1.125-1.977 1.125-1.343 0-2.211-.922-2.211-2.359v-.383h5.711v-.922c0-2.422-1.351-3.891-3.578-3.891-2.211 0-3.672 1.477-3.672 3.719v1.297c0 2.422 1.367 3.828 3.758 3.828 1.836 0 3.242-.984 3.469-2.414h-1.5zm-2.07-5.148c1.289 0 2.054.914 2.054 2.429h-4.172c0-1.523.797-2.429 2.118-2.429zM325.578 134.516c1.227 0 2.102-.524 2.508-1.485h.148v1.344h1.571v-11.836h-1.61v4.672h-.148c-.344-.953-1.242-1.492-2.469-1.492-1.961 0-3.211 1.398-3.211 3.625v1.547c0 2.226 1.25 3.625 3.211 3.625zm.516-1.391c-1.313 0-2.141-.922-2.141-2.383v-1.273c0-1.461.828-2.391 2.141-2.391 1.312 0 2.14.922 2.14 2.391v1.273c0 1.461-.828 2.383-2.14 2.383zM336.266 123.867c.703 0 1.211-.484 1.211-1.156 0-.68-.508-1.164-1.211-1.164-.696 0-1.211.484-1.211 1.164 0 .672.515 1.156 1.211 1.156zm3.593 10.508v-1.266h-2.75v-7.25h-4.336v1.266h2.805v5.984h-2.867v1.266h7.148zM349.594 125.859h-1.563v4.993c0 1.375-.875 2.289-2.179 2.289-1.258 0-1.844-.688-1.844-2.141v-5.141h-1.57v5.524c0 2.047 1 3.156 2.851 3.156 1.273 0 2.234-.594 2.68-1.641h.109v1.477h1.516v-8.516zM360.07 128.008c0-1.508-.601-2.313-1.75-2.313-.843 0-1.5.524-1.703 1.367h-.172c-.179-.867-.734-1.367-1.531-1.367-.812 0-1.414.516-1.617 1.399h-.172v-1.235h-1.383v8.516h1.375v-5.773c0-.938.43-1.516 1.117-1.516.649 0 1 .484 1 1.398v5.891h1.368v-5.773c0-.938.421-1.516 1.093-1.516.641 0 1 .492 1 1.406v5.883h1.375v-6.367z" fill="#D77339"/></svg>