<svg width="32" height="32" viewBox="0 0 32 32" fill="none" xmlns="http://www.w3.org/2000/svg">
<path d="M26.7775 20.2664L28.3801 21.2278C28.479 21.287 28.5608 21.3708 28.6177 21.471C28.6745 21.5713 28.7044 21.6845 28.7044 21.7998C28.7044 21.915 28.6745 22.0283 28.6177 22.1285C28.5608 22.2288 28.479 22.3126 28.3801 22.3718L16.6868 29.3878C16.4794 29.5124 16.2421 29.5782 16.0001 29.5782C15.7582 29.5782 15.5208 29.5124 15.3135 29.3878L3.62013 22.3718C3.52126 22.3126 3.43942 22.2288 3.38259 22.1285C3.32577 22.0283 3.2959 21.915 3.2959 21.7998C3.2959 21.6845 3.32577 21.5713 3.38259 21.471C3.43942 21.3708 3.52126 21.287 3.62013 21.2278L5.2228 20.2664L16.0001 26.7331L26.7775 20.2664V20.2664ZM26.7775 13.9998L28.3801 14.9611C28.479 15.0203 28.5608 15.1041 28.6177 15.2043C28.6745 15.3046 28.7044 15.4179 28.7044 15.5331C28.7044 15.6483 28.6745 15.7616 28.6177 15.8619C28.5608 15.9621 28.479 16.0459 28.3801 16.1051L16.0001 23.5331L3.62013 16.1051C3.52126 16.0459 3.43942 15.9621 3.38259 15.8619C3.32577 15.7616 3.2959 15.6483 3.2959 15.5331C3.2959 15.4179 3.32577 15.3046 3.38259 15.2043C3.43942 15.1041 3.52126 15.0203 3.62013 14.9611L5.2228 13.9998L16.0001 20.4664L26.7775 13.9998ZM16.6855 1.7451L28.3801 8.7611C28.479 8.82029 28.5608 8.9041 28.6177 9.00435C28.6745 9.1046 28.7044 9.21787 28.7044 9.3331C28.7044 9.44834 28.6745 9.5616 28.6177 9.66185C28.5608 9.7621 28.479 9.84591 28.3801 9.9051L16.0001 17.3331L3.62013 9.9051C3.52126 9.84591 3.43942 9.7621 3.38259 9.66185C3.32577 9.5616 3.2959 9.44834 3.2959 9.3331C3.2959 9.21787 3.32577 9.1046 3.38259 9.00435C3.43942 8.9041 3.52126 8.82029 3.62013 8.7611L15.3135 1.7451C15.5208 1.62051 15.7582 1.55469 16.0001 1.55469C16.2421 1.55469 16.4794 1.62051 16.6868 1.7451H16.6855ZM16.0001 4.44243L7.84947 9.3331L16.0001 14.2238L24.1508 9.3331L16.0001 4.44243Z" fill="#3D404C"/>
</svg>
