<svg width="133" height="20" fill="none" xmlns="http://www.w3.org/2000/svg"><path d="M35.538 11.252c-.517-.151-1.514-.396-2.434-1.038-1.284-.886-1.992-2.17-2.07-3.754-.076-1.34.346-2.49 1.17-3.396 1.188-1.283 2.913-1.64 3.736-1.64 2.339 0 3.642.886 4.81 1.66l.518.358-1.667 2.83-.575-.377c-1.035-.699-1.686-1.132-3.086-1.132-.21 0-1.015.169-1.417.622-.135.151-.307.396-.269.943.02.849.594 1.34 2.07 1.717.192.057.326.094.46.15 1.533.548 2.72 1.284 3.545 2.208.824.943 1.265 2.075 1.265 3.264 0 1.17-.479 2.377-1.284 3.301-.939 1.095-2.242 1.717-3.68 1.717-.709 0-1.666-.057-2.817-.396-1.437-.472-2.72-1.302-3.832-2.528l2.338-2.283c1.686 1.887 3.602 1.887 4.311 1.887 1.323 0 1.764-1.264 1.764-1.68 0-.905-.978-1.735-2.664-2.32l-.077-.019-.115-.094zM55.41 1.63v3.32h-4.445v13.357h-3.2V4.969h-4.466v-3.34h12.112z" fill="#3D404C"/><path fill-rule="evenodd" clip-rule="evenodd" d="M59.818 15.212h6.65l1.418 3.095h3.545L63.843 1.648h-.94l-8.182 16.659h3.603l1.494-3.095zm3.47-7.037l1.666 3.717h-3.469l1.802-3.717z" fill="#3D404C"/><path d="M83.332 5.686c-3.104-2.094-7.8-.15-7.8 4.32 0 4.679 4.964 6.565 7.992 4.188l2.07 2.453a8.099 8.099 0 01-5.31 2c-4.58 0-8.316-3.868-8.316-8.622s3.737-8.622 8.317-8.622c1.916 0 3.718.698 5.136 1.83l-2.09 2.453zM92.339 10.666l-1.246 1.302v6.301h-3.2V1.629h3.2v5.377l4.695-5.377h4.331l-5.615 6.51 5.749 10.13H96.42l-4.081-7.603z" fill="#3D404C"/><path fill-rule="evenodd" clip-rule="evenodd" d="M109.49 13.458c0 1.113-.901 2-1.974 2v-.019h-1.111v2.83h1.15c2.663 0 4.848-2.226 4.848-5.037 0-1.623-.728-3.075-1.898-4a4.95 4.95 0 00.825-2.735c0-2.679-2.108-4.868-4.695-4.868h-4.37v9.81h5.251c1.073 0 1.974.906 1.974 2.02zm-1.131-7.169c0 1.17-.958 1.925-1.858 1.925h-1.4V4.403h1.4c.9 0 1.858.716 1.858 1.886z" fill="#3D404C"/><path d="M115.201 18.288V1.629h3.2v16.64h-3.2v.019zM132.582 1.63v3.32h-4.446v13.357h-3.2V4.969h-4.466v-3.34h12.112z" fill="#3D404C"/><path d="M105.236 18.288h-2.971v-2.83h2.971v2.83z" fill="#207BEA"/><path fill-rule="evenodd" clip-rule="evenodd" d="M22.162 11.515l-9.6 5.263-9.793-5.263a.765.765 0 00-1.035.302c-.21.358-.058.83.307 1.019l10.156 5.47c.23.132.517.132.747 0l9.965-5.47a.74.74 0 00.288-1.02.755.755 0 00-1.035-.3zM3.957 8.025l8.604-4.792 9.582 5.452a.788.788 0 001.054-.283.762.762 0 00-.288-1.037l-9.965-5.66a.792.792 0 00-.766 0L2.02 7.365c-.517.282-.517 1.018 0 1.32l10.157 5.66a.788.788 0 001.054-.283.762.762 0 00-.288-1.038L3.957 8.025zM.009 11.987V8.214a2.306 2.306 0 011.207-2.245L11.373.309a2.377 2.377 0 012.377.019l9.965 5.66a2.346 2.346 0 011.187 2.226v3.773a2.337 2.337 0 01-1.226 2.245l-9.965 5.47a2.41 2.41 0 01-2.319 0l-10.156-5.47c-.844-.453-1.284-1.34-1.227-2.245z" fill="#207BEA"/></svg>