<svg xmlns="http://www.w3.org/2000/svg" xmlns:xlink="http://www.w3.org/1999/xlink" width="40" height="40" version="1.1" viewBox="0 0 40 40"><g id="Widget" fill="none" fill-rule="evenodd" stroke="none" stroke-width="1"><g id="Widget-/-Preferences" fill-rule="nonzero" transform="translate(-30.000000, -430.000000)"><g id="Widget-Open"><g id="User" transform="translate(30.000000, 429.000000)"><g id="google-g" transform="translate(0.000000, 1.000000)"><path id="Path" fill="#FBBB00" d="M9,24.6024263 L7.58642813,29.8904748 L2.41985547,30 C0.875808584,27.1301694 0,23.8467183 0,20.3574901 C0,16.9834302 0.81885961,13.8016356 2.27034458,11 L2.27145501,11 L6.87115537,11.845045 L8.88610205,16.4266639 C8.46437825,17.6587032 8.23452014,18.9812717 8.23452014,20.3574901 C8.23467877,21.8511023 8.50467084,23.2821627 9,24.6024263 Z"/><path id="Path" fill="#518EF8" d="M39.6426917,16 C39.8775422,17.1890068 40,18.4169408 40,19.6719011 C40,21.0791152 39.846069,22.4517785 39.5528254,23.7758403 C38.5573467,28.2814897 35.9561772,32.215823 32.352819,35 L32.3517007,34.9989251 L26.5168629,34.712768 L25.6910517,29.7578052 C28.0820539,28.4100185 29.9506335,26.3008098 30.9349288,23.7758403 L20,23.7758403 L20,16 L31.0944515,16 L39.6426917,16 L39.6426917,16 Z"/><path id="Path" fill="#28B446" d="M31.9989112,35.5476008 L32,35.5487065 C28.5881978,38.3336673 24.2541334,40 19.5362015,40 C11.9544274,40 5.36265223,35.6964722 2,29.3633182 L8.45179102,24 C10.1330783,28.5568066 14.461621,31.8006229 19.5362015,31.8006229 C21.7173876,31.8006229 23.7608449,31.2018204 25.5143017,30.1564828 L31.9989112,35.5476008 Z"/><path id="Path" fill="#F14336" d="M33,4.56549694 L26.4210476,9.82508328 C24.5699166,8.69517391 22.3817186,8.042451 20.0374021,8.042451 C14.7438891,8.042451 10.2459619,11.3701294 8.61687139,16 L2.0011106,10.7109768 L2,10.7109768 C5.37987103,4.34758695 12.1886381,0 20.0374021,0 C24.9648933,0 29.4828906,1.71399799 33,4.56549694 Z"/></g></g></g></g></g></svg>