<svg width="553" height="564" viewBox="0 0 553 564" xmlns="http://www.w3.org/2000/svg"><g fill="#FFF" fill-rule="evenodd"><g opacity=".356"><path opacity=".3" d="M233 71h15v15h-15z"/><path opacity=".8" d="M237 75h7v7h-7z"/><path opacity=".2" d="M268 177h13v13h-13z"/><path opacity=".8" d="M271 180h7v7h-7z"/><path opacity=".3" d="M108 27h13v13h-13z"/><path d="M111 30h7v7h-7z"/><path opacity=".3" d="M254 249h5v5h-5z"/><path opacity=".4" d="M306 247h13v13h-13z"/><path opacity=".8" d="M309 250h7v7h-7z"/><path opacity=".3" d="M149 190h9v9h-9z"/><path opacity=".7" d="M151 192h5v5h-5z"/><path opacity=".4" d="M220 311h11v11h-11z"/><path opacity=".7" d="M223 314h5v5h-5z"/><path opacity=".4" d="M121 342h11v11h-11z"/><path opacity=".7" d="M124 345h5v5h-5z"/><path opacity=".6" d="M159 244h7v7h-7z"/><path opacity=".4" d="M279 355h7v7h-7z"/><path opacity=".5" d="M281 357h3v3h-3z"/></g><g opacity=".219"><path opacity=".2" d="M173 22h13v13h-13z"/><path opacity=".8" d="M176 25h7v7h-7z"/><path opacity=".4" d="M191 122h13v13h-13z"/><path opacity=".8" d="M194 125h7v7h-7z"/><path opacity=".4" d="M125 156h11v11h-11z"/><path opacity=".7" d="M128 159h5v5h-5z"/><path opacity=".4" d="M26 187h11v11H26z"/><path opacity=".7" d="M29 190h5v5h-5z"/><path opacity=".3" d="M67 248h8v8h-8z"/><path opacity=".6" d="M64 89h7v7h-7z"/><path opacity=".5" d="M184 200h7v7h-7z"/></g><g opacity=".4"><path opacity=".3" d="M455 211h15v15h-15z"/><path opacity=".8" d="M459 215h7v7h-7z"/><path opacity=".3" d="M386 262h13v13h-13z"/><path opacity=".8" d="M390 266h5v5h-5z"/><path opacity=".2" d="M490 317h13v13h-13z"/><path opacity=".8" d="M493 320h7v7h-7z"/><path opacity=".3" d="M330 167h13v13h-13z"/><path d="M333 170h7v7h-7z"/><path opacity=".3" d="M476 389h5v5h-5z"/><path d="M528 387h13v13h-13z"/><path opacity=".8" d="M531 390h7v7h-7z"/><path opacity=".5" d="M371 330h8v8h-8z"/><path d="M442 451h11v11h-11z"/><path opacity=".7" d="M445 454h5v5h-5z"/><path d="M343 482h11v11h-11z"/><path opacity=".7" d="M346 485h5v5h-5z"/><path opacity=".3" d="M384 543h8v8h-8z"/><path opacity=".6" d="M381 384h7v7h-7z"/><path opacity=".5" d="M501 495h7v7h-7z"/></g><g opacity=".3"><path opacity=".4" d="M507 257h-13v13h13z"/><path opacity=".8" d="M504 260h-7v7h7z"/></g><g opacity=".5"><path opacity=".3" d="M465 27h5v5h-5z"/><path opacity=".4" d="M517 25h13v13h-13z"/><path opacity=".8" d="M520 28h7v7h-7z"/><path opacity=".4" d="M431 89h11v11h-11z"/><path opacity=".7" d="M434 92h5v5h-5z"/><path opacity=".4" d="M332 120h11v11h-11z"/><path opacity=".7" d="M335 123h5v5h-5z"/><path opacity=".3" d="M373 181h8v8h-8z"/><path opacity=".224" d="M370 22h7v7h-7z"/><path d="M490 133h7v7h-7z"/></g><g opacity=".291"><path opacity=".3" d="M377 465h15v15h-15z"/><path opacity=".8" d="M381 469h7v7h-7z"/><path opacity=".3" d="M308 516h13v13h-13z"/><path opacity=".8" d="M312 520h5v5h-5z"/><path opacity=".3" d="M252 421h13v13h-13z"/><path d="M255 424h7v7h-7z"/><path opacity=".4" d="M315 406h11v11h-11z"/><path opacity=".7" d="M318 409h5v5h-5z"/></g><g opacity=".5"><path opacity=".3" d="M107 253H92v15h15z"/><path opacity=".8" d="M103 257h-7v7h7z"/><path opacity=".3" d="M176 304h-13v13h13z"/><path opacity=".8" d="M172 308h-5v5h5z"/><path opacity=".2" d="M72 359H59v13h13z"/><path opacity=".8" d="M69 362h-7v7h7z"/><path opacity=".3" d="M232 209h-13v13h13z"/><path d="M229 212h-7v7h7z"/><path opacity=".3" d="M86 431h-5v5h5z"/><path opacity=".4" d="M34 429H21v13h13z"/><path opacity=".8" d="M31 432h-7v7h7z"/><path d="M191 372h-8v8h8z"/><path opacity=".4" d="M120 493h-11v11h11z"/><path opacity=".7" d="M117 496h-5v5h5z"/><path opacity=".4" d="M219 524h-11v11h11z"/><path opacity=".7" d="M216 527h-5v5h5z"/><path opacity=".6" d="M181 426h-7v7h7z"/><path d="M61 537h-7v7h7z"/></g><g opacity=".2"><path opacity=".3" d="M32 117H17v15h15z"/><path opacity=".8" d="M28 121h-7v7h7z"/><path opacity=".3" d="M81 148H68v13h13z"/><path opacity=".8" d="M77 152h-5v5h5z"/><path opacity=".3" d="M157 73h-13v13h13z"/><path d="M154 76h-7v7h7z"/><path opacity=".3" d="M11 295H6v5h5z"/><path opacity=".4" d="M45 357H34v11h11z"/><path opacity=".7" d="M42 360h-5v5h5z"/><path opacity=".4" d="M144 388h-11v11h11z"/><path opacity=".7" d="M141 391h-5v5h5z"/><path opacity=".3" d="M103 449h-8v8h8z"/><path opacity=".6" d="M106 290h-7v7h7z"/></g></g></svg>